AbonnerBold-TF.ufo
<glyph name="quotedbl" format="1">
  <advance width="361"/>
  <unicode hex="0022"/>
  <outline>
    <contour>
      <point x="153" y="693" type="curve"/>
      <point x="131" y="711"/>
      <point x="102" y="719"/>
      <point x="62" y="719" type="curve"/>
      <point x="47" y="707"/>
      <point x="40" y="690"/>
      <point x="40" y="665" type="curve" smooth="yes"/>
      <point x="40" y="653"/>
      <point x="40" y="647"/>
      <point x="43" y="619" type="curve" smooth="yes"/>
      <point x="54" y="524" type="line" smooth="yes"/>
      <point x="57" y="495"/>
      <point x="64" y="480"/>
      <point x="77" y="467" type="curve"/>
      <point x="99" y="467"/>
      <point x="116" y="471"/>
      <point x="129" y="487" type="curve"/>
      <point x="145" y="619" type="line" smooth="yes"/>
      <point x="149" y="651"/>
      <point x="150" y="673"/>
    </contour>
    <contour>
      <point x="322" y="693" type="curve"/>
      <point x="301" y="711"/>
      <point x="271" y="719"/>
      <point x="231" y="719" type="curve"/>
      <point x="213" y="706"/>
      <point x="209" y="686"/>
      <point x="209" y="656" type="curve" smooth="yes"/>
      <point x="209" y="648"/>
      <point x="210" y="639"/>
      <point x="212" y="619" type="curve" smooth="yes"/>
      <point x="223" y="524" type="line" smooth="yes"/>
      <point x="226" y="495"/>
      <point x="234" y="480"/>
      <point x="246" y="467" type="curve"/>
      <point x="269" y="467"/>
      <point x="285" y="471"/>
      <point x="298" y="487" type="curve"/>
      <point x="314" y="619" type="line" smooth="yes"/>
      <point x="318" y="651"/>
      <point x="321" y="673"/>
    </contour>
  </outline>
</glyph>
<glyph name="numbersign" format="1">
  <advance width="543"/>
  <unicode hex="0023"/>
  <outline>
    <contour>
      <point x="391" y="258" type="line"/>
      <point x="420" y="413" type="line"/>
      <point x="514" y="413" type="line"/>
      <point x="514" y="488" type="line"/>
      <point x="434" y="488" type="line"/>
      <point x="466" y="667" type="line"/>
      <point x="387" y="667" type="line"/>
      <point x="355" y="488" type="line"/>
      <point x="249" y="488" type="line"/>
      <point x="281" y="667" type="line"/>
      <point x="202" y="667" type="line"/>
      <point x="170" y="488" type="line"/>
      <point x="72" y="488" type="line"/>
      <point x="72" y="413" type="line"/>
      <point x="155" y="413" type="line"/>
      <point x="126" y="258" type="line"/>
      <point x="31" y="258" type="line"/>
      <point x="31" y="184" type="line"/>
      <point x="112" y="184" type="line"/>
      <point x="79" y="0" type="line"/>
      <point x="158" y="0" type="line"/>
      <point x="191" y="184" type="line"/>
      <point x="297" y="184" type="line"/>
      <point x="264" y="0" type="line"/>
      <point x="343" y="0" type="line"/>
      <point x="376" y="184" type="line"/>
      <point x="473" y="184" type="line"/>
      <point x="473" y="258" type="line"/>
    </contour>
    <contour>
      <point x="206" y="258" type="line"/>
      <point x="235" y="413" type="line"/>
      <point x="340" y="413" type="line"/>
      <point x="311" y="258" type="line"/>
    </contour>
  </outline>
</glyph>
<glyph name="dollar" format="1">
  <advance width="560"/>
  <unicode hex="0024"/>
  <outline>
    <contour>
      <point x="241" y="605" type="curve"/>
      <point x="241" y="417" type="line"/>
      <point x="197" y="437"/>
      <point x="165" y="464"/>
      <point x="165" y="510" type="curve" smooth="yes"/>
      <point x="165" y="558"/>
      <point x="194" y="591"/>
    </contour>
    <contour>
      <point x="313" y="48" type="curve"/>
      <point x="313" y="259" type="line"/>
      <point x="362" y="236"/>
      <point x="398" y="207"/>
      <point x="398" y="156" type="curve" smooth="yes"/>
      <point x="398" y="94"/>
      <point x="359" y="61"/>
    </contour>
    <contour>
      <point x="241" y="-17" type="curve"/>
      <point x="241" y="-82" type="line"/>
      <point x="313" y="-82" type="line"/>
      <point x="313" y="-15" type="line"/>
      <point x="431" y="-1"/>
      <point x="526" y="62"/>
      <point x="526" y="184" type="curve" smooth="yes"/>
      <point x="526" y="313"/>
      <point x="413" y="351"/>
      <point x="313" y="388" type="curve"/>
      <point x="313" y="611" type="line"/>
      <point x="383" y="605"/>
      <point x="396" y="562"/>
      <point x="402" y="471" type="curve"/>
      <point x="492" y="471" type="line"/>
      <point x="492" y="627" type="line"/>
      <point x="432" y="653"/>
      <point x="378" y="667"/>
      <point x="313" y="669" type="curve"/>
      <point x="313" y="725" type="line"/>
      <point x="241" y="725" type="line"/>
      <point x="241" y="667" type="line"/>
      <point x="108" y="651"/>
      <point x="43" y="576"/>
      <point x="43" y="474" type="curve" smooth="yes"/>
      <point x="43" y="357"/>
      <point x="147" y="321"/>
      <point x="241" y="287" type="curve"/>
      <point x="241" y="42" type="line"/>
      <point x="139" y="48"/>
      <point x="139" y="114"/>
      <point x="139" y="197" type="curve"/>
      <point x="43" y="197" type="line"/>
      <point x="43" y="25" type="line"/>
      <point x="83" y="6"/>
      <point x="161" y="-14"/>
    </contour>
  </outline>
</glyph>
<glyph name="quotesingle" format="1">
  <advance width="192"/>
  <unicode hex="0027"/>
  <outline>
    <contour>
      <point x="153" y="693" type="curve"/>
      <point x="132" y="711"/>
      <point x="102" y="719"/>
      <point x="62" y="719" type="curve"/>
      <point x="44" y="706"/>
      <point x="40" y="686"/>
      <point x="40" y="656" type="curve" smooth="yes"/>
      <point x="40" y="648"/>
      <point x="41" y="639"/>
      <point x="43" y="619" type="curve" smooth="yes"/>
      <point x="54" y="524" type="line" smooth="yes"/>
      <point x="57" y="495"/>
      <point x="65" y="480"/>
      <point x="77" y="467" type="curve"/>
      <point x="100" y="467"/>
      <point x="116" y="471"/>
      <point x="129" y="487" type="curve"/>
      <point x="145" y="619" type="line" smooth="yes"/>
      <point x="149" y="651"/>
      <point x="152" y="673"/>
    </contour>
  </outline>
</glyph>
<glyph name="parenleft" format="1">
  <advance width="312"/>
  <unicode hex="0028"/>
  <outline>
    <contour>
      <point x="231" y="-190" type="curve"/>
      <point x="292" y="-167" type="line"/>
      <point x="213" y="-114"/>
      <point x="172" y="47"/>
      <point x="172" y="265" type="curve" smooth="yes"/>
      <point x="172" y="530"/>
      <point x="241" y="650"/>
      <point x="292" y="697" type="curve"/>
      <point x="231" y="719" type="line"/>
      <point x="126" y="656"/>
      <point x="42" y="491"/>
      <point x="42" y="265" type="curve" smooth="yes"/>
      <point x="42" y="51"/>
      <point x="106" y="-131"/>
    </contour>
  </outline>
</glyph>
<glyph name="parenright" format="1">
  <advance width="310"/>
  <unicode hex="0029"/>
  <outline>
    <contour>
      <point x="80" y="719" type="curve"/>
      <point x="19" y="696" type="line"/>
      <point x="98" y="643"/>
      <point x="139" y="483"/>
      <point x="139" y="265" type="curve" smooth="yes"/>
      <point x="139" y="0"/>
      <point x="70" y="-120"/>
      <point x="19" y="-168" type="curve"/>
      <point x="80" y="-190" type="line"/>
      <point x="185" y="-125"/>
      <point x="269" y="37"/>
      <point x="269" y="265" type="curve" smooth="yes"/>
      <point x="269" y="478"/>
      <point x="205" y="660"/>
    </contour>
  </outline>
</glyph>
<glyph name="asterisk" format="1">
  <advance width="408"/>
  <unicode hex="002A"/>
  <outline>
    <contour>
      <point x="152" y="511" type="line"/>
      <point x="36" y="528" type="line"/>
      <point x="36" y="436" type="line"/>
      <point x="152" y="453" type="line"/>
      <point x="78" y="360" type="line"/>
      <point x="160" y="313" type="line"/>
      <point x="203" y="425" type="line"/>
      <point x="244" y="313" type="line"/>
      <point x="326" y="360" type="line"/>
      <point x="252" y="453" type="line"/>
      <point x="370" y="436" type="line"/>
      <point x="370" y="528" type="line"/>
      <point x="252" y="511" type="line"/>
      <point x="326" y="605" type="line"/>
      <point x="244" y="652" type="line"/>
      <point x="203" y="541" type="line"/>
      <point x="160" y="652" type="line"/>
      <point x="78" y="605" type="line"/>
    </contour>
  </outline>
</glyph>
<glyph name="plus" format="1">
  <advance width="515"/>
  <unicode hex="002B"/>
  <outline>
    <contour>
      <point x="309" y="5" type="line"/>
      <point x="309" y="198" type="line"/>
      <point x="491" y="198" type="line"/>
      <point x="491" y="294" type="line"/>
      <point x="309" y="294" type="line"/>
      <point x="309" y="486" type="line"/>
      <point x="209" y="486" type="line"/>
      <point x="209" y="294" type="line"/>
      <point x="26" y="294" type="line"/>
      <point x="26" y="198" type="line"/>
      <point x="209" y="198" type="line"/>
      <point x="209" y="5" type="line"/>
    </contour>
  </outline>
</glyph>
<glyph name="period" format="1">
  <advance width="247"/>
  <unicode hex="002E"/>
  <outline>
    <contour>
      <point x="200" y="64" type="curve" smooth="yes"/>
      <point x="200" y="109"/>
      <point x="172" y="143"/>
      <point x="125" y="143" type="curve" smooth="yes"/>
      <point x="78" y="143"/>
      <point x="49" y="109"/>
      <point x="49" y="64" type="curve" smooth="yes"/>
      <point x="49" y="20"/>
      <point x="78" y="-13"/>
      <point x="125" y="-13" type="curve" smooth="yes"/>
      <point x="172" y="-13"/>
      <point x="200" y="20"/>
    </contour>
  </outline>
</glyph>
<glyph name="slash" format="1">
  <advance width="428"/>
  <unicode hex="002F"/>
  <outline>
    <contour>
      <point x="26" y="-9" type="line"/>
      <point x="139" y="-9" type="line"/>
      <point x="407" y="688" type="line"/>
      <point x="294" y="688" type="line"/>
    </contour>
  </outline>
</glyph>
<glyph name="zero" format="1">
  <advance width="546"/>
  <unicode hex="0030"/>
  <outline>
    <contour>
      <point x="508" y="288" type="curve" smooth="yes"/>
      <point x="508" y="461"/>
      <point x="450" y="589"/>
      <point x="276" y="589" type="curve" smooth="yes"/>
      <point x="101" y="589"/>
      <point x="39" y="460"/>
      <point x="39" y="288" type="curve" smooth="yes"/>
      <point x="39" y="112"/>
      <point x="97" y="-14"/>
      <point x="272" y="-14" type="curve" smooth="yes"/>
      <point x="447" y="-14"/>
      <point x="508" y="115"/>
    </contour>
    <contour>
      <point x="371" y="289" type="curve" smooth="yes"/>
      <point x="371" y="122"/>
      <point x="345" y="53"/>
      <point x="273" y="53" type="curve" smooth="yes"/>
      <point x="202" y="53"/>
      <point x="176" y="112"/>
      <point x="176" y="289" type="curve" smooth="yes"/>
      <point x="176" y="464"/>
      <point x="204" y="523"/>
      <point x="273" y="523" type="curve" smooth="yes"/>
      <point x="343" y="523"/>
      <point x="371" y="471"/>
    </contour>
  </outline>
</glyph>
<glyph name="five" format="1">
  <advance width="495"/>
  <unicode hex="0035"/>
  <outline>
    <contour>
      <point x="227" y="325" type="curve" smooth="yes"/>
      <point x="187" y="325"/>
      <point x="151" y="318"/>
      <point x="117" y="305" type="curve"/>
      <point x="116" y="306"/>
      <point x="116" y="306"/>
      <point x="116" y="306" type="curve"/>
      <point x="135" y="457" type="line"/>
      <point x="424" y="457" type="line"/>
      <point x="454" y="665" type="line"/>
      <point x="397" y="665" type="line"/>
      <point x="362" y="599"/>
      <point x="346" y="575"/>
      <point x="334" y="575" type="curve" smooth="yes"/>
      <point x="56" y="575" type="line"/>
      <point x="36" y="221" type="line"/>
      <point x="36" y="221"/>
      <point x="76" y="194"/>
      <point x="76" y="194" type="curve"/>
      <point x="132" y="223"/>
      <point x="170" y="232"/>
      <point x="208" y="232" type="curve" smooth="yes"/>
      <point x="284" y="232"/>
      <point x="328" y="171"/>
      <point x="328" y="100" type="curve" smooth="yes"/>
      <point x="328" y="15"/>
      <point x="248" y="-54"/>
      <point x="31" y="-90" type="curve"/>
      <point x="31" y="-90"/>
      <point x="42" y="-159"/>
      <point x="42" y="-159" type="curve"/>
      <point x="306" y="-149"/>
      <point x="456" y="-38"/>
      <point x="456" y="129" type="curve" smooth="yes"/>
      <point x="456" y="262"/>
      <point x="349" y="325"/>
    </contour>
  </outline>
</glyph>
<glyph name="seven" format="1">
  <advance width="507"/>
  <unicode hex="0037"/>
  <outline>
    <contour>
      <point x="79" y="-94" type="line"/>
      <point x="189" y="-94" type="line"/>
      <point x="482" y="478" type="line"/>
      <point x="482" y="575" type="line"/>
      <point x="30" y="575" type="line"/>
      <point x="30" y="371" type="line"/>
      <point x="103" y="371" type="line"/>
      <point x="107" y="404" type="line" smooth="yes"/>
      <point x="109" y="420"/>
      <point x="112" y="435"/>
      <point x="116" y="449" type="curve"/>
      <point x="131" y="455"/>
      <point x="148" y="458"/>
      <point x="170" y="458" type="curve" smooth="yes"/>
      <point x="368" y="458" type="line"/>
      <point x="316" y="361"/>
      <point x="267" y="263"/>
      <point x="216" y="167" type="curve" smooth="yes"/>
    </contour>
  </outline>
</glyph>
<glyph name="nine" format="1">
  <advance width="535"/>
  <unicode hex="0039"/>
  <outline>
    <contour>
      <point x="35" y="368" type="curve" smooth="yes"/>
      <point x="35" y="223"/>
      <point x="130" y="167"/>
      <point x="223" y="167" type="curve" smooth="yes"/>
      <point x="279" y="167"/>
      <point x="320" y="183"/>
      <point x="356" y="217" type="curve"/>
      <point x="348" y="62"/>
      <point x="303" y="-17"/>
      <point x="210" y="-17" type="curve" smooth="yes"/>
      <point x="165" y="-17"/>
      <point x="136" y="11"/>
      <point x="107" y="26" type="curve"/>
      <point x="56" y="-11" type="line"/>
      <point x="83" y="-38"/>
      <point x="108" y="-91"/>
      <point x="212" y="-91" type="curve" smooth="yes"/>
      <point x="222" y="-91"/>
      <point x="231" y="-91"/>
      <point x="242" y="-90" type="curve"/>
      <point x="416" y="-62"/>
      <point x="495" y="66"/>
      <point x="495" y="291" type="curve" smooth="yes"/>
      <point x="495" y="494"/>
      <point x="420" y="589"/>
      <point x="267" y="589" type="curve" smooth="yes"/>
      <point x="125" y="589"/>
      <point x="35" y="503"/>
    </contour>
    <contour>
      <point x="168" y="379" type="curve" smooth="yes"/>
      <point x="168" y="474"/>
      <point x="206" y="518"/>
      <point x="264" y="518" type="curve" smooth="yes"/>
      <point x="321" y="518"/>
      <point x="358" y="474"/>
      <point x="358" y="378" type="curve" smooth="yes"/>
      <point x="358" y="276"/>
      <point x="317" y="238"/>
      <point x="265" y="238" type="curve" smooth="yes"/>
      <point x="208" y="238"/>
      <point x="168" y="278"/>
    </contour>
  </outline>
</glyph>
<glyph name="colon" format="1">
  <advance width="265"/>
  <unicode hex="003A"/>
  <outline>
    <contour>
      <point x="208" y="64" type="curve" smooth="yes"/>
      <point x="208" y="109"/>
      <point x="180" y="143"/>
      <point x="133" y="143" type="curve" smooth="yes"/>
      <point x="86" y="143"/>
      <point x="58" y="109"/>
      <point x="58" y="64" type="curve" smooth="yes"/>
      <point x="58" y="20"/>
      <point x="86" y="-13"/>
      <point x="133" y="-13" type="curve" smooth="yes"/>
      <point x="180" y="-13"/>
      <point x="208" y="20"/>
    </contour>
    <contour>
      <point x="208" y="383" type="curve" smooth="yes"/>
      <point x="208" y="428"/>
      <point x="180" y="462"/>
      <point x="133" y="462" type="curve" smooth="yes"/>
      <point x="86" y="462"/>
      <point x="58" y="428"/>
      <point x="58" y="383" type="curve" smooth="yes"/>
      <point x="58" y="338"/>
      <point x="86" y="306"/>
      <point x="133" y="306" type="curve" smooth="yes"/>
      <point x="180" y="306"/>
      <point x="208" y="338"/>
    </contour>
  </outline>
</glyph>
<glyph name="less" format="1">
  <advance width="524"/>
  <unicode hex="003C"/>
  <outline>
    <contour>
      <point x="23" y="226" type="line"/>
      <point x="407" y="1" type="line"/>
      <point x="493" y="43" type="line"/>
      <point x="159" y="247" type="line"/>
      <point x="493" y="442" type="line"/>
      <point x="407" y="484" type="line"/>
      <point x="49" y="284" type="line"/>
    </contour>
  </outline>
</glyph>
<glyph name="equal" format="1">
  <advance width="554"/>
  <unicode hex="003D"/>
  <outline>
    <contour>
      <point x="47" y="295" type="line"/>
      <point x="47" y="200" type="line"/>
      <point x="509" y="200" type="line"/>
      <point x="509" y="295" type="line"/>
    </contour>
    <contour>
      <point x="47" y="297" type="line"/>
      <point x="47" y="201" type="line"/>
      <point x="509" y="201" type="line"/>
      <point x="509" y="297" type="line"/>
    </contour>
  </outline>
</glyph>
<glyph name="greater" format="1">
  <advance width="523"/>
  <unicode hex="003E"/>
  <outline>
    <contour>
      <point x="501" y="260" type="line"/>
      <point x="118" y="484" type="line"/>
      <point x="31" y="442" type="line"/>
      <point x="366" y="239" type="line"/>
      <point x="31" y="43" type="line"/>
      <point x="117" y="1" type="line"/>
      <point x="475" y="202" type="line"/>
    </contour>
  </outline>
</glyph>
<glyph name="question" format="1">
  <advance width="413"/>
  <unicode hex="003F"/>
  <outline>
    <contour>
      <point x="191" y="682" type="curve" smooth="yes"/>
      <point x="100" y="682"/>
      <point x="53" y="645"/>
      <point x="27" y="622" type="curve"/>
      <point x="27" y="484" type="line"/>
      <point x="27" y="484"/>
      <point x="132" y="484"/>
      <point x="132" y="484" type="curve"/>
      <point x="132" y="564"/>
      <point x="165" y="589"/>
      <point x="189" y="589" type="curve" smooth="yes"/>
      <point x="227" y="589"/>
      <point x="253" y="569"/>
      <point x="257" y="513" type="curve"/>
      <point x="257" y="437"/>
      <point x="95" y="312"/>
      <point x="95" y="312" type="curve"/>
      <point x="136" y="186" type="line"/>
      <point x="213" y="186" type="line"/>
      <point x="213" y="265" type="line"/>
      <point x="257" y="326"/>
      <point x="387" y="382"/>
      <point x="387" y="510" type="curve" smooth="yes"/>
      <point x="387" y="618"/>
      <point x="310" y="682"/>
    </contour>
    <contour>
      <point x="180" y="143" type="curve" smooth="yes"/>
      <point x="133" y="143"/>
      <point x="105" y="109"/>
      <point x="105" y="64" type="curve" smooth="yes"/>
      <point x="105" y="20"/>
      <point x="133" y="-13"/>
      <point x="180" y="-13" type="curve" smooth="yes"/>
      <point x="227" y="-13"/>
      <point x="255" y="20"/>
      <point x="255" y="64" type="curve" smooth="yes"/>
      <point x="255" y="109"/>
      <point x="227" y="143"/>
    </contour>
  </outline>
</glyph>
<glyph name="at" format="1">
  <advance width="792"/>
  <unicode hex="0040"/>
  <outline>
    <contour>
      <point x="413" y="635" type="curve" smooth="yes"/>
      <point x="205" y="635"/>
      <point x="34" y="490"/>
      <point x="34" y="260" type="curve" smooth="yes"/>
      <point x="34" y="79"/>
      <point x="170" y="-84"/>
      <point x="397" y="-84" type="curve" smooth="yes"/>
      <point x="458" y="-84"/>
      <point x="517" y="-66"/>
      <point x="566" y="-46" type="curve"/>
      <point x="564" y="4" type="line"/>
      <point x="521" y="-14"/>
      <point x="463" y="-27"/>
      <point x="401" y="-27" type="curve" smooth="yes"/>
      <point x="245" y="-27"/>
      <point x="117" y="85"/>
      <point x="117" y="264" type="curve" smooth="yes"/>
      <point x="117" y="463"/>
      <point x="248" y="581"/>
      <point x="413" y="581" type="curve" smooth="yes"/>
      <point x="587" y="581"/>
      <point x="700" y="463"/>
      <point x="700" y="314" type="curve" smooth="yes"/>
      <point x="700" y="214"/>
      <point x="648" y="132"/>
      <point x="584" y="132" type="curve" smooth="yes"/>
      <point x="561" y="132"/>
      <point x="550" y="144"/>
      <point x="550" y="167" type="curve" smooth="yes"/>
      <point x="550" y="180"/>
      <point x="579" y="348"/>
      <point x="580" y="349" type="curve"/>
      <point x="580" y="349"/>
      <point x="589" y="422"/>
      <point x="589" y="422" type="curve"/>
      <point x="589" y="422"/>
      <point x="528" y="422"/>
      <point x="528" y="422" type="curve"/>
      <point x="528" y="422"/>
      <point x="501" y="391"/>
      <point x="501" y="391" type="curve"/>
      <point x="497" y="402"/>
      <point x="463" y="443"/>
      <point x="419" y="443" type="curve" smooth="yes"/>
      <point x="297" y="443"/>
      <point x="224" y="320"/>
      <point x="224" y="213" type="curve" smooth="yes"/>
      <point x="224" y="139"/>
      <point x="269" y="78"/>
      <point x="336" y="78" type="curve"/>
      <point x="336" y="78"/>
      <point x="337" y="78"/>
      <point x="337" y="78" type="curve"/>
      <point x="385" y="79"/>
      <point x="428" y="104"/>
      <point x="466" y="145" type="curve"/>
      <point x="477" y="121"/>
      <point x="505" y="78"/>
      <point x="570" y="78" type="curve" smooth="yes"/>
      <point x="672" y="78"/>
      <point x="761" y="173"/>
      <point x="761" y="318" type="curve" smooth="yes"/>
      <point x="761" y="510"/>
      <point x="613" y="635"/>
    </contour>
    <contour>
      <point x="468" y="248" type="curve"/>
      <point x="457" y="176"/>
      <point x="377" y="143"/>
      <point x="358" y="143" type="curve" smooth="yes"/>
      <point x="323" y="143"/>
      <point x="305" y="174"/>
      <point x="305" y="218" type="curve" smooth="yes"/>
      <point x="305" y="283"/>
      <point x="359" y="376"/>
      <point x="437" y="376" type="curve" smooth="yes"/>
      <point x="455" y="376"/>
      <point x="473" y="372"/>
      <point x="494" y="361" type="curve"/>
      <point x="494" y="361"/>
      <point x="468" y="248"/>
    </contour>
  </outline>
</glyph>
<glyph name="A" format="1">
  <advance width="774"/>
  <unicode hex="0041"/>
  <outline>
    <contour>
      <point x="247" y="201" type="curve"/>
      <point x="479" y="201" type="line"/>
      <point x="506" y="125"/>
      <point x="514" y="107"/>
      <point x="522" y="82" type="curve"/>
      <point x="515" y="71"/>
      <point x="501" y="70"/>
      <point x="476" y="68" type="curve" smooth="yes"/>
      <point x="434" y="65" type="line"/>
      <point x="434" y="0" type="line"/>
      <point x="751" y="0" type="line"/>
      <point x="751" y="64" type="line"/>
      <point x="703" y="70"/>
      <point x="687" y="65"/>
      <point x="664" y="122" type="curve" smooth="yes"/>
      <point x="595" y="295"/>
      <point x="456" y="667"/>
      <point x="456" y="667" type="curve"/>
      <point x="319" y="667" type="line"/>
      <point x="298" y="607"/>
      <point x="170" y="258"/>
      <point x="109" y="107" type="curve" smooth="yes"/>
      <point x="104" y="94"/>
      <point x="97" y="83"/>
      <point x="90" y="74" type="curve"/>
      <point x="75" y="70"/>
      <point x="46" y="67"/>
      <point x="25" y="64" type="curve"/>
      <point x="25" y="0" type="line"/>
      <point x="288" y="0" type="line"/>
      <point x="288" y="65" type="line"/>
      <point x="236" y="68" type="line" smooth="yes"/>
      <point x="221" y="69"/>
      <point x="209" y="72"/>
      <point x="202" y="78" type="curve"/>
      <point x="209" y="101"/>
      <point x="221" y="128"/>
    </contour>
    <contour>
      <point x="457" y="272" type="curve"/>
      <point x="270" y="272" type="line"/>
      <point x="296" y="346"/>
      <point x="336" y="465"/>
      <point x="362" y="547" type="curve"/>
      <point x="366" y="547" type="line"/>
      <point x="392" y="465"/>
      <point x="426" y="362"/>
    </contour>
  </outline>
</glyph>
<glyph name="B" format="1">
  <advance width="651"/>
  <unicode hex="0042"/>
  <outline>
    <contour>
      <point x="274" y="72" type="curve"/>
      <point x="274" y="304" type="line"/>
      <point x="331" y="304" type="line" smooth="yes"/>
      <point x="431" y="304"/>
      <point x="470" y="250"/>
      <point x="470" y="184" type="curve" smooth="yes"/>
      <point x="470" y="104"/>
      <point x="409" y="71"/>
      <point x="341" y="71" type="curve" smooth="yes"/>
      <point x="322" y="71"/>
      <point x="294" y="71"/>
    </contour>
    <contour>
      <point x="320" y="376" type="curve" smooth="yes"/>
      <point x="274" y="376" type="line"/>
      <point x="274" y="596" type="line"/>
      <point x="292" y="597"/>
      <point x="313" y="597"/>
      <point x="331" y="597" type="curve" smooth="yes"/>
      <point x="399" y="597"/>
      <point x="444" y="562"/>
      <point x="444" y="491" type="curve" smooth="yes"/>
      <point x="444" y="419"/>
      <point x="396" y="376"/>
    </contour>
    <contour>
      <point x="90" y="68" type="curve" smooth="yes"/>
      <point x="36" y="64" type="line"/>
      <point x="36" y="0" type="line"/>
      <point x="207" y="0" type="line" smooth="yes"/>
      <point x="235" y="0"/>
      <point x="333" y="-3"/>
      <point x="380" y="-3" type="curve" smooth="yes"/>
      <point x="523" y="-3"/>
      <point x="616" y="59"/>
      <point x="616" y="179" type="curve" smooth="yes"/>
      <point x="616" y="290"/>
      <point x="531" y="337"/>
      <point x="427" y="345" type="curve"/>
      <point x="427" y="350" type="line"/>
      <point x="518" y="363"/>
      <point x="584" y="416"/>
      <point x="584" y="503" type="curve" smooth="yes"/>
      <point x="584" y="610"/>
      <point x="508" y="669"/>
      <point x="369" y="669" type="curve" smooth="yes"/>
      <point x="317" y="669"/>
      <point x="233" y="667"/>
      <point x="205" y="667" type="curve" smooth="yes"/>
      <point x="36" y="667" type="line"/>
      <point x="33" y="602" type="line"/>
      <point x="66" y="599"/>
      <point x="108" y="599"/>
      <point x="130" y="591" type="curve"/>
      <point x="133" y="579"/>
      <point x="134" y="565"/>
      <point x="134" y="547" type="curve" smooth="yes"/>
      <point x="134" y="120" type="line" smooth="yes"/>
      <point x="134" y="102"/>
      <point x="133" y="88"/>
      <point x="130" y="75" type="curve"/>
      <point x="120" y="71"/>
      <point x="106" y="69"/>
    </contour>
  </outline>
</glyph>
<glyph name="C" format="1">
  <advance width="645"/>
  <unicode hex="0043"/>
  <outline>
    <contour>
      <point x="603" y="24" type="curve"/>
      <point x="603" y="223" type="line"/>
      <point x="517" y="223" type="line"/>
      <point x="511" y="175"/>
      <point x="499" y="87"/>
      <point x="499" y="87" type="curve"/>
      <point x="479" y="73"/>
      <point x="429" y="61"/>
      <point x="388" y="61" type="curve" smooth="yes"/>
      <point x="254" y="61"/>
      <point x="191" y="160"/>
      <point x="191" y="324" type="curve" smooth="yes"/>
      <point x="191" y="545"/>
      <point x="284" y="607"/>
      <point x="386" y="607" type="curve" smooth="yes"/>
      <point x="438" y="607"/>
      <point x="481" y="593"/>
      <point x="495" y="578" type="curve"/>
      <point x="507" y="452" type="line"/>
      <point x="590" y="452" type="line"/>
      <point x="600" y="647" type="line"/>
      <point x="544" y="668"/>
      <point x="449" y="682"/>
      <point x="385" y="682" type="curve" smooth="yes"/>
      <point x="171" y="682"/>
      <point x="34" y="550"/>
      <point x="34" y="320" type="curve" smooth="yes"/>
      <point x="34" y="96"/>
      <point x="176" y="-14"/>
      <point x="379" y="-14" type="curve" smooth="yes"/>
      <point x="448" y="-14"/>
      <point x="554" y="0"/>
    </contour>
  </outline>
</glyph>
<glyph name="D" format="1">
  <advance width="755"/>
  <unicode hex="0044"/>
  <outline>
    <contour>
      <point x="277" y="73" type="curve"/>
      <point x="277" y="594" type="line"/>
      <point x="301" y="595"/>
      <point x="324" y="596"/>
      <point x="350" y="596" type="curve" smooth="yes"/>
      <point x="472" y="596"/>
      <point x="565" y="539"/>
      <point x="565" y="335" type="curve" smooth="yes"/>
      <point x="565" y="150"/>
      <point x="488" y="70"/>
      <point x="360" y="70" type="curve" smooth="yes"/>
      <point x="332" y="70"/>
      <point x="303" y="72"/>
    </contour>
    <contour>
      <point x="134" y="539" type="curve" smooth="yes"/>
      <point x="134" y="92" type="line" smooth="yes"/>
      <point x="134" y="71"/>
      <point x="116" y="70"/>
      <point x="90" y="68" type="curve" smooth="yes"/>
      <point x="36" y="64" type="line"/>
      <point x="36" y="0" type="line"/>
      <point x="194" y="0" type="line" smooth="yes"/>
      <point x="219" y="0"/>
      <point x="318" y="-4"/>
      <point x="371" y="-4" type="curve" smooth="yes"/>
      <point x="567" y="-4"/>
      <point x="721" y="98"/>
      <point x="721" y="341" type="curve" smooth="yes"/>
      <point x="721" y="569"/>
      <point x="575" y="670"/>
      <point x="379" y="670" type="curve" smooth="yes"/>
      <point x="314" y="670"/>
      <point x="206" y="667"/>
      <point x="169" y="667" type="curve" smooth="yes"/>
      <point x="36" y="667" type="line"/>
      <point x="33" y="602" type="line"/>
      <point x="66" y="599"/>
      <point x="108" y="599"/>
      <point x="130" y="591" type="curve"/>
      <point x="133" y="576"/>
      <point x="134" y="559"/>
    </contour>
  </outline>
</glyph>
<glyph name="E" format="1">
  <advance width="638"/>
  <unicode hex="0045"/>
  <outline>
    <contour>
      <point x="600" y="179" type="curve"/>
      <point x="521" y="179" type="line"/>
      <point x="515" y="134"/>
      <point x="509" y="106"/>
      <point x="499" y="80" type="curve"/>
      <point x="485" y="73"/>
      <point x="465" y="73"/>
      <point x="436" y="73" type="curve" smooth="yes"/>
      <point x="275" y="73" type="line"/>
      <point x="275" y="308" type="line"/>
      <point x="369" y="308" type="line" smooth="yes"/>
      <point x="386" y="308"/>
      <point x="400" y="308"/>
      <point x="413" y="305" type="curve"/>
      <point x="425" y="286"/>
      <point x="431" y="261"/>
      <point x="434" y="220" type="curve"/>
      <point x="509" y="220" type="line"/>
      <point x="509" y="355" type="line"/>
      <point x="509" y="460" type="line"/>
      <point x="434" y="460" type="line"/>
      <point x="431" y="421"/>
      <point x="424" y="399"/>
      <point x="413" y="381" type="curve"/>
      <point x="400" y="378"/>
      <point x="387" y="378"/>
      <point x="371" y="378" type="curve" smooth="yes"/>
      <point x="275" y="378" type="line"/>
      <point x="275" y="593" type="line"/>
      <point x="420" y="593" type="line" smooth="yes"/>
      <point x="445" y="593"/>
      <point x="463" y="593"/>
      <point x="478" y="587" type="curve"/>
      <point x="486" y="564"/>
      <point x="489" y="541"/>
      <point x="492" y="501" type="curve"/>
      <point x="572" y="501" type="line"/>
      <point x="572" y="667" type="line"/>
      <point x="36" y="667" type="line"/>
      <point x="33" y="602" type="line"/>
      <point x="66" y="599"/>
      <point x="108" y="599"/>
      <point x="130" y="591" type="curve"/>
      <point x="133" y="579"/>
      <point x="134" y="565"/>
      <point x="134" y="547" type="curve" smooth="yes"/>
      <point x="134" y="120" type="line" smooth="yes"/>
      <point x="134" y="102"/>
      <point x="133" y="88"/>
      <point x="130" y="75" type="curve"/>
      <point x="120" y="71"/>
      <point x="106" y="69"/>
      <point x="90" y="68" type="curve" smooth="yes"/>
      <point x="36" y="64" type="line"/>
      <point x="36" y="0" type="line"/>
      <point x="468" y="0" type="line" smooth="yes"/>
      <point x="507" y="0"/>
      <point x="567" y="-3"/>
      <point x="600" y="-3" type="curve"/>
      <point x="600" y="58"/>
      <point x="600" y="118"/>
    </contour>
  </outline>
</glyph>
<glyph name="F" format="1">
  <advance width="602"/>
  <unicode hex="0046"/>
  <outline>
    <contour>
      <point x="36" y="0" type="line"/>
      <point x="382" y="0" type="line"/>
      <point x="382" y="64" type="line"/>
      <point x="326" y="68" type="line" smooth="yes"/>
      <point x="287" y="71"/>
      <point x="278" y="68"/>
      <point x="278" y="115" type="curve" smooth="yes"/>
      <point x="278" y="285" type="line"/>
      <point x="359" y="285" type="line" smooth="yes"/>
      <point x="380" y="285"/>
      <point x="400" y="285"/>
      <point x="417" y="283" type="curve"/>
      <point x="428" y="263"/>
      <point x="434" y="238"/>
      <point x="438" y="194" type="curve"/>
      <point x="513" y="196" type="line"/>
      <point x="513" y="322" type="line"/>
      <point x="513" y="443" type="line"/>
      <point x="438" y="446" type="line"/>
      <point x="433" y="409"/>
      <point x="428" y="384"/>
      <point x="420" y="364" type="curve"/>
      <point x="400" y="358"/>
      <point x="377" y="358"/>
      <point x="344" y="358" type="curve" smooth="yes"/>
      <point x="278" y="358" type="line"/>
      <point x="278" y="593" type="line"/>
      <point x="426" y="593" type="line" smooth="yes"/>
      <point x="448" y="593"/>
      <point x="464" y="592"/>
      <point x="476" y="585" type="curve"/>
      <point x="483" y="559"/>
      <point x="487" y="527"/>
      <point x="490" y="484" type="curve"/>
      <point x="573" y="489" type="line"/>
      <point x="573" y="667" type="line"/>
      <point x="36" y="667" type="line"/>
      <point x="33" y="602" type="line"/>
      <point x="66" y="599"/>
      <point x="108" y="599"/>
      <point x="130" y="591" type="curve"/>
      <point x="133" y="580"/>
      <point x="134" y="566"/>
      <point x="134" y="549" type="curve" smooth="yes"/>
      <point x="134" y="117" type="line" smooth="yes"/>
      <point x="134" y="100"/>
      <point x="133" y="87"/>
      <point x="130" y="75" type="curve"/>
      <point x="120" y="71"/>
      <point x="106" y="69"/>
      <point x="90" y="68" type="curve" smooth="yes"/>
      <point x="36" y="64" type="line"/>
    </contour>
  </outline>
</glyph>
<glyph name="G" format="1">
  <advance width="726"/>
  <unicode hex="0047"/>
  <outline>
    <contour>
      <point x="386" y="-14" type="curve" smooth="yes"/>
      <point x="465" y="-14"/>
      <point x="568" y="4"/>
      <point x="629" y="27" type="curve"/>
      <point x="629" y="168" type="line" smooth="yes"/>
      <point x="629" y="186"/>
      <point x="630" y="201"/>
      <point x="633" y="214" type="curve"/>
      <point x="647" y="220"/>
      <point x="675" y="222"/>
      <point x="700" y="225" type="curve"/>
      <point x="700" y="290" type="line"/>
      <point x="391" y="290" type="line"/>
      <point x="391" y="225" type="line"/>
      <point x="423" y="222"/>
      <point x="462" y="222"/>
      <point x="484" y="214" type="curve"/>
      <point x="487" y="201"/>
      <point x="488" y="186"/>
      <point x="488" y="167" type="curve" smooth="yes"/>
      <point x="488" y="77" type="line"/>
      <point x="462" y="68"/>
      <point x="421" y="61"/>
      <point x="393" y="61" type="curve" smooth="yes"/>
      <point x="265" y="61"/>
      <point x="191" y="141"/>
      <point x="191" y="322" type="curve" smooth="yes"/>
      <point x="191" y="537"/>
      <point x="279" y="607"/>
      <point x="399" y="607" type="curve" smooth="yes"/>
      <point x="441" y="607"/>
      <point x="480" y="598"/>
      <point x="506" y="576" type="curve"/>
      <point x="506" y="576"/>
      <point x="518" y="452"/>
      <point x="518" y="452" type="curve"/>
      <point x="609" y="452" type="line"/>
      <point x="621" y="645" type="line"/>
      <point x="554" y="668"/>
      <point x="475" y="682"/>
      <point x="393" y="682" type="curve" smooth="yes"/>
      <point x="179" y="682"/>
      <point x="34" y="550"/>
      <point x="34" y="319" type="curve" smooth="yes"/>
      <point x="34" y="93"/>
      <point x="173" y="-14"/>
    </contour>
  </outline>
</glyph>
<glyph name="H" format="1">
  <advance width="827"/>
  <unicode hex="0048"/>
  <outline>
    <contour>
      <point x="43" y="55" type="curve"/>
      <point x="43" y="0" type="line"/>
      <point x="377" y="0" type="line"/>
      <point x="377" y="55" type="line"/>
      <point x="316" y="71"/>
      <point x="274" y="92"/>
      <point x="274" y="92" type="curve"/>
      <point x="274" y="303" type="line"/>
      <point x="554" y="303" type="line"/>
      <point x="554" y="93" type="line"/>
      <point x="554" y="93"/>
      <point x="542" y="81"/>
      <point x="463" y="55" type="curve"/>
      <point x="463" y="0" type="line"/>
      <point x="797" y="0" type="line"/>
      <point x="797" y="55" type="line"/>
      <point x="736" y="71"/>
      <point x="694" y="92"/>
      <point x="694" y="92" type="curve"/>
      <point x="694" y="574" type="line"/>
      <point x="694" y="574"/>
      <point x="706" y="586"/>
      <point x="785" y="612" type="curve"/>
      <point x="785" y="667" type="line"/>
      <point x="451" y="667" type="line"/>
      <point x="451" y="612" type="line"/>
      <point x="512" y="596"/>
      <point x="554" y="575"/>
      <point x="554" y="575" type="curve"/>
      <point x="554" y="382" type="line"/>
      <point x="274" y="382" type="line"/>
      <point x="274" y="574" type="line"/>
      <point x="274" y="574"/>
      <point x="286" y="586"/>
      <point x="365" y="612" type="curve"/>
      <point x="365" y="667" type="line"/>
      <point x="31" y="667" type="line"/>
      <point x="31" y="612" type="line"/>
      <point x="92" y="596"/>
      <point x="134" y="575"/>
      <point x="134" y="575" type="curve"/>
      <point x="134" y="93" type="line"/>
      <point x="134" y="93"/>
      <point x="122" y="81"/>
    </contour>
  </outline>
</glyph>
<glyph name="I" format="1">
  <advance width="406"/>
  <unicode hex="0049"/>
  <outline>
    <contour>
      <point x="40" y="55" type="curve"/>
      <point x="40" y="0" type="line"/>
      <point x="375" y="0" type="line"/>
      <point x="375" y="55" type="line"/>
      <point x="307" y="74"/>
      <point x="274" y="92"/>
      <point x="274" y="92" type="curve"/>
      <point x="274" y="574" type="line"/>
      <point x="274" y="574"/>
      <point x="287" y="586"/>
      <point x="366" y="612" type="curve"/>
      <point x="366" y="667" type="line"/>
      <point x="31" y="667" type="line"/>
      <point x="31" y="612" type="line"/>
      <point x="92" y="596"/>
      <point x="134" y="575"/>
      <point x="134" y="575" type="curve"/>
      <point x="134" y="93" type="line"/>
      <point x="134" y="93"/>
      <point x="103" y="73"/>
    </contour>
  </outline>
</glyph>
<glyph name="J" format="1">
  <advance width="516"/>
  <unicode hex="004A"/>
  <outline>
    <contour>
      <point x="491" y="602" type="curve"/>
      <point x="494" y="667" type="line"/>
      <point x="151" y="667" type="line"/>
      <point x="151" y="602" type="line"/>
      <point x="238" y="595" type="line"/>
      <point x="256" y="573"/>
      <point x="259" y="548"/>
      <point x="259" y="509" type="curve" smooth="yes"/>
      <point x="259" y="146" type="line" smooth="yes"/>
      <point x="259" y="46"/>
      <point x="253" y="-11"/>
      <point x="175" y="-11" type="curve" smooth="yes"/>
      <point x="150" y="-11"/>
      <point x="132" y="0"/>
      <point x="132" y="0" type="curve"/>
      <point x="132" y="0"/>
      <point x="116" y="64"/>
      <point x="108" y="109" type="curve"/>
      <point x="86" y="109"/>
      <point x="53" y="108"/>
      <point x="30" y="109" type="curve"/>
      <point x="30" y="-77" type="line"/>
      <point x="62" y="-85"/>
      <point x="129" y="-101"/>
      <point x="164" y="-101" type="curve" smooth="yes"/>
      <point x="388" y="-101"/>
      <point x="404" y="39"/>
      <point x="404" y="170" type="curve" smooth="yes"/>
      <point x="404" y="542" type="line" smooth="yes"/>
      <point x="404" y="561"/>
      <point x="405" y="577"/>
      <point x="408" y="591" type="curve"/>
      <point x="425" y="598"/>
      <point x="460" y="599"/>
    </contour>
  </outline>
</glyph>
<glyph name="K" format="1">
  <advance width="725"/>
  <unicode hex="004B"/>
  <outline>
    <contour>
      <point x="33" y="0" type="line"/>
      <point x="343" y="0" type="line"/>
      <point x="343" y="55" type="line"/>
      <point x="304" y="55" type="line" smooth="yes"/>
      <point x="267" y="55"/>
      <point x="261" y="62"/>
      <point x="261" y="96" type="curve" smooth="yes"/>
      <point x="261" y="270" type="line"/>
      <point x="300" y="311" type="line"/>
      <point x="439" y="113" type="line" smooth="yes"/>
      <point x="452" y="96"/>
      <point x="459" y="84"/>
      <point x="459" y="72" type="curve" smooth="yes"/>
      <point x="459" y="60"/>
      <point x="448" y="55"/>
      <point x="426" y="55" type="curve" smooth="yes"/>
      <point x="391" y="55" type="line"/>
      <point x="391" y="0" type="line"/>
      <point x="699" y="0" type="line"/>
      <point x="699" y="55" type="line"/>
      <point x="657" y="55" type="line" smooth="yes"/>
      <point x="637" y="55"/>
      <point x="618" y="65"/>
      <point x="597" y="93" type="curve" smooth="yes"/>
      <point x="390" y="364" type="line"/>
      <point x="577" y="571" type="line" smooth="yes"/>
      <point x="597" y="593"/>
      <point x="606" y="597"/>
      <point x="634" y="597" type="curve" smooth="yes"/>
      <point x="666" y="597" type="line"/>
      <point x="666" y="652" type="line"/>
      <point x="408" y="652" type="line"/>
      <point x="408" y="597" type="line"/>
      <point x="444" y="597" type="line" smooth="yes"/>
      <point x="461" y="597"/>
      <point x="468" y="591"/>
      <point x="468" y="581" type="curve" smooth="yes"/>
      <point x="468" y="573"/>
      <point x="462" y="565"/>
      <point x="450" y="552" type="curve" smooth="yes"/>
      <point x="261" y="360" type="line"/>
      <point x="261" y="556" type="line" smooth="yes"/>
      <point x="261" y="590"/>
      <point x="267" y="597"/>
      <point x="304" y="597" type="curve" smooth="yes"/>
      <point x="349" y="597" type="line"/>
      <point x="349" y="652" type="line"/>
      <point x="33" y="652" type="line"/>
      <point x="33" y="597" type="line"/>
      <point x="96" y="597" type="line" smooth="yes"/>
      <point x="133" y="597"/>
      <point x="139" y="590"/>
      <point x="139" y="556" type="curve" smooth="yes"/>
      <point x="139" y="96" type="line" smooth="yes"/>
      <point x="139" y="62"/>
      <point x="133" y="55"/>
      <point x="96" y="55" type="curve" smooth="yes"/>
      <point x="33" y="55" type="line"/>
    </contour>
  </outline>
</glyph>
<glyph name="M" format="1">
  <advance width="1005"/>
  <unicode hex="004D"/>
  <outline>
    <contour>
      <point x="78" y="76" type="curve" smooth="yes"/>
      <point x="31" y="58" type="line"/>
      <point x="31" y="0" type="line"/>
      <point x="308" y="0" type="line"/>
      <point x="308" y="58" type="line"/>
      <point x="256" y="76" type="line" smooth="yes"/>
      <point x="229" y="86"/>
      <point x="212" y="81"/>
      <point x="212" y="116" type="curve" smooth="yes"/>
      <point x="212" y="129"/>
      <point x="218" y="502"/>
      <point x="222" y="553" type="curve"/>
      <point x="282" y="396"/>
      <point x="358" y="176"/>
      <point x="414" y="0" type="curve"/>
      <point x="525" y="0" type="line"/>
      <point x="584" y="184"/>
      <point x="665" y="402"/>
      <point x="722" y="552" type="curve"/>
      <point x="726" y="499"/>
      <point x="734" y="142"/>
      <point x="734" y="131" type="curve" smooth="yes"/>
      <point x="734" y="93"/>
      <point x="717" y="88"/>
      <point x="688" y="77" type="curve" smooth="yes"/>
      <point x="639" y="58" type="line"/>
      <point x="639" y="0" type="line"/>
      <point x="976" y="0" type="line"/>
      <point x="976" y="58" type="line"/>
      <point x="919" y="78" type="line" smooth="yes"/>
      <point x="902" y="84"/>
      <point x="886" y="97"/>
      <point x="876" y="101" type="curve"/>
      <point x="852" y="183"/>
      <point x="857" y="428"/>
      <point x="857" y="543" type="curve" smooth="yes"/>
      <point x="857" y="583"/>
      <point x="870" y="581"/>
      <point x="903" y="590" type="curve" smooth="yes"/>
      <point x="953" y="603" type="line"/>
      <point x="953" y="667" type="line"/>
      <point x="683" y="667" type="line"/>
      <point x="644" y="582"/>
      <point x="525" y="237"/>
      <point x="494" y="173" type="curve"/>
      <point x="441" y="339"/>
      <point x="372" y="524"/>
      <point x="317" y="667" type="curve"/>
      <point x="53" y="667" type="line"/>
      <point x="53" y="607" type="line"/>
      <point x="94" y="596" type="line" smooth="yes"/>
      <point x="111" y="591"/>
      <point x="124" y="583"/>
      <point x="135" y="579" type="curve"/>
      <point x="139" y="564"/>
      <point x="141" y="543"/>
      <point x="141" y="501" type="curve" smooth="yes"/>
      <point x="141" y="371"/>
      <point x="132" y="148"/>
      <point x="117" y="92" type="curve"/>
      <point x="107" y="88"/>
      <point x="93" y="82"/>
    </contour>
  </outline>
</glyph>
<glyph name="O" format="1">
  <advance width="735"/>
  <unicode hex="004F"/>
  <outline>
    <contour>
      <point x="362" y="-14" type="curve" smooth="yes"/>
      <point x="567" y="-14"/>
      <point x="701" y="113"/>
      <point x="701" y="340" type="curve" smooth="yes"/>
      <point x="701" y="549"/>
      <point x="572" y="682"/>
      <point x="372" y="682" type="curve" smooth="yes"/>
      <point x="163" y="682"/>
      <point x="34" y="547"/>
      <point x="34" y="326" type="curve" smooth="yes"/>
      <point x="34" y="111"/>
      <point x="168" y="-14"/>
    </contour>
    <contour>
      <point x="367" y="60" type="curve" smooth="yes"/>
      <point x="253" y="60"/>
      <point x="191" y="144"/>
      <point x="191" y="333" type="curve" smooth="yes"/>
      <point x="191" y="527"/>
      <point x="259" y="608"/>
      <point x="370" y="608" type="curve" smooth="yes"/>
      <point x="479" y="608"/>
      <point x="544" y="527"/>
      <point x="544" y="335" type="curve" smooth="yes"/>
      <point x="544" y="152"/>
      <point x="482" y="60"/>
    </contour>
  </outline>
</glyph>
<glyph name="P" format="1">
  <advance width="605"/>
  <unicode hex="0050"/>
  <outline>
    <contour>
      <point x="311" y="358" type="curve" smooth="yes"/>
      <point x="266" y="358" type="line"/>
      <point x="266" y="603" type="line"/>
      <point x="327" y="603" type="line" smooth="yes"/>
      <point x="402" y="603"/>
      <point x="445" y="558"/>
      <point x="445" y="485" type="curve" smooth="yes"/>
      <point x="445" y="398"/>
      <point x="388" y="358"/>
    </contour>
    <contour>
      <point x="35" y="55" type="curve"/>
      <point x="35" y="0" type="line"/>
      <point x="369" y="0" type="line"/>
      <point x="369" y="55" type="line"/>
      <point x="308" y="71"/>
      <point x="266" y="92"/>
      <point x="266" y="92" type="curve"/>
      <point x="266" y="294" type="line"/>
      <point x="319" y="294" type="line" smooth="yes"/>
      <point x="492" y="294"/>
      <point x="579" y="364"/>
      <point x="579" y="486" type="curve" smooth="yes"/>
      <point x="579" y="608"/>
      <point x="505" y="667"/>
      <point x="351" y="667" type="curve" smooth="yes"/>
      <point x="35" y="667" type="line"/>
      <point x="35" y="612" type="line"/>
      <point x="94" y="593"/>
      <point x="126" y="567"/>
      <point x="126" y="567" type="curve"/>
      <point x="126" y="93" type="line"/>
      <point x="126" y="93"/>
      <point x="114" y="81"/>
    </contour>
  </outline>
</glyph>
<glyph name="R" format="1">
  <advance width="705"/>
  <unicode hex="0052"/>
  <outline>
    <contour>
      <point x="306" y="375" type="curve" smooth="yes"/>
      <point x="274" y="375" type="line"/>
      <point x="274" y="603" type="line"/>
      <point x="342" y="603" type="line" smooth="yes"/>
      <point x="401" y="603"/>
      <point x="455" y="570"/>
      <point x="455" y="500" type="curve" smooth="yes"/>
      <point x="455" y="415"/>
      <point x="395" y="375"/>
    </contour>
    <contour>
      <point x="40" y="0" type="line"/>
      <point x="375" y="0" type="line"/>
      <point x="375" y="55" type="line"/>
      <point x="307" y="74"/>
      <point x="274" y="92"/>
      <point x="274" y="92" type="curve"/>
      <point x="274" y="311" type="line"/>
      <point x="314" y="311" type="line" smooth="yes"/>
      <point x="353" y="311"/>
      <point x="358" y="311"/>
      <point x="358" y="312" type="curve" smooth="yes"/>
      <point x="358" y="313"/>
      <point x="509" y="0"/>
      <point x="509" y="0" type="curve"/>
      <point x="681" y="0" type="line"/>
      <point x="681" y="62" type="line"/>
      <point x="633" y="78" type="line"/>
      <point x="613" y="100"/>
      <point x="587" y="141"/>
      <point x="575" y="160" type="curve" smooth="yes"/>
      <point x="571" y="167"/>
      <point x="496" y="309"/>
      <point x="473" y="354" type="curve"/>
      <point x="473" y="356"/>
      <point x="474" y="356"/>
      <point x="475" y="357" type="curve"/>
      <point x="541" y="377"/>
      <point x="592" y="423"/>
      <point x="592" y="508" type="curve" smooth="yes"/>
      <point x="592" y="610"/>
      <point x="516" y="667"/>
      <point x="369" y="667" type="curve" smooth="yes"/>
      <point x="31" y="667" type="line"/>
      <point x="31" y="612" type="line"/>
      <point x="92" y="596"/>
      <point x="134" y="575"/>
      <point x="134" y="575" type="curve"/>
      <point x="134" y="93" type="line"/>
      <point x="134" y="93"/>
      <point x="103" y="73"/>
      <point x="40" y="55" type="curve"/>
    </contour>
  </outline>
</glyph>
<glyph name="S" format="1">
  <advance width="550"/>
  <unicode hex="0053"/>
  <outline>
    <contour>
      <point x="259" y="-14" type="curve" smooth="yes"/>
      <point x="398" y="-14"/>
      <point x="517" y="56"/>
      <point x="517" y="188" type="curve" smooth="yes"/>
      <point x="517" y="400"/>
      <point x="187" y="386"/>
      <point x="187" y="521" type="curve" smooth="yes"/>
      <point x="187" y="582"/>
      <point x="236" y="614"/>
      <point x="301" y="614" type="curve" smooth="yes"/>
      <point x="328" y="614"/>
      <point x="353" y="607"/>
      <point x="371" y="597" type="curve"/>
      <point x="388" y="566"/>
      <point x="395" y="526"/>
      <point x="399" y="473" type="curve"/>
      <point x="481" y="479" type="line"/>
      <point x="485" y="649" type="line"/>
      <point x="428" y="671"/>
      <point x="363" y="682"/>
      <point x="295" y="682" type="curve" smooth="yes"/>
      <point x="148" y="682"/>
      <point x="48" y="605"/>
      <point x="48" y="485" type="curve" smooth="yes"/>
      <point x="48" y="283"/>
      <point x="370" y="308"/>
      <point x="370" y="156" type="curve" smooth="yes"/>
      <point x="370" y="86"/>
      <point x="307" y="58"/>
      <point x="250" y="58" type="curve" smooth="yes"/>
      <point x="121" y="58"/>
      <point x="134" y="138"/>
      <point x="129" y="215" type="curve"/>
      <point x="43" y="208" type="line"/>
      <point x="42" y="32" type="line"/>
      <point x="89" y="4"/>
      <point x="174" y="-14"/>
    </contour>
  </outline>
</glyph>
<glyph name="T" format="1">
  <advance width="663"/>
  <unicode hex="0054"/>
  <outline>
    <contour>
      <point x="216" y="68" type="curve" smooth="yes"/>
      <point x="162" y="64" type="line"/>
      <point x="162" y="0" type="line"/>
      <point x="506" y="0" type="line"/>
      <point x="506" y="64" type="line"/>
      <point x="449" y="68" type="line" smooth="yes"/>
      <point x="432" y="69"/>
      <point x="419" y="71"/>
      <point x="409" y="75" type="curve"/>
      <point x="406" y="89"/>
      <point x="405" y="104"/>
      <point x="405" y="123" type="curve" smooth="yes"/>
      <point x="405" y="588" type="line"/>
      <point x="489" y="590" type="line" smooth="yes"/>
      <point x="492" y="590"/>
      <point x="496" y="590"/>
      <point x="499" y="590" type="curve" smooth="yes"/>
      <point x="546" y="590"/>
      <point x="544" y="576"/>
      <point x="547" y="539" type="curve" smooth="yes"/>
      <point x="553" y="454" type="line"/>
      <point x="635" y="459" type="line"/>
      <point x="635" y="668" type="line"/>
      <point x="314" y="668" type="line"/>
      <point x="27" y="668" type="line"/>
      <point x="27" y="459" type="line"/>
      <point x="112" y="454" type="line"/>
      <point x="116" y="499"/>
      <point x="118" y="554"/>
      <point x="130" y="585" type="curve"/>
      <point x="145" y="588"/>
      <point x="164" y="591"/>
      <point x="189" y="590" type="curve" smooth="yes"/>
      <point x="260" y="588" type="line"/>
      <point x="260" y="123" type="line" smooth="yes"/>
      <point x="260" y="104"/>
      <point x="259" y="89"/>
      <point x="256" y="75" type="curve"/>
      <point x="246" y="71"/>
      <point x="232" y="69"/>
    </contour>
  </outline>
</glyph>
<glyph name="V" format="1">
  <advance width="759"/>
  <unicode hex="0056"/>
  <outline>
    <contour>
      <point x="739" y="603" type="curve"/>
      <point x="742" y="667" type="line"/>
      <point x="467" y="667" type="line"/>
      <point x="464" y="603" type="line"/>
      <point x="499" y="600"/>
      <point x="546" y="601"/>
      <point x="565" y="587" type="curve"/>
      <point x="563" y="576"/>
      <point x="558" y="565"/>
      <point x="553" y="552" type="curve" smooth="yes"/>
      <point x="536" y="504" type="line" smooth="yes"/>
      <point x="507" y="430"/>
      <point x="433" y="182"/>
      <point x="410" y="130" type="curve"/>
      <point x="374" y="247"/>
      <point x="323" y="385"/>
      <point x="281" y="502" type="curve" smooth="yes"/>
      <point x="262" y="554" type="line" smooth="yes"/>
      <point x="258" y="565"/>
      <point x="254" y="576"/>
      <point x="251" y="587" type="curve"/>
      <point x="259" y="595"/>
      <point x="276" y="597"/>
      <point x="299" y="599" type="curve" smooth="yes"/>
      <point x="350" y="603" type="line"/>
      <point x="350" y="667" type="line"/>
      <point x="17" y="667" type="line"/>
      <point x="17" y="603" type="line"/>
      <point x="58" y="599" type="line"/>
      <point x="71" y="597"/>
      <point x="82" y="594"/>
      <point x="92" y="590" type="curve"/>
      <point x="118" y="554"/>
      <point x="146" y="465"/>
      <point x="171" y="398" type="curve" smooth="yes"/>
      <point x="222" y="262"/>
      <point x="281" y="113"/>
      <point x="318" y="-5" type="curve"/>
      <point x="455" y="-5" type="line"/>
      <point x="510" y="167"/>
      <point x="591" y="384"/>
      <point x="654" y="551" type="curve" smooth="yes"/>
      <point x="675" y="606"/>
      <point x="696" y="598"/>
    </contour>
  </outline>
</glyph>
<glyph name="W" format="1">
  <advance width="1118"/>
  <unicode hex="0057"/>
  <outline>
    <contour>
      <point x="559" y="520" type="line"/>
      <point x="562" y="520" type="line"/>
      <point x="723" y="-3" type="line"/>
      <point x="858" y="-3" type="line"/>
      <point x="900" y="176"/>
      <point x="956" y="369"/>
      <point x="1004" y="531" type="curve" smooth="yes"/>
      <point x="1011" y="557"/>
      <point x="1016" y="575"/>
      <point x="1025" y="589" type="curve"/>
      <point x="1044" y="597"/>
      <point x="1074" y="599"/>
      <point x="1100" y="602" type="curve"/>
      <point x="1100" y="667" type="line"/>
      <point x="831" y="667" type="line"/>
      <point x="825" y="602" type="line"/>
      <point x="863" y="599"/>
      <point x="899" y="601"/>
      <point x="920" y="587" type="curve"/>
      <point x="907" y="513"/>
      <point x="808" y="148"/>
      <point x="808" y="148" type="curve"/>
      <point x="655" y="667" type="line"/>
      <point x="507" y="667" type="line"/>
      <point x="353" y="148" type="line"/>
      <point x="353" y="148"/>
      <point x="255" y="534"/>
      <point x="255" y="534" type="curve"/>
      <point x="250" y="554"/>
      <point x="245" y="571"/>
      <point x="242" y="584" type="curve"/>
      <point x="262" y="598"/>
      <point x="292" y="599"/>
      <point x="334" y="602" type="curve"/>
      <point x="336" y="667" type="line"/>
      <point x="18" y="667" type="line"/>
      <point x="18" y="602" type="line"/>
      <point x="40" y="599"/>
      <point x="73" y="597"/>
      <point x="92" y="589" type="curve"/>
      <point x="121" y="531"/>
      <point x="158" y="380"/>
      <point x="187" y="277" type="curve" smooth="yes"/>
      <point x="215" y="177"/>
      <point x="242" y="79"/>
      <point x="261" y="-3" type="curve"/>
      <point x="393" y="-3" type="line"/>
    </contour>
  </outline>
</glyph>
<glyph name="Y" format="1">
  <advance width="683"/>
  <unicode hex="0059"/>
  <outline>
    <contour>
      <point x="229" y="68" type="curve" smooth="yes"/>
      <point x="175" y="64" type="line"/>
      <point x="175" y="0" type="line"/>
      <point x="518" y="0" type="line"/>
      <point x="518" y="64" type="line"/>
      <point x="459" y="68" type="line" smooth="yes"/>
      <point x="420" y="71"/>
      <point x="415" y="71"/>
      <point x="415" y="113" type="curve" smooth="yes"/>
      <point x="415" y="239" type="line"/>
      <point x="461" y="341"/>
      <point x="530" y="463"/>
      <point x="587" y="562" type="curve"/>
      <point x="606" y="600"/>
      <point x="626" y="597"/>
      <point x="664" y="602" type="curve"/>
      <point x="666" y="667" type="line"/>
      <point x="409" y="667" type="line"/>
      <point x="409" y="602" type="line"/>
      <point x="463" y="598" type="line" smooth="yes"/>
      <point x="480" y="597"/>
      <point x="488" y="594"/>
      <point x="494" y="587" type="curve"/>
      <point x="490" y="577"/>
      <point x="485" y="565"/>
      <point x="479" y="552" type="curve" smooth="yes"/>
      <point x="435" y="467" type="line" smooth="yes"/>
      <point x="412" y="423"/>
      <point x="391" y="377"/>
      <point x="371" y="333" type="curve"/>
      <point x="350" y="377"/>
      <point x="329" y="422"/>
      <point x="306" y="466" type="curve" smooth="yes"/>
      <point x="261" y="551" type="line" smooth="yes"/>
      <point x="255" y="562"/>
      <point x="248" y="574"/>
      <point x="245" y="587" type="curve"/>
      <point x="260" y="601"/>
      <point x="297" y="599"/>
      <point x="327" y="602" type="curve"/>
      <point x="330" y="667" type="line"/>
      <point x="20" y="667" type="line"/>
      <point x="17" y="602" type="line"/>
      <point x="37" y="599"/>
      <point x="56" y="598"/>
      <point x="73" y="590" type="curve"/>
      <point x="125" y="525"/>
      <point x="202" y="377"/>
      <point x="252" y="280" type="curve" smooth="yes"/>
      <point x="273" y="239" type="line"/>
      <point x="273" y="113" type="line" smooth="yes"/>
      <point x="273" y="71"/>
      <point x="268" y="71"/>
    </contour>
  </outline>
</glyph>
<glyph name="backslash" format="1">
  <advance width="428"/>
  <unicode hex="005C"/>
  <outline>
    <contour>
      <point x="21" y="688" type="line"/>
      <point x="290" y="-9" type="line"/>
      <point x="403" y="-9" type="line"/>
      <point x="135" y="688" type="line"/>
    </contour>
  </outline>
</glyph>
<glyph name="a" format="1">
  <advance width="552"/>
  <unicode hex="0061"/>
  <outline>
    <contour>
      <point x="332" y="69" type="curve"/>
      <point x="339" y="50"/>
      <point x="358" y="1"/>
      <point x="389" y="-5" type="curve"/>
      <point x="430" y="-5"/>
      <point x="446" y="-7"/>
      <point x="522" y="0" type="curve"/>
      <point x="522" y="60" type="line"/>
      <point x="522" y="60"/>
      <point x="506" y="62"/>
      <point x="506" y="62" type="curve"/>
      <point x="466" y="66"/>
      <point x="450" y="66"/>
      <point x="450" y="107" type="curve" smooth="yes"/>
      <point x="450" y="135"/>
      <point x="450" y="296"/>
      <point x="450" y="327" type="curve" smooth="yes"/>
      <point x="450" y="446"/>
      <point x="381" y="475"/>
      <point x="254" y="475" type="curve" smooth="yes"/>
      <point x="182" y="472"/>
      <point x="111" y="455"/>
      <point x="70" y="431" type="curve"/>
      <point x="70" y="431"/>
      <point x="85" y="292"/>
      <point x="85" y="292" type="curve"/>
      <point x="151" y="292" type="line" smooth="yes"/>
      <point x="152" y="292"/>
      <point x="165" y="394"/>
      <point x="165" y="394" type="curve"/>
      <point x="165" y="394"/>
      <point x="225" y="404"/>
      <point x="250" y="404" type="curve" smooth="yes"/>
      <point x="295" y="404"/>
      <point x="318" y="374"/>
      <point x="318" y="316" type="curve" smooth="yes"/>
      <point x="318" y="299"/>
      <point x="318" y="271"/>
      <point x="318" y="263" type="curve"/>
      <point x="246" y="251" type="line" smooth="yes"/>
      <point x="119" y="230"/>
      <point x="39" y="209"/>
      <point x="39" y="113" type="curve" smooth="yes"/>
      <point x="39" y="37"/>
      <point x="93" y="-13"/>
      <point x="172" y="-13" type="curve" smooth="yes"/>
      <point x="215" y="-13"/>
      <point x="291" y="18"/>
    </contour>
    <contour>
      <point x="276" y="212" type="curve" smooth="yes"/>
      <point x="318" y="222" type="line"/>
      <point x="318" y="214"/>
      <point x="318" y="178"/>
      <point x="318" y="169" type="curve" smooth="yes"/>
      <point x="318" y="113"/>
      <point x="297" y="64"/>
      <point x="234" y="64" type="curve" smooth="yes"/>
      <point x="197" y="64"/>
      <point x="173" y="85"/>
      <point x="173" y="129" type="curve" smooth="yes"/>
      <point x="173" y="186"/>
      <point x="237" y="203"/>
    </contour>
  </outline>
</glyph>
<glyph name="b" format="1">
  <advance width="591"/>
  <unicode hex="0062"/>
  <outline>
    <contour>
      <point x="24" y="671" type="curve"/>
      <point x="24" y="617" type="line"/>
      <point x="92" y="601"/>
      <point x="104" y="581"/>
      <point x="104" y="575" type="curve" smooth="yes"/>
      <point x="104" y="0" type="line"/>
      <point x="104" y="0"/>
      <point x="219" y="0"/>
      <point x="219" y="0" type="curve"/>
      <point x="219" y="0"/>
      <point x="229" y="44"/>
      <point x="229" y="44" type="curve"/>
      <point x="252" y="15"/>
      <point x="314" y="-10"/>
      <point x="358" y="-10" type="curve" smooth="yes"/>
      <point x="475" y="-10"/>
      <point x="561" y="90"/>
      <point x="561" y="237" type="curve" smooth="yes"/>
      <point x="561" y="400"/>
      <point x="484" y="476"/>
      <point x="371" y="476" type="curve" smooth="yes"/>
      <point x="313" y="476"/>
      <point x="269" y="452"/>
      <point x="236" y="409" type="curve"/>
      <point x="236" y="574" type="line"/>
      <point x="236" y="682" type="line"/>
      <point x="166" y="677"/>
      <point x="87" y="673"/>
    </contour>
    <contour>
      <point x="419" y="234" type="curve" smooth="yes"/>
      <point x="419" y="115"/>
      <point x="375" y="69"/>
      <point x="314" y="69" type="curve" smooth="yes"/>
      <point x="286" y="69"/>
      <point x="250" y="81"/>
      <point x="234" y="105" type="curve"/>
      <point x="234" y="105"/>
      <point x="234" y="217"/>
      <point x="234" y="221" type="curve" smooth="yes"/>
      <point x="234" y="283"/>
      <point x="241" y="330"/>
      <point x="255" y="365" type="curve"/>
      <point x="271" y="380"/>
      <point x="294" y="388"/>
      <point x="320" y="388" type="curve" smooth="yes"/>
      <point x="379" y="388"/>
      <point x="419" y="348"/>
    </contour>
  </outline>
</glyph>
<glyph name="c" format="1">
  <advance width="508"/>
  <unicode hex="0063"/>
  <outline>
    <contour>
      <point x="426" y="140" type="curve"/>
      <point x="398" y="99"/>
      <point x="343" y="68"/>
      <point x="294" y="68" type="curve" smooth="yes"/>
      <point x="227" y="68"/>
      <point x="180" y="107"/>
      <point x="180" y="233" type="curve" smooth="yes"/>
      <point x="180" y="357"/>
      <point x="229" y="404"/>
      <point x="281" y="404" type="curve" smooth="yes"/>
      <point x="304" y="404"/>
      <point x="334" y="401"/>
      <point x="351" y="390" type="curve"/>
      <point x="351" y="390"/>
      <point x="371" y="286"/>
      <point x="371" y="286" type="curve"/>
      <point x="371" y="286"/>
      <point x="436" y="286"/>
      <point x="436" y="286" type="curve"/>
      <point x="445" y="443" type="line"/>
      <point x="423" y="452"/>
      <point x="361" y="476"/>
      <point x="283" y="476" type="curve" smooth="yes"/>
      <point x="144" y="476"/>
      <point x="36" y="391"/>
      <point x="36" y="230" type="curve" smooth="yes"/>
      <point x="36" y="84"/>
      <point x="125" y="-13"/>
      <point x="270" y="-13" type="curve" smooth="yes"/>
      <point x="384" y="-13"/>
      <point x="447" y="44"/>
      <point x="474" y="85" type="curve"/>
      <point x="474" y="85"/>
      <point x="426" y="140"/>
    </contour>
  </outline>
</glyph>
<glyph name="d" format="1">
  <advance width="600"/>
  <unicode hex="0064"/>
  <outline>
    <contour>
      <point x="226" y="-13" type="curve" smooth="yes"/>
      <point x="290" y="-13"/>
      <point x="341" y="16"/>
      <point x="371" y="71" type="curve"/>
      <point x="371" y="0" type="line"/>
      <point x="572" y="0" type="line"/>
      <point x="572" y="53" type="line"/>
      <point x="530" y="58"/>
      <point x="489" y="77"/>
      <point x="489" y="81" type="curve" smooth="yes"/>
      <point x="489" y="574" type="line"/>
      <point x="489" y="683" type="line"/>
      <point x="413" y="675"/>
      <point x="340" y="673"/>
      <point x="277" y="671" type="curve"/>
      <point x="277" y="655"/>
      <point x="277" y="618"/>
      <point x="277" y="618" type="curve"/>
      <point x="327" y="604"/>
      <point x="357" y="587"/>
      <point x="357" y="575" type="curve" smooth="yes"/>
      <point x="357" y="430" type="line"/>
      <point x="347" y="442"/>
      <point x="291" y="474"/>
      <point x="244" y="474" type="curve" smooth="yes"/>
      <point x="125" y="474"/>
      <point x="32" y="392"/>
      <point x="32" y="219" type="curve" smooth="yes"/>
      <point x="32" y="63"/>
      <point x="119" y="-13"/>
    </contour>
    <contour>
      <point x="276" y="75" type="curve" smooth="yes"/>
      <point x="213" y="75"/>
      <point x="174" y="121"/>
      <point x="174" y="232" type="curve" smooth="yes"/>
      <point x="174" y="347"/>
      <point x="214" y="392"/>
      <point x="277" y="392" type="curve" smooth="yes"/>
      <point x="309" y="392"/>
      <point x="343" y="379"/>
      <point x="357" y="363" type="curve"/>
      <point x="357" y="363"/>
      <point x="357" y="258"/>
      <point x="357" y="201" type="curve" smooth="yes"/>
      <point x="357" y="126"/>
      <point x="333" y="75"/>
    </contour>
  </outline>
</glyph>
<glyph name="e" format="1">
  <advance width="517"/>
  <unicode hex="0065"/>
  <outline>
    <contour>
      <point x="172" y="228" type="curve"/>
      <point x="475" y="228" type="line"/>
      <point x="477" y="240"/>
      <point x="477" y="252"/>
      <point x="477" y="263" type="curve" smooth="yes"/>
      <point x="477" y="399"/>
      <point x="399" y="476"/>
      <point x="268" y="476" type="curve" smooth="yes"/>
      <point x="130" y="476"/>
      <point x="36" y="381"/>
      <point x="36" y="229" type="curve" smooth="yes"/>
      <point x="36" y="79"/>
      <point x="138" y="-13"/>
      <point x="280" y="-13" type="curve" smooth="yes"/>
      <point x="374" y="-13"/>
      <point x="437" y="25"/>
      <point x="473" y="85" type="curve"/>
      <point x="473" y="85"/>
      <point x="425" y="140"/>
      <point x="425" y="140" type="curve"/>
      <point x="425" y="140"/>
      <point x="382" y="65"/>
      <point x="295" y="65" type="curve" smooth="yes"/>
      <point x="206" y="65"/>
      <point x="172" y="134"/>
      <point x="172" y="220" type="curve" smooth="yes"/>
      <point x="172" y="223"/>
      <point x="172" y="225"/>
    </contour>
    <contour>
      <point x="369" y="294" type="curve"/>
      <point x="174" y="283" type="line"/>
      <point x="179" y="349"/>
      <point x="205" y="415"/>
      <point x="268" y="415" type="curve" smooth="yes"/>
      <point x="333" y="415"/>
      <point x="359" y="361"/>
    </contour>
  </outline>
</glyph>
<glyph name="f" format="1">
  <advance width="429"/>
  <unicode hex="0066"/>
  <outline>
    <contour>
      <point x="39" y="60" type="curve"/>
      <point x="39" y="0" type="line"/>
      <point x="333" y="0" type="line"/>
      <point x="333" y="60" type="line"/>
      <point x="289" y="69"/>
      <point x="252" y="89"/>
      <point x="252" y="89" type="curve"/>
      <point x="252" y="392" type="line"/>
      <point x="372" y="392" type="line"/>
      <point x="372" y="462" type="line"/>
      <point x="252" y="462" type="line"/>
      <point x="248" y="492"/>
      <point x="246" y="517"/>
      <point x="246" y="538" type="curve" smooth="yes"/>
      <point x="246" y="622"/>
      <point x="276" y="641"/>
      <point x="301" y="641" type="curve" smooth="yes"/>
      <point x="330" y="641"/>
      <point x="340" y="605"/>
      <point x="353" y="568" type="curve"/>
      <point x="402" y="568" type="line"/>
      <point x="402" y="716" type="line"/>
      <point x="383" y="719"/>
      <point x="360" y="724"/>
      <point x="336" y="724" type="curve" smooth="yes"/>
      <point x="192" y="724"/>
      <point x="120" y="645"/>
      <point x="120" y="497" type="curve" smooth="yes"/>
      <point x="120" y="465" type="line"/>
      <point x="35" y="458" type="line"/>
      <point x="35" y="392" type="line"/>
      <point x="120" y="392" type="line"/>
      <point x="120" y="98" type="line" smooth="yes"/>
      <point x="120" y="97"/>
      <point x="118" y="86"/>
    </contour>
  </outline>
</glyph>
<glyph name="g" format="1">
  <advance width="551"/>
  <unicode hex="0067"/>
  <outline>
    <contour>
      <point x="252" y="-251" type="curve" smooth="yes"/>
      <point x="413" y="-251"/>
      <point x="507" y="-178"/>
      <point x="507" y="-77" type="curve" smooth="yes"/>
      <point x="507" y="111"/>
      <point x="162" y="47"/>
      <point x="169" y="108" type="curve" smooth="yes"/>
      <point x="171" y="125"/>
      <point x="183" y="142"/>
      <point x="205" y="148" type="curve"/>
      <point x="219" y="146"/>
      <point x="248" y="140"/>
      <point x="266" y="140" type="curve" smooth="yes"/>
      <point x="394" y="140"/>
      <point x="468" y="206"/>
      <point x="468" y="310" type="curve" smooth="yes"/>
      <point x="468" y="341"/>
      <point x="442" y="380"/>
      <point x="425" y="394" type="curve"/>
      <point x="518" y="394" type="line"/>
      <point x="518" y="464" type="line"/>
      <point x="370" y="457" type="line"/>
      <point x="345" y="466"/>
      <point x="301" y="475"/>
      <point x="268" y="475" type="curve" smooth="yes"/>
      <point x="150" y="475"/>
      <point x="67" y="411"/>
      <point x="67" y="310" type="curve" smooth="yes"/>
      <point x="67" y="244"/>
      <point x="104" y="203"/>
      <point x="155" y="182" type="curve"/>
      <point x="117" y="171"/>
      <point x="59" y="136"/>
      <point x="59" y="92" type="curve" smooth="yes"/>
      <point x="59" y="45"/>
      <point x="89" y="22"/>
      <point x="139" y="9" type="curve"/>
      <point x="138" y="9"/>
      <point x="137" y="9"/>
      <point x="136" y="9" type="curve" smooth="yes"/>
      <point x="119" y="9"/>
      <point x="56" y="-34"/>
      <point x="46" y="-42" type="curve"/>
      <point x="37" y="-56"/>
      <point x="30" y="-76"/>
      <point x="30" y="-95" type="curve" smooth="yes"/>
      <point x="30" y="-187"/>
      <point x="100" y="-251"/>
    </contour>
    <contour>
      <point x="394" y="-90" type="curve" smooth="yes"/>
      <point x="394" y="-139"/>
      <point x="355" y="-182"/>
      <point x="270" y="-182" type="curve" smooth="yes"/>
      <point x="182" y="-182"/>
      <point x="143" y="-135"/>
      <point x="143" y="-81" type="curve" smooth="yes"/>
      <point x="143" y="-53"/>
      <point x="188" y="-9"/>
      <point x="198" y="-10" type="curve" smooth="yes"/>
      <point x="373" y="-24"/>
      <point x="394" y="-53"/>
    </contour>
    <contour>
      <point x="335" y="311" type="curve" smooth="yes"/>
      <point x="335" y="240"/>
      <point x="313" y="204"/>
      <point x="268" y="204" type="curve" smooth="yes"/>
      <point x="223" y="204"/>
      <point x="197" y="239"/>
      <point x="197" y="310" type="curve" smooth="yes"/>
      <point x="197" y="381"/>
      <point x="220" y="413"/>
      <point x="267" y="413" type="curve" smooth="yes"/>
      <point x="309" y="413"/>
      <point x="335" y="383"/>
    </contour>
  </outline>
</glyph>
<glyph name="h" format="1">
  <advance width="651"/>
  <unicode hex="0068"/>
  <outline>
    <contour>
      <point x="35" y="0" type="line"/>
      <point x="316" y="0" type="line"/>
      <point x="316" y="53" type="line"/>
      <point x="249" y="64"/>
      <point x="248" y="81"/>
      <point x="248" y="81" type="curve"/>
      <point x="248" y="277" type="line" smooth="yes"/>
      <point x="248" y="345"/>
      <point x="286" y="384"/>
      <point x="343" y="384" type="curve" smooth="yes"/>
      <point x="387" y="384"/>
      <point x="424" y="358"/>
      <point x="424" y="288" type="curve" smooth="yes"/>
      <point x="424" y="79" type="line"/>
      <point x="424" y="79"/>
      <point x="424" y="64"/>
      <point x="351" y="53" type="curve"/>
      <point x="351" y="0" type="line"/>
      <point x="624" y="0" type="line"/>
      <point x="624" y="53" type="line"/>
      <point x="556" y="63"/>
      <point x="556" y="76"/>
      <point x="556" y="76" type="curve"/>
      <point x="556" y="290" type="line" smooth="yes"/>
      <point x="556" y="430"/>
      <point x="497" y="476"/>
      <point x="390" y="476" type="curve" smooth="yes"/>
      <point x="327" y="476"/>
      <point x="278" y="445"/>
      <point x="248" y="404" type="curve"/>
      <point x="248" y="682" type="line"/>
      <point x="182" y="677"/>
      <point x="99" y="673"/>
      <point x="36" y="671" type="curve"/>
      <point x="36" y="618" type="line"/>
      <point x="72" y="606" type="line" smooth="yes"/>
      <point x="111" y="593"/>
      <point x="116" y="578"/>
      <point x="116" y="577" type="curve" smooth="yes"/>
      <point x="116" y="81" type="line"/>
      <point x="116" y="81"/>
      <point x="116" y="69"/>
      <point x="35" y="53" type="curve"/>
    </contour>
  </outline>
</glyph>
<glyph name="i" format="1">
  <advance width="362"/>
  <unicode hex="0069"/>
  <outline>
    <contour>
      <point x="254" y="630" type="curve" smooth="yes"/>
      <point x="254" y="669"/>
      <point x="227" y="699"/>
      <point x="186" y="699" type="curve" smooth="yes"/>
      <point x="145" y="699"/>
      <point x="119" y="669"/>
      <point x="119" y="630" type="curve" smooth="yes"/>
      <point x="119" y="591"/>
      <point x="147" y="561"/>
      <point x="188" y="561" type="curve" smooth="yes"/>
      <point x="229" y="561"/>
      <point x="254" y="591"/>
    </contour>
    <contour>
      <point x="39" y="53" type="curve"/>
      <point x="39" y="0" type="line"/>
      <point x="330" y="0" type="line"/>
      <point x="330" y="55" type="line"/>
      <point x="285" y="61"/>
      <point x="258" y="75"/>
      <point x="253" y="81" type="curve"/>
      <point x="253" y="382" type="line"/>
      <point x="255" y="471" type="line"/>
      <point x="200" y="466"/>
      <point x="50" y="460"/>
      <point x="41" y="460" type="curve"/>
      <point x="41" y="407" type="line"/>
      <point x="114" y="388"/>
      <point x="121" y="364"/>
      <point x="121" y="363" type="curve" smooth="yes"/>
      <point x="121" y="82" type="line"/>
      <point x="121" y="82"/>
      <point x="119" y="69"/>
    </contour>
  </outline>
</glyph>
<glyph name="j" format="1">
  <advance width="355"/>
  <unicode hex="006A"/>
  <outline>
    <contour>
      <point x="292" y="630" type="curve" smooth="yes"/>
      <point x="292" y="669"/>
      <point x="265" y="699"/>
      <point x="224" y="699" type="curve" smooth="yes"/>
      <point x="183" y="699"/>
      <point x="156" y="669"/>
      <point x="156" y="630" type="curve" smooth="yes"/>
      <point x="156" y="591"/>
      <point x="183" y="561"/>
      <point x="224" y="561" type="curve" smooth="yes"/>
      <point x="265" y="561"/>
      <point x="292" y="591"/>
    </contour>
    <contour>
      <point x="86" y="-244" type="curve" smooth="yes"/>
      <point x="247" y="-244"/>
      <point x="294" y="-143"/>
      <point x="294" y="-38" type="curve" smooth="yes"/>
      <point x="294" y="367" type="line"/>
      <point x="299" y="471" type="line"/>
      <point x="231" y="463"/>
      <point x="130" y="462"/>
      <point x="82" y="460" type="curve"/>
      <point x="82" y="407" type="line"/>
      <point x="162" y="379"/>
      <point x="162" y="374"/>
      <point x="162" y="309" type="curve" smooth="yes"/>
      <point x="162" y="-14" type="line" smooth="yes"/>
      <point x="162" y="-119"/>
      <point x="135" y="-150"/>
      <point x="65" y="-150" type="curve" smooth="yes"/>
      <point x="48" y="-150"/>
      <point x="29" y="-148"/>
      <point x="7" y="-145" type="curve"/>
      <point x="29" y="-239" type="line"/>
      <point x="43" y="-240"/>
      <point x="63" y="-244"/>
    </contour>
  </outline>
</glyph>
<glyph name="k" format="1">
  <advance width="641"/>
  <unicode hex="006B"/>
  <outline>
    <contour>
      <point x="35" y="0" type="line"/>
      <point x="316" y="0" type="line"/>
      <point x="316" y="55" type="line"/>
      <point x="272" y="64"/>
      <point x="248" y="84"/>
      <point x="248" y="84" type="curve"/>
      <point x="248" y="192" type="line"/>
      <point x="289" y="225" type="line"/>
      <point x="407" y="79" type="line"/>
      <point x="395" y="63"/>
      <point x="360" y="55"/>
      <point x="360" y="55" type="curve"/>
      <point x="360" y="0" type="line"/>
      <point x="613" y="0" type="line"/>
      <point x="613" y="55" type="line"/>
      <point x="584" y="60"/>
      <point x="550" y="73"/>
      <point x="543" y="81" type="curve"/>
      <point x="383" y="285" type="line"/>
      <point x="507" y="394" type="line"/>
      <point x="525" y="412"/>
      <point x="538" y="417"/>
      <point x="555" y="417" type="curve" smooth="yes"/>
      <point x="588" y="417" type="line"/>
      <point x="588" y="466" type="line"/>
      <point x="334" y="466" type="line"/>
      <point x="334" y="417" type="line"/>
      <point x="384" y="417" type="line" smooth="yes"/>
      <point x="391" y="417"/>
      <point x="400" y="413"/>
      <point x="400" y="403" type="curve" smooth="yes"/>
      <point x="400" y="395"/>
      <point x="396" y="383"/>
      <point x="351" y="344" type="curve"/>
      <point x="248" y="265" type="line"/>
      <point x="248" y="685" type="line"/>
      <point x="181" y="677"/>
      <point x="99" y="673"/>
      <point x="36" y="671" type="curve"/>
      <point x="36" y="618" type="line"/>
      <point x="72" y="606" type="line" smooth="yes"/>
      <point x="111" y="593"/>
      <point x="116" y="578"/>
      <point x="116" y="577" type="curve" smooth="yes"/>
      <point x="116" y="93" type="line" smooth="yes"/>
      <point x="116" y="92"/>
      <point x="114" y="81"/>
      <point x="35" y="55" type="curve"/>
    </contour>
  </outline>
</glyph>
<glyph name="l" format="1">
  <advance width="360"/>
  <unicode hex="006C"/>
  <outline>
    <contour>
      <point x="35" y="53" type="curve"/>
      <point x="35" y="0" type="line"/>
      <point x="332" y="0" type="line"/>
      <point x="332" y="53" type="line"/>
      <point x="287" y="59"/>
      <point x="254" y="75"/>
      <point x="249" y="81" type="curve"/>
      <point x="249" y="682" type="line"/>
      <point x="182" y="677"/>
      <point x="100" y="673"/>
      <point x="37" y="671" type="curve"/>
      <point x="37" y="618" type="line"/>
      <point x="73" y="606" type="line" smooth="yes"/>
      <point x="112" y="593"/>
      <point x="117" y="578"/>
      <point x="117" y="577" type="curve" smooth="yes"/>
      <point x="117" y="81" type="line"/>
      <point x="117" y="81"/>
      <point x="115" y="69"/>
    </contour>
  </outline>
</glyph>
<glyph name="m" format="1">
  <advance width="924"/>
  <unicode hex="006D"/>
  <outline>
    <contour>
      <point x="37" y="55" type="curve"/>
      <point x="37" y="0" type="line"/>
      <point x="310" y="0" type="line"/>
      <point x="310" y="55" type="line"/>
      <point x="266" y="64"/>
      <point x="252" y="84"/>
      <point x="252" y="84" type="curve"/>
      <point x="252" y="301" type="line"/>
      <point x="260" y="350"/>
      <point x="295" y="384"/>
      <point x="339" y="384" type="curve" smooth="yes"/>
      <point x="378" y="384"/>
      <point x="407" y="358"/>
      <point x="407" y="288" type="curve" smooth="yes"/>
      <point x="407" y="93" type="line" smooth="yes"/>
      <point x="407" y="92"/>
      <point x="387" y="68"/>
      <point x="349" y="55" type="curve"/>
      <point x="349" y="0" type="line"/>
      <point x="595" y="0" type="line"/>
      <point x="595" y="55" type="line"/>
      <point x="551" y="64"/>
      <point x="539" y="84"/>
      <point x="539" y="84" type="curve"/>
      <point x="539" y="276" type="line" smooth="yes"/>
      <point x="539" y="343"/>
      <point x="583" y="384"/>
      <point x="631" y="384" type="curve" smooth="yes"/>
      <point x="670" y="384"/>
      <point x="694" y="358"/>
      <point x="694" y="288" type="curve" smooth="yes"/>
      <point x="694" y="88" type="line"/>
      <point x="691" y="82"/>
      <point x="678" y="71"/>
      <point x="628" y="55" type="curve"/>
      <point x="628" y="0" type="line"/>
      <point x="894" y="0" type="line"/>
      <point x="894" y="55" type="line"/>
      <point x="850" y="64"/>
      <point x="826" y="84"/>
      <point x="826" y="84" type="curve"/>
      <point x="826" y="290" type="line" smooth="yes"/>
      <point x="826" y="431"/>
      <point x="774" y="476"/>
      <point x="670" y="476" type="curve" smooth="yes"/>
      <point x="606" y="476"/>
      <point x="559" y="443"/>
      <point x="525" y="395" type="curve"/>
      <point x="506" y="452"/>
      <point x="456" y="476"/>
      <point x="391" y="476" type="curve" smooth="yes"/>
      <point x="330" y="476"/>
      <point x="275" y="450"/>
      <point x="237" y="382" type="curve"/>
      <point x="237" y="382"/>
      <point x="237" y="382"/>
      <point x="236" y="382" type="curve"/>
      <point x="238" y="471" type="line"/>
      <point x="182" y="463"/>
      <point x="122" y="454"/>
      <point x="44" y="451" type="curve"/>
      <point x="44" y="398" type="line"/>
      <point x="104" y="386"/>
      <point x="120" y="348"/>
      <point x="120" y="348" type="curve"/>
      <point x="120" y="93" type="line" smooth="yes"/>
      <point x="120" y="92"/>
      <point x="116" y="81"/>
    </contour>
  </outline>
</glyph>
<glyph name="n" format="1">
  <advance width="661"/>
  <unicode hex="006E"/>
  <outline>
    <contour>
      <point x="38" y="53" type="curve"/>
      <point x="38" y="0" type="line"/>
      <point x="318" y="0" type="line"/>
      <point x="318" y="56" type="line"/>
      <point x="280" y="65"/>
      <point x="250" y="80"/>
      <point x="250" y="80" type="curve"/>
      <point x="250" y="301" type="line"/>
      <point x="259" y="353"/>
      <point x="298" y="384"/>
      <point x="346" y="384" type="curve" smooth="yes"/>
      <point x="390" y="384"/>
      <point x="425" y="358"/>
      <point x="425" y="288" type="curve" smooth="yes"/>
      <point x="425" y="83" type="line" smooth="yes"/>
      <point x="425" y="82"/>
      <point x="420" y="69"/>
      <point x="354" y="55" type="curve"/>
      <point x="354" y="0" type="line"/>
      <point x="632" y="0" type="line"/>
      <point x="632" y="56" type="line"/>
      <point x="596" y="63"/>
      <point x="562" y="74"/>
      <point x="558" y="79" type="curve"/>
      <point x="558" y="80"/>
      <point x="557" y="81"/>
      <point x="557" y="81" type="curve"/>
      <point x="557" y="292" type="line" smooth="yes"/>
      <point x="557" y="419"/>
      <point x="502" y="476"/>
      <point x="402" y="476" type="curve" smooth="yes"/>
      <point x="339" y="476"/>
      <point x="275" y="453"/>
      <point x="235" y="382" type="curve"/>
      <point x="235" y="382"/>
      <point x="235" y="382"/>
      <point x="234" y="382" type="curve"/>
      <point x="236" y="471" type="line"/>
      <point x="192" y="465"/>
      <point x="57" y="460"/>
      <point x="38" y="460" type="curve"/>
      <point x="38" y="407" type="line"/>
      <point x="103" y="392"/>
      <point x="118" y="364"/>
      <point x="118" y="363" type="curve" smooth="yes"/>
      <point x="118" y="81" type="line" smooth="yes"/>
      <point x="118" y="80"/>
      <point x="110" y="68"/>
    </contour>
  </outline>
</glyph>
<glyph name="o" format="1">
  <advance width="553"/>
  <unicode hex="006F"/>
  <outline>
    <contour>
      <point x="518" y="236" type="curve" smooth="yes"/>
      <point x="518" y="379"/>
      <point x="431" y="476"/>
      <point x="281" y="476" type="curve" smooth="yes"/>
      <point x="125" y="476"/>
      <point x="36" y="374"/>
      <point x="36" y="226" type="curve" smooth="yes"/>
      <point x="36" y="84"/>
      <point x="124" y="-13"/>
      <point x="272" y="-13" type="curve" smooth="yes"/>
      <point x="426" y="-13"/>
      <point x="518" y="86"/>
    </contour>
    <contour>
      <point x="376" y="232" type="curve" smooth="yes"/>
      <point x="376" y="114"/>
      <point x="343" y="60"/>
      <point x="276" y="60" type="curve" smooth="yes"/>
      <point x="213" y="60"/>
      <point x="178" y="113"/>
      <point x="178" y="232" type="curve" smooth="yes"/>
      <point x="178" y="356"/>
      <point x="215" y="403"/>
      <point x="277" y="403" type="curve" smooth="yes"/>
      <point x="340" y="403"/>
      <point x="376" y="352"/>
    </contour>
  </outline>
</glyph>
<glyph name="p" format="1">
  <advance width="606"/>
  <unicode hex="0070"/>
  <outline>
    <contour>
      <point x="38" y="451" type="curve"/>
      <point x="38" y="396" type="line"/>
      <point x="38" y="396"/>
      <point x="89" y="386"/>
      <point x="110" y="356" type="curve"/>
      <point x="110" y="-122" type="line" smooth="yes"/>
      <point x="110" y="-141"/>
      <point x="96" y="-158"/>
      <point x="24" y="-176" type="curve"/>
      <point x="24" y="-236" type="line"/>
      <point x="340" y="-236" type="line"/>
      <point x="340" y="-176" type="line"/>
      <point x="246" y="-148"/>
      <point x="242" y="-143"/>
      <point x="242" y="-122" type="curve" smooth="yes"/>
      <point x="242" y="28" type="line"/>
      <point x="243" y="28"/>
      <point x="243" y="28"/>
      <point x="243" y="28" type="curve"/>
      <point x="265" y="3"/>
      <point x="306" y="-13"/>
      <point x="356" y="-13" type="curve" smooth="yes"/>
      <point x="468" y="-13"/>
      <point x="568" y="73"/>
      <point x="568" y="235" type="curve" smooth="yes"/>
      <point x="568" y="396"/>
      <point x="496" y="476"/>
      <point x="377" y="476" type="curve" smooth="yes"/>
      <point x="310" y="476"/>
      <point x="259" y="445"/>
      <point x="229" y="390" type="curve"/>
      <point x="229" y="390"/>
      <point x="229" y="390"/>
      <point x="228" y="390" type="curve"/>
      <point x="230" y="471" type="line"/>
      <point x="172" y="463"/>
      <point x="96" y="456"/>
    </contour>
    <contour>
      <point x="321" y="69" type="curve" smooth="yes"/>
      <point x="244" y="69"/>
      <point x="240" y="132"/>
      <point x="240" y="211" type="curve" smooth="yes"/>
      <point x="240" y="269"/>
      <point x="246" y="316"/>
      <point x="255" y="354" type="curve"/>
      <point x="272" y="375"/>
      <point x="296" y="387"/>
      <point x="325" y="387" type="curve" smooth="yes"/>
      <point x="389" y="387"/>
      <point x="426" y="343"/>
      <point x="426" y="230" type="curve" smooth="yes"/>
      <point x="426" y="118"/>
      <point x="381" y="69"/>
    </contour>
  </outline>
</glyph>
<glyph name="q" format="1">
  <advance width="602"/>
  <unicode hex="0071"/>
  <outline>
    <contour>
      <point x="279" y="73" type="curve" smooth="yes"/>
      <point x="224" y="73"/>
      <point x="180" y="118"/>
      <point x="180" y="231" type="curve" smooth="yes"/>
      <point x="180" y="346"/>
      <point x="221" y="389"/>
      <point x="285" y="389" type="curve" smooth="yes"/>
      <point x="363" y="389"/>
      <point x="364" y="315"/>
      <point x="364" y="225" type="curve" smooth="yes"/>
      <point x="364" y="168"/>
      <point x="356" y="125"/>
      <point x="342" y="93" type="curve"/>
      <point x="327" y="80"/>
      <point x="303" y="73"/>
    </contour>
    <contour>
      <point x="272" y="-176" type="curve"/>
      <point x="272" y="-236" type="line"/>
      <point x="588" y="-236" type="line"/>
      <point x="588" y="-176" type="line"/>
      <point x="503" y="-155"/>
      <point x="495" y="-143"/>
      <point x="495" y="-122" type="curve" smooth="yes"/>
      <point x="495" y="299" type="line" smooth="yes"/>
      <point x="495" y="387"/>
      <point x="504" y="441"/>
      <point x="504" y="442" type="curve" smooth="yes"/>
      <point x="504" y="451" type="line"/>
      <point x="397" y="461" type="line"/>
      <point x="372" y="394" type="line"/>
      <point x="351" y="455"/>
      <point x="276" y="470"/>
      <point x="238" y="470" type="curve" smooth="yes"/>
      <point x="123" y="470"/>
      <point x="38" y="378"/>
      <point x="38" y="218" type="curve" smooth="yes"/>
      <point x="38" y="68"/>
      <point x="120" y="-13"/>
      <point x="230" y="-13" type="curve" smooth="yes"/>
      <point x="286" y="-13"/>
      <point x="333" y="10"/>
      <point x="362" y="48" type="curve"/>
      <point x="362" y="48"/>
      <point x="362" y="48"/>
      <point x="363" y="48" type="curve"/>
      <point x="363" y="-122" type="line" smooth="yes"/>
      <point x="363" y="-141"/>
      <point x="354" y="-155"/>
    </contour>
  </outline>
</glyph>
<glyph name="r" format="1">
  <advance width="473"/>
  <unicode hex="0072"/>
  <outline>
    <contour>
      <point x="79" y="64" type="curve" smooth="yes"/>
      <point x="36" y="60" type="line"/>
      <point x="36" y="0" type="line"/>
      <point x="360" y="0" type="line"/>
      <point x="360" y="60" type="line"/>
      <point x="297" y="64" type="line" smooth="yes"/>
      <point x="252" y="67"/>
      <point x="252" y="76"/>
      <point x="252" y="117" type="curve" smooth="yes"/>
      <point x="252" y="272" type="line"/>
      <point x="262" y="328"/>
      <point x="300" y="368"/>
      <point x="338" y="368" type="curve" smooth="yes"/>
      <point x="357" y="368"/>
      <point x="363" y="346"/>
      <point x="363" y="321" type="curve"/>
      <point x="436" y="321" type="line"/>
      <point x="446" y="467" type="line"/>
      <point x="423" y="474"/>
      <point x="403" y="475"/>
      <point x="380" y="475" type="curve" smooth="yes"/>
      <point x="319" y="472"/>
      <point x="276" y="442"/>
      <point x="236" y="359" type="curve"/>
      <point x="238" y="471" type="line"/>
      <point x="182" y="463"/>
      <point x="105" y="455"/>
      <point x="45" y="451" type="curve"/>
      <point x="45" y="410" type="line"/>
      <point x="77" y="396" type="line"/>
      <point x="104" y="387"/>
      <point x="113" y="373"/>
      <point x="120" y="330" type="curve"/>
      <point x="120" y="117" type="line" smooth="yes"/>
      <point x="120" y="79"/>
      <point x="122" y="68"/>
    </contour>
  </outline>
</glyph>
<glyph name="s" format="1">
  <advance width="454"/>
  <unicode hex="0073"/>
  <outline>
    <contour>
      <point x="414" y="142" type="curve" smooth="yes"/>
      <point x="414" y="242"/>
      <point x="325" y="264"/>
      <point x="226" y="304" type="curve" smooth="yes"/>
      <point x="194" y="317"/>
      <point x="175" y="336"/>
      <point x="175" y="364" type="curve" smooth="yes"/>
      <point x="175" y="392"/>
      <point x="203" y="408"/>
      <point x="235" y="408" type="curve" smooth="yes"/>
      <point x="269" y="408"/>
      <point x="308" y="389"/>
      <point x="313" y="318" type="curve"/>
      <point x="313" y="318"/>
      <point x="378" y="318"/>
      <point x="378" y="318" type="curve"/>
      <point x="394" y="444" type="line"/>
      <point x="365" y="457"/>
      <point x="307" y="476"/>
      <point x="244" y="476" type="curve" smooth="yes"/>
      <point x="135" y="476"/>
      <point x="44" y="421"/>
      <point x="44" y="333" type="curve" smooth="yes"/>
      <point x="44" y="250"/>
      <point x="112" y="213"/>
      <point x="198" y="182" type="curve" smooth="yes"/>
      <point x="262" y="158"/>
      <point x="282" y="140"/>
      <point x="282" y="108" type="curve" smooth="yes"/>
      <point x="282" y="76"/>
      <point x="249" y="56"/>
      <point x="209" y="56" type="curve" smooth="yes"/>
      <point x="162" y="56"/>
      <point x="124" y="87"/>
      <point x="124" y="145" type="curve"/>
      <point x="124" y="145"/>
      <point x="59" y="145"/>
      <point x="59" y="145" type="curve"/>
      <point x="43" y="19" type="line"/>
      <point x="75" y="4"/>
      <point x="144" y="-13"/>
      <point x="210" y="-13" type="curve" smooth="yes"/>
      <point x="321" y="-13"/>
      <point x="414" y="42"/>
    </contour>
  </outline>
</glyph>
<glyph name="t" format="1">
  <advance width="437"/>
  <unicode hex="0074"/>
  <outline>
    <contour>
      <point x="22" y="392" type="line"/>
      <point x="106" y="392" type="line"/>
      <point x="106" y="141" type="line" smooth="yes"/>
      <point x="106" y="25"/>
      <point x="182" y="-14"/>
      <point x="259" y="-14" type="curve" smooth="yes"/>
      <point x="328" y="-14"/>
      <point x="380" y="21"/>
      <point x="411" y="116" type="curve"/>
      <point x="411" y="116"/>
      <point x="362" y="141"/>
      <point x="362" y="141" type="curve"/>
      <point x="337" y="82"/>
      <point x="316" y="69"/>
      <point x="290" y="69" type="curve" smooth="yes"/>
      <point x="265" y="69"/>
      <point x="238" y="85"/>
      <point x="238" y="144" type="curve" smooth="yes"/>
      <point x="238" y="392" type="line"/>
      <point x="374" y="392" type="line"/>
      <point x="374" y="462" type="line"/>
      <point x="238" y="462" type="line"/>
      <point x="238" y="592" type="line"/>
      <point x="180" y="592" type="line"/>
      <point x="159" y="520"/>
      <point x="141" y="455"/>
      <point x="22" y="455" type="curve"/>
    </contour>
  </outline>
</glyph>
<glyph name="w" format="1">
  <advance width="862"/>
  <unicode hex="0077"/>
  <outline>
    <contour>
      <point x="806" y="399" type="curve"/>
      <point x="838" y="401" type="line"/>
      <point x="838" y="462" type="line"/>
      <point x="615" y="462" type="line"/>
      <point x="615" y="401" type="line"/>
      <point x="655" y="399" type="line" smooth="yes"/>
      <point x="672" y="398"/>
      <point x="680" y="396"/>
      <point x="685" y="388" type="curve"/>
      <point x="683" y="377"/>
      <point x="679" y="367"/>
      <point x="675" y="354" type="curve" smooth="yes"/>
      <point x="619" y="134" type="line"/>
      <point x="619" y="134"/>
      <point x="619" y="134"/>
      <point x="618" y="134" type="curve"/>
      <point x="515" y="464" type="line"/>
      <point x="515" y="464"/>
      <point x="380" y="464"/>
      <point x="380" y="464" type="curve"/>
      <point x="380" y="464"/>
      <point x="277" y="134"/>
      <point x="277" y="134" type="curve"/>
      <point x="226" y="349" type="line" smooth="yes"/>
      <point x="223" y="361"/>
      <point x="219" y="371"/>
      <point x="218" y="381" type="curve"/>
      <point x="219" y="389"/>
      <point x="224" y="397"/>
      <point x="233" y="398" type="curve" smooth="yes"/>
      <point x="268" y="402" type="line"/>
      <point x="268" y="464" type="line"/>
      <point x="22" y="464" type="line"/>
      <point x="22" y="399" type="line"/>
      <point x="52" y="398" type="line" smooth="yes"/>
      <point x="65" y="397"/>
      <point x="74" y="394"/>
      <point x="81" y="382" type="curve"/>
      <point x="196" y="-3" type="line"/>
      <point x="303" y="-3" type="line"/>
      <point x="431" y="373" type="line"/>
      <point x="432" y="373"/>
      <point x="432" y="373"/>
      <point x="432" y="373" type="curve"/>
      <point x="553" y="-3" type="line"/>
      <point x="658" y="-3" type="line"/>
      <point x="765" y="349" type="line" smooth="yes"/>
      <point x="775" y="379"/>
      <point x="777" y="399"/>
    </contour>
  </outline>
</glyph>
<glyph name="y" format="1">
  <advance width="639"/>
  <unicode hex="0079"/>
  <outline>
    <contour>
      <point x="418" y="84" type="curve" smooth="yes"/>
      <point x="543" y="355" type="line"/>
      <point x="555" y="377"/>
      <point x="556" y="399"/>
      <point x="583" y="400" type="curve" smooth="yes"/>
      <point x="616" y="402" type="line"/>
      <point x="616" y="462" type="line"/>
      <point x="373" y="462" type="line"/>
      <point x="373" y="401" type="line"/>
      <point x="411" y="399" type="line" smooth="yes"/>
      <point x="426" y="398"/>
      <point x="436" y="398"/>
      <point x="442" y="389" type="curve"/>
      <point x="440" y="380"/>
      <point x="436" y="370"/>
      <point x="432" y="358" type="curve"/>
      <point x="334" y="117" type="line"/>
      <point x="250" y="349" type="line" smooth="yes"/>
      <point x="246" y="361"/>
      <point x="240" y="374"/>
      <point x="240" y="387" type="curve" smooth="yes"/>
      <point x="240" y="400"/>
      <point x="263" y="400"/>
      <point x="299" y="400" type="curve"/>
      <point x="299" y="465" type="line"/>
      <point x="20" y="465" type="line"/>
      <point x="20" y="400" type="line"/>
      <point x="66" y="398" type="line"/>
      <point x="97" y="395"/>
      <point x="98" y="380"/>
      <point x="113" y="345" type="curve" smooth="yes"/>
      <point x="247" y="6" type="line"/>
      <point x="253" y="-10" type="line"/>
      <point x="253" y="-10"/>
      <point x="189" y="-153"/>
      <point x="189" y="-153" type="curve"/>
      <point x="112" y="-168" type="line"/>
      <point x="112" y="-236" type="line"/>
      <point x="398" y="-236" type="line"/>
      <point x="398" y="-168" type="line"/>
      <point x="315" y="-153" type="line"/>
      <point x="315" y="-153"/>
      <point x="377" y="-13"/>
    </contour>
  </outline>
</glyph>
<glyph name="z" format="1">
  <advance width="510"/>
  <unicode hex="007A"/>
  <outline>
    <contour>
      <point x="40" y="74" type="curve"/>
      <point x="45" y="0" type="line"/>
      <point x="466" y="0" type="line"/>
      <point x="466" y="179" type="line"/>
      <point x="389" y="179" type="line"/>
      <point x="384" y="144" type="line"/>
      <point x="382" y="90"/>
      <point x="370" y="87"/>
      <point x="326" y="87" type="curve" smooth="yes"/>
      <point x="179" y="87" type="line"/>
      <point x="265" y="186"/>
      <point x="373" y="300"/>
      <point x="458" y="389" type="curve"/>
      <point x="452" y="462" type="line"/>
      <point x="61" y="462" type="line"/>
      <point x="61" y="289" type="line"/>
      <point x="138" y="288" type="line"/>
      <point x="140" y="330"/>
      <point x="143" y="363"/>
      <point x="166" y="377" type="curve"/>
      <point x="308" y="377" type="line"/>
      <point x="227" y="291"/>
      <point x="120" y="172"/>
    </contour>
  </outline>
</glyph>
<glyph name="braceleft" format="1">
  <advance width="341"/>
  <unicode hex="007B"/>
  <outline>
    <contour>
      <point x="24" y="710" type="curve"/>
      <point x="24" y="657" type="line"/>
      <point x="84" y="653"/>
      <point x="113" y="626"/>
      <point x="113" y="561" type="curve" smooth="yes"/>
      <point x="113" y="503"/>
      <point x="99" y="429"/>
      <point x="99" y="372" type="curve"/>
      <point x="103" y="316"/>
      <point x="134" y="276"/>
      <point x="223" y="268" type="curve"/>
      <point x="223" y="261" type="line"/>
      <point x="134" y="252"/>
      <point x="99" y="210"/>
      <point x="99" y="155" type="curve" smooth="yes"/>
      <point x="99" y="94"/>
      <point x="113" y="27"/>
      <point x="113" y="-32" type="curve" smooth="yes"/>
      <point x="113" y="-96"/>
      <point x="71" y="-125"/>
      <point x="24" y="-128" type="curve"/>
      <point x="24" y="-181" type="line"/>
      <point x="24" y="-181"/>
      <point x="48" y="-181"/>
      <point x="60" y="-181" type="curve" smooth="yes"/>
      <point x="174" y="-181"/>
      <point x="243" y="-147"/>
      <point x="243" y="-30" type="curve" smooth="yes"/>
      <point x="243" y="37"/>
      <point x="234" y="124"/>
      <point x="234" y="176" type="curve" smooth="yes"/>
      <point x="234" y="220"/>
      <point x="259" y="235"/>
      <point x="313" y="240" type="curve"/>
      <point x="313" y="240"/>
      <point x="313" y="296"/>
      <point x="313" y="296" type="curve"/>
      <point x="253" y="307"/>
      <point x="227" y="327"/>
      <point x="227" y="376" type="curve" smooth="yes"/>
      <point x="227" y="423"/>
      <point x="243" y="500"/>
      <point x="243" y="559" type="curve" smooth="yes"/>
      <point x="243" y="671"/>
      <point x="183" y="710"/>
      <point x="58" y="710" type="curve" smooth="yes"/>
      <point x="47" y="710"/>
      <point x="24" y="710"/>
    </contour>
  </outline>
</glyph>
<glyph name="bar" format="1">
  <advance width="219"/>
  <unicode hex="007C"/>
  <outline>
    <contour>
      <point x="54" y="728" type="line"/>
      <point x="54" y="-254" type="line"/>
      <point x="165" y="-254" type="line"/>
      <point x="165" y="728" type="line"/>
    </contour>
  </outline>
</glyph>
<glyph name="braceright" format="1">
  <advance width="341"/>
  <unicode hex="007D"/>
  <outline>
    <contour>
      <point x="24" y="710" type="curve"/>
      <point x="24" y="657" type="line"/>
      <point x="84" y="653"/>
      <point x="113" y="626"/>
      <point x="113" y="561" type="curve" smooth="yes"/>
      <point x="113" y="503"/>
      <point x="99" y="429"/>
      <point x="99" y="372" type="curve"/>
      <point x="103" y="316"/>
      <point x="134" y="276"/>
      <point x="223" y="268" type="curve"/>
      <point x="223" y="261" type="line"/>
      <point x="134" y="252"/>
      <point x="99" y="210"/>
      <point x="99" y="155" type="curve" smooth="yes"/>
      <point x="99" y="94"/>
      <point x="113" y="27"/>
      <point x="113" y="-32" type="curve" smooth="yes"/>
      <point x="113" y="-96"/>
      <point x="71" y="-125"/>
      <point x="24" y="-128" type="curve"/>
      <point x="24" y="-181" type="line"/>
      <point x="24" y="-181"/>
      <point x="48" y="-181"/>
      <point x="60" y="-181" type="curve" smooth="yes"/>
      <point x="174" y="-181"/>
      <point x="243" y="-147"/>
      <point x="243" y="-30" type="curve" smooth="yes"/>
      <point x="243" y="37"/>
      <point x="234" y="124"/>
      <point x="234" y="176" type="curve" smooth="yes"/>
      <point x="234" y="220"/>
      <point x="259" y="235"/>
      <point x="313" y="240" type="curve"/>
      <point x="313" y="240"/>
      <point x="313" y="296"/>
      <point x="313" y="296" type="curve"/>
      <point x="253" y="307"/>
      <point x="227" y="327"/>
      <point x="227" y="376" type="curve" smooth="yes"/>
      <point x="227" y="423"/>
      <point x="243" y="500"/>
      <point x="243" y="559" type="curve" smooth="yes"/>
      <point x="243" y="671"/>
      <point x="183" y="710"/>
      <point x="58" y="710" type="curve" smooth="yes"/>
      <point x="47" y="710"/>
      <point x="24" y="710"/>
    </contour>
  </outline>
</glyph>
<glyph name="asciitilde" format="1">
  <advance width="508"/>
  <unicode hex="007E"/>
  <outline>
    <contour>
      <point x="471" y="275" type="curve"/>
      <point x="430" y="319" type="line"/>
      <point x="413" y="287"/>
      <point x="391" y="251"/>
      <point x="358" y="251" type="curve" smooth="yes"/>
      <point x="312" y="251"/>
      <point x="215" y="313"/>
      <point x="156" y="313" type="curve" smooth="yes"/>
      <point x="95" y="313"/>
      <point x="59" y="265"/>
      <point x="39" y="203" type="curve"/>
      <point x="77" y="158" type="line"/>
      <point x="96" y="193"/>
      <point x="120" y="225"/>
      <point x="152" y="225" type="curve" smooth="yes"/>
      <point x="196" y="225"/>
      <point x="296" y="164"/>
      <point x="355" y="164" type="curve" smooth="yes"/>
      <point x="416" y="164"/>
      <point x="455" y="212"/>
    </contour>
  </outline>
</glyph>
<glyph name="exclamdown" format="1">
  <advance width="234"/>
  <unicode hex="00A1"/>
  <outline>
    <contour>
      <point x="45" y="-181" type="curve"/>
      <point x="70" y="-202"/>
      <point x="102" y="-213"/>
      <point x="155" y="-213" type="curve"/>
      <point x="182" y="-199"/>
      <point x="187" y="-176"/>
      <point x="187" y="-140" type="curve"/>
      <point x="181" y="-38"/>
      <point x="168" y="106"/>
      <point x="156" y="272" type="curve"/>
      <point x="79" y="272" type="line"/>
      <point x="67" y="92"/>
      <point x="52" y="-66"/>
    </contour>
    <contour>
      <point x="41" y="398" type="curve" smooth="yes"/>
      <point x="41" y="353"/>
      <point x="69" y="319"/>
      <point x="116" y="319" type="curve" smooth="yes"/>
      <point x="163" y="319"/>
      <point x="191" y="353"/>
      <point x="191" y="398" type="curve" smooth="yes"/>
      <point x="191" y="443"/>
      <point x="163" y="476"/>
      <point x="116" y="476" type="curve" smooth="yes"/>
      <point x="69" y="476"/>
      <point x="41" y="443"/>
    </contour>
  </outline>
</glyph>
<glyph name="cent" format="1">
  <advance width="520"/>
  <unicode hex="00A2"/>
  <outline>
    <contour>
      <point x="300" y="555" type="line"/>
      <point x="242" y="555" type="line"/>
      <point x="242" y="498" type="line"/>
      <point x="97" y="485"/>
      <point x="35" y="380"/>
      <point x="35" y="242" type="curve" smooth="yes"/>
      <point x="35" y="104"/>
      <point x="97" y="-1"/>
      <point x="242" y="-14" type="curve"/>
      <point x="242" y="-82" type="line"/>
      <point x="300" y="-82" type="line"/>
      <point x="300" y="-14" type="line"/>
      <point x="449" y="-7"/>
      <point x="481" y="74"/>
      <point x="481" y="178" type="curve"/>
      <point x="385" y="178" type="line"/>
      <point x="381" y="94"/>
      <point x="359" y="56"/>
      <point x="300" y="50" type="curve"/>
      <point x="300" y="442" type="line"/>
      <point x="367" y="440"/>
      <point x="373" y="403"/>
      <point x="375" y="321" type="curve"/>
      <point x="471" y="321" type="line"/>
      <point x="471" y="468" type="line"/>
      <point x="416" y="487"/>
      <point x="358" y="497"/>
      <point x="300" y="500" type="curve"/>
    </contour>
    <contour>
      <point x="242" y="434" type="curve"/>
      <point x="242" y="54" type="line"/>
      <point x="194" y="68"/>
      <point x="169" y="119"/>
      <point x="169" y="249" type="curve" smooth="yes"/>
      <point x="169" y="369"/>
      <point x="197" y="417"/>
    </contour>
  </outline>
</glyph>
<glyph name="sterling" format="1">
  <advance width="527"/>
  <unicode hex="00A3"/>
  <outline>
    <contour>
      <point x="42" y="78" type="curve"/>
      <point x="42" y="0" type="line"/>
      <point x="490" y="0" type="line"/>
      <point x="490" y="160" type="line"/>
      <point x="399" y="160" type="line"/>
      <point x="392" y="102"/>
      <point x="385" y="88"/>
      <point x="352" y="88" type="curve" smooth="yes"/>
      <point x="216" y="88" type="line"/>
      <point x="243" y="121"/>
      <point x="265" y="165"/>
      <point x="265" y="222" type="curve" smooth="yes"/>
      <point x="265" y="249"/>
      <point x="262" y="276"/>
      <point x="258" y="304" type="curve"/>
      <point x="421" y="304" type="line"/>
      <point x="421" y="371" type="line"/>
      <point x="245" y="371" type="line"/>
      <point x="231" y="416"/>
      <point x="216" y="460"/>
      <point x="216" y="500" type="curve" smooth="yes"/>
      <point x="216" y="575"/>
      <point x="252" y="611"/>
      <point x="306" y="611" type="curve" smooth="yes"/>
      <point x="327" y="611"/>
      <point x="342" y="605"/>
      <point x="356" y="597" type="curve"/>
      <point x="369" y="568"/>
      <point x="375" y="531"/>
      <point x="377" y="488" type="curve"/>
      <point x="459" y="493" type="line"/>
      <point x="465" y="658" type="line"/>
      <point x="431" y="670"/>
      <point x="379" y="679"/>
      <point x="324" y="681" type="curve" smooth="yes"/>
      <point x="173" y="681"/>
      <point x="89" y="624"/>
      <point x="89" y="491" type="curve" smooth="yes"/>
      <point x="89" y="451"/>
      <point x="99" y="411"/>
      <point x="110" y="371" type="curve"/>
      <point x="38" y="371" type="line"/>
      <point x="38" y="304" type="line"/>
      <point x="125" y="304" type="line"/>
      <point x="134" y="258"/>
      <point x="141" y="214"/>
      <point x="141" y="172" type="curve" smooth="yes"/>
      <point x="141" y="91"/>
      <point x="120" y="78"/>
    </contour>
  </outline>
</glyph>
<glyph name="section" format="1">
  <advance width="506"/>
  <unicode hex="00A7"/>
  <outline>
    <contour>
      <point x="476" y="317" type="curve" smooth="yes"/>
      <point x="476" y="470"/>
      <point x="201" y="462"/>
      <point x="201" y="555" type="curve" smooth="yes"/>
      <point x="201" y="590"/>
      <point x="235" y="594"/>
      <point x="263" y="594" type="curve" smooth="yes"/>
      <point x="284" y="594"/>
      <point x="292" y="583"/>
      <point x="294" y="561" type="curve"/>
      <point x="312" y="552"/>
      <point x="379" y="548"/>
      <point x="408" y="542" type="curve"/>
      <point x="420" y="662" type="line"/>
      <point x="386" y="674"/>
      <point x="340" y="681"/>
      <point x="296" y="681" type="curve" smooth="yes"/>
      <point x="184" y="681"/>
      <point x="86" y="629"/>
      <point x="86" y="530" type="curve" smooth="yes"/>
      <point x="86" y="491"/>
      <point x="103" y="456"/>
      <point x="136" y="438" type="curve"/>
      <point x="106" y="423"/>
      <point x="30" y="394"/>
      <point x="30" y="310" type="curve" smooth="yes"/>
      <point x="30" y="170"/>
      <point x="309" y="163"/>
      <point x="309" y="71" type="curve" smooth="yes"/>
      <point x="309" y="37"/>
      <point x="280" y="29"/>
      <point x="240" y="29" type="curve" smooth="yes"/>
      <point x="217" y="29"/>
      <point x="207" y="44"/>
      <point x="205" y="73" type="curve"/>
      <point x="174" y="73"/>
      <point x="124" y="80"/>
      <point x="92" y="87" type="curve"/>
      <point x="80" y="-39" type="line"/>
      <point x="115" y="-50"/>
      <point x="163" y="-58"/>
      <point x="210" y="-58" type="curve" smooth="yes"/>
      <point x="281" y="-58"/>
      <point x="424" y="-27"/>
      <point x="424" y="100" type="curve" smooth="yes"/>
      <point x="424" y="145"/>
      <point x="399" y="175"/>
      <point x="377" y="192" type="curve"/>
      <point x="432" y="212"/>
      <point x="476" y="250"/>
    </contour>
    <contour>
      <point x="359" y="291" type="curve" smooth="yes"/>
      <point x="359" y="260"/>
      <point x="337" y="237"/>
      <point x="314" y="227" type="curve"/>
      <point x="229" y="262"/>
      <point x="148" y="295"/>
      <point x="148" y="339" type="curve" smooth="yes"/>
      <point x="148" y="368"/>
      <point x="168" y="388"/>
      <point x="197" y="398" type="curve"/>
      <point x="277" y="366"/>
      <point x="359" y="341"/>
    </contour>
  </outline>
</glyph>
<glyph name="copyright" format="1">
  <advance width="732"/>
  <unicode hex="00A9"/>
  <outline>
    <contour>
      <point x="700" y="334" type="curve" smooth="yes"/>
      <point x="700" y="520"/>
      <point x="552" y="668"/>
      <point x="366" y="668" type="curve" smooth="yes"/>
      <point x="180" y="668"/>
      <point x="31" y="520"/>
      <point x="31" y="334" type="curve" smooth="yes"/>
      <point x="31" y="148"/>
      <point x="180" y="0"/>
      <point x="366" y="0" type="curve" smooth="yes"/>
      <point x="552" y="0"/>
      <point x="700" y="148"/>
    </contour>
    <contour>
      <point x="634" y="334" type="curve" smooth="yes"/>
      <point x="634" y="179"/>
      <point x="517" y="57"/>
      <point x="366" y="57" type="curve" smooth="yes"/>
      <point x="214" y="57"/>
      <point x="97" y="179"/>
      <point x="97" y="334" type="curve" smooth="yes"/>
      <point x="97" y="488"/>
      <point x="214" y="610"/>
      <point x="366" y="610" type="curve" smooth="yes"/>
      <point x="517" y="610"/>
      <point x="634" y="488"/>
    </contour>
    <contour>
      <point x="513" y="178" type="curve"/>
      <point x="521" y="271" type="line"/>
      <point x="484" y="275" type="line"/>
      <point x="471" y="228"/>
      <point x="439" y="191"/>
      <point x="384" y="191" type="curve" smooth="yes"/>
      <point x="322" y="191"/>
      <point x="274" y="238"/>
      <point x="274" y="339" type="curve" smooth="yes"/>
      <point x="274" y="433"/>
      <point x="320" y="487"/>
      <point x="376" y="487" type="curve" smooth="yes"/>
      <point x="443" y="487"/>
      <point x="466" y="447"/>
      <point x="469" y="405" type="curve"/>
      <point x="508" y="407" type="line"/>
      <point x="513" y="496" type="line"/>
      <point x="481" y="518"/>
      <point x="431" y="531"/>
      <point x="383" y="531" type="curve" smooth="yes"/>
      <point x="263" y="531"/>
      <point x="177" y="452"/>
      <point x="177" y="336" type="curve" smooth="yes"/>
      <point x="177" y="218"/>
      <point x="264" y="146"/>
      <point x="383" y="146" type="curve" smooth="yes"/>
      <point x="436" y="146"/>
      <point x="483" y="158"/>
    </contour>
  </outline>
</glyph>
<glyph name="guillemotleft" format="1">
  <advance width="502"/>
  <unicode hex="00AB"/>
  <outline>
    <contour>
      <point x="232" y="227" type="line"/>
      <point x="390" y="6" type="line"/>
      <point x="464" y="8" type="line"/>
      <point x="358" y="235" type="line"/>
      <point x="464" y="447" type="line"/>
      <point x="390" y="447" type="line"/>
      <point x="241" y="256" type="line"/>
    </contour>
    <contour>
      <point x="26" y="227" type="line"/>
      <point x="184" y="6" type="line"/>
      <point x="258" y="6" type="line"/>
      <point x="152" y="235" type="line"/>
      <point x="258" y="447" type="line"/>
      <point x="184" y="447" type="line"/>
      <point x="35" y="256" type="line"/>
    </contour>
  </outline>
</glyph>
<glyph name="logicalnot" format="1">
  <advance width="551"/>
  <unicode hex="00AC"/>
  <outline>
    <contour>
      <point x="400" y="277" type="line"/>
      <point x="400" y="109" type="line"/>
      <point x="502" y="109" type="line"/>
      <point x="502" y="378" type="line"/>
      <point x="28" y="378" type="line"/>
      <point x="28" y="277" type="line"/>
    </contour>
  </outline>
</glyph>
<glyph name="registered" format="1">
  <advance width="752"/>
  <unicode hex="00AE"/>
  <outline>
    <contour>
      <point x="32" y="326" type="curve" smooth="yes"/>
      <point x="32" y="136"/>
      <point x="186" y="-18"/>
      <point x="376" y="-18" type="curve" smooth="yes"/>
      <point x="566" y="-18"/>
      <point x="720" y="136"/>
      <point x="720" y="326" type="curve" smooth="yes"/>
      <point x="720" y="516"/>
      <point x="566" y="670"/>
      <point x="376" y="670" type="curve" smooth="yes"/>
      <point x="186" y="670"/>
      <point x="32" y="516"/>
    </contour>
    <contour>
      <point x="376" y="46" type="curve" smooth="yes"/>
      <point x="226" y="46"/>
      <point x="108" y="170"/>
      <point x="108" y="326" type="curve" smooth="yes"/>
      <point x="108" y="482"/>
      <point x="226" y="606"/>
      <point x="376" y="606" type="curve" smooth="yes"/>
      <point x="526" y="606"/>
      <point x="644" y="482"/>
      <point x="644" y="326" type="curve" smooth="yes"/>
      <point x="644" y="170"/>
      <point x="526" y="46"/>
    </contour>
    <contour>
      <point x="363" y="335" type="curve" smooth="yes"/>
      <point x="332" y="335" type="line"/>
      <point x="332" y="489" type="line"/>
      <point x="362" y="489" type="line" smooth="yes"/>
      <point x="399" y="489"/>
      <point x="428" y="474"/>
      <point x="428" y="419" type="curve" smooth="yes"/>
      <point x="428" y="370"/>
      <point x="408" y="335"/>
    </contour>
    <contour>
      <point x="212" y="174" type="curve"/>
      <point x="212" y="150" type="line"/>
      <point x="376" y="150" type="line"/>
      <point x="376" y="174" type="line"/>
      <point x="345" y="174"/>
      <point x="332" y="181"/>
      <point x="332" y="212" type="curve" smooth="yes"/>
      <point x="332" y="307" type="line"/>
      <point x="359" y="307" type="line"/>
      <point x="428" y="191" type="line" smooth="yes"/>
      <point x="444" y="164"/>
      <point x="462" y="150"/>
      <point x="498" y="150" type="curve" smooth="yes"/>
      <point x="555" y="150" type="line"/>
      <point x="555" y="174" type="line"/>
      <point x="533" y="175"/>
      <point x="523" y="180"/>
      <point x="498" y="222" type="curve" smooth="yes"/>
      <point x="438" y="324" type="line"/>
      <point x="483" y="338"/>
      <point x="512" y="373"/>
      <point x="512" y="420" type="curve" smooth="yes"/>
      <point x="512" y="487"/>
      <point x="470" y="517"/>
      <point x="388" y="517" type="curve" smooth="yes"/>
      <point x="212" y="517" type="line"/>
      <point x="212" y="493" type="line"/>
      <point x="243" y="493"/>
      <point x="256" y="486"/>
      <point x="256" y="455" type="curve" smooth="yes"/>
      <point x="256" y="212" type="line" smooth="yes"/>
      <point x="256" y="181"/>
      <point x="243" y="174"/>
    </contour>
  </outline>
</glyph>
<glyph name="paragraph" format="1">
  <advance width="568"/>
  <unicode hex="00B6"/>
  <outline>
    <contour>
      <point x="224" y="603" type="curve"/>
      <point x="224" y="296" type="line"/>
      <point x="166" y="296"/>
      <point x="122" y="343"/>
      <point x="122" y="450" type="curve" smooth="yes"/>
      <point x="122" y="556"/>
      <point x="166" y="603"/>
    </contour>
    <contour>
      <point x="308" y="603" type="line"/>
      <point x="374" y="603" type="line"/>
      <point x="374" y="-88" type="line"/>
      <point x="539" y="-88" type="line"/>
      <point x="539" y="-39" type="line"/>
      <point x="514" y="-39" type="line" smooth="yes"/>
      <point x="463" y="-39"/>
      <point x="458" y="-22"/>
      <point x="458" y="24" type="curve" smooth="yes"/>
      <point x="458" y="540" type="line" smooth="yes"/>
      <point x="458" y="586"/>
      <point x="463" y="603"/>
      <point x="514" y="603" type="curve" smooth="yes"/>
      <point x="539" y="603" type="line"/>
      <point x="539" y="652" type="line"/>
      <point x="236" y="652" type="line" smooth="yes"/>
      <point x="108" y="652"/>
      <point x="26" y="580"/>
      <point x="26" y="447" type="curve" smooth="yes"/>
      <point x="26" y="314"/>
      <point x="111" y="244"/>
      <point x="224" y="244" type="curve"/>
      <point x="224" y="24" type="line" smooth="yes"/>
      <point x="224" y="-22"/>
      <point x="219" y="-39"/>
      <point x="168" y="-39" type="curve" smooth="yes"/>
      <point x="143" y="-39" type="line"/>
      <point x="143" y="-88" type="line"/>
      <point x="308" y="-88" type="line"/>
    </contour>
  </outline>
</glyph>
<glyph name="ordmasculine" format="1">
  <advance width="395"/>
  <unicode hex="00BA"/>
  <outline>
    <contour>
      <point x="357" y="539" type="curve" smooth="yes"/>
      <point x="357" y="625"/>
      <point x="303" y="682"/>
      <point x="200" y="682" type="curve" smooth="yes"/>
      <point x="97" y="682"/>
      <point x="37" y="624"/>
      <point x="37" y="533" type="curve" smooth="yes"/>
      <point x="37" y="444"/>
      <point x="96" y="390"/>
      <point x="194" y="390" type="curve" smooth="yes"/>
      <point x="295" y="390"/>
      <point x="357" y="446"/>
    </contour>
    <contour>
      <point x="260" y="536" type="curve" smooth="yes"/>
      <point x="260" y="462"/>
      <point x="241" y="433"/>
      <point x="197" y="433" type="curve" smooth="yes"/>
      <point x="156" y="433"/>
      <point x="134" y="459"/>
      <point x="134" y="536" type="curve" smooth="yes"/>
      <point x="134" y="612"/>
      <point x="157" y="639"/>
      <point x="197" y="639" type="curve" smooth="yes"/>
      <point x="237" y="639"/>
      <point x="260" y="613"/>
    </contour>
  </outline>
</glyph>
<glyph name="guillemotright" format="1">
  <advance width="501"/>
  <unicode hex="00BB"/>
  <outline>
    <contour>
      <point x="270" y="228" type="line"/>
      <point x="112" y="449" type="line"/>
      <point x="38" y="447" type="line"/>
      <point x="144" y="221" type="line"/>
      <point x="38" y="8" type="line"/>
      <point x="112" y="8" type="line"/>
      <point x="260" y="197" type="line"/>
    </contour>
    <contour>
      <point x="476" y="228" type="line"/>
      <point x="318" y="449" type="line"/>
      <point x="244" y="449" type="line"/>
      <point x="350" y="221" type="line"/>
      <point x="244" y="8" type="line"/>
      <point x="318" y="8" type="line"/>
      <point x="466" y="197" type="line"/>
    </contour>
  </outline>
</glyph>
<glyph name="Acircumflex" format="1">
  <advance width="765"/>
  <unicode hex="00C2"/>
  <outline>
    <contour>
      <point x="425" y="65" type="line"/>
      <point x="425" y="0" type="line"/>
      <point x="742" y="0" type="line"/>
      <point x="740" y="64" type="line"/>
      <point x="711" y="67"/>
      <point x="692" y="69"/>
      <point x="675" y="80" type="curve"/>
      <point x="667" y="93"/>
      <point x="659" y="109"/>
      <point x="652" y="127" type="curve" smooth="yes"/>
      <point x="579" y="301"/>
      <point x="499" y="512"/>
      <point x="446" y="667" type="curve"/>
      <point x="310" y="667" type="line"/>
      <point x="244" y="478"/>
      <point x="170" y="280"/>
      <point x="102" y="112" type="curve" smooth="yes"/>
      <point x="96" y="97"/>
      <point x="89" y="85"/>
      <point x="81" y="74" type="curve"/>
      <point x="66" y="70"/>
      <point x="49" y="67"/>
      <point x="28" y="64" type="curve"/>
      <point x="25" y="0" type="line"/>
      <point x="279" y="0" type="line"/>
      <point x="279" y="65" type="line"/>
      <point x="227" y="68" type="line" smooth="yes"/>
      <point x="212" y="69"/>
      <point x="200" y="72"/>
      <point x="193" y="78" type="curve"/>
      <point x="201" y="101"/>
      <point x="212" y="128"/>
      <point x="238" y="201" type="curve"/>
      <point x="470" y="201" type="line"/>
      <point x="497" y="125"/>
      <point x="505" y="107"/>
      <point x="513" y="82" type="curve"/>
      <point x="506" y="71"/>
      <point x="492" y="70"/>
      <point x="467" y="68" type="curve" smooth="yes"/>
    </contour>
    <contour>
      <point x="448" y="272" type="curve"/>
      <point x="261" y="272" type="line"/>
      <point x="287" y="346"/>
      <point x="327" y="465"/>
      <point x="353" y="547" type="curve"/>
      <point x="357" y="547" type="line"/>
      <point x="383" y="465"/>
      <point x="417" y="362"/>
    </contour>
    <contour>
      <point x="374" y="784" type="line"/>
      <point x="446" y="708" type="line"/>
      <point x="536" y="708" type="line"/>
      <point x="427" y="845" type="line"/>
      <point x="322" y="845" type="line"/>
      <point x="213" y="711" type="line"/>
      <point x="300" y="711" type="line"/>
    </contour>
  </outline>
</glyph>
<glyph name="Aring" format="1">
  <advance width="728"/>
  <unicode hex="00C5"/>
  <outline>
    <contour>
      <point x="257" y="774" type="curve" smooth="yes"/>
      <point x="257" y="719"/>
      <point x="303" y="671"/>
      <point x="360" y="671" type="curve" smooth="yes"/>
      <point x="415" y="671"/>
      <point x="463" y="718"/>
      <point x="463" y="774" type="curve" smooth="yes"/>
      <point x="463" y="829"/>
      <point x="415" y="877"/>
      <point x="360" y="877" type="curve" smooth="yes"/>
      <point x="303" y="877"/>
      <point x="257" y="828"/>
    </contour>
    <contour>
      <point x="360" y="720" type="curve" smooth="yes"/>
      <point x="331" y="720"/>
      <point x="306" y="745"/>
      <point x="306" y="774" type="curve" smooth="yes"/>
      <point x="306" y="803"/>
      <point x="331" y="828"/>
      <point x="360" y="828" type="curve" smooth="yes"/>
      <point x="389" y="828"/>
      <point x="414" y="803"/>
      <point x="414" y="774" type="curve" smooth="yes"/>
      <point x="414" y="745"/>
      <point x="389" y="720"/>
    </contour>
    <contour>
      <point x="344" y="556" type="line"/>
      <point x="346" y="556" type="line"/>
      <point x="442" y="260" type="line"/>
      <point x="246" y="260" type="line"/>
    </contour>
    <contour>
      <point x="451" y="55" type="curve" smooth="yes"/>
      <point x="411" y="55" type="line"/>
      <point x="411" y="0" type="line"/>
      <point x="705" y="0" type="line"/>
      <point x="705" y="55" type="line"/>
      <point x="650" y="55"/>
      <point x="639" y="59"/>
      <point x="621" y="108" type="curve" smooth="yes"/>
      <point x="424" y="652" type="line"/>
      <point x="290" y="652" type="line"/>
      <point x="86" y="84" type="line" smooth="yes"/>
      <point x="78" y="61"/>
      <point x="69" y="55"/>
      <point x="25" y="55" type="curve"/>
      <point x="25" y="0" type="line"/>
      <point x="265" y="0" type="line"/>
      <point x="265" y="55" type="line"/>
      <point x="209" y="55" type="line" smooth="yes"/>
      <point x="192" y="55"/>
      <point x="183" y="58"/>
      <point x="183" y="69" type="curve" smooth="yes"/>
      <point x="183" y="78"/>
      <point x="187" y="91"/>
      <point x="224" y="196" type="curve"/>
      <point x="462" y="196" type="line"/>
      <point x="496" y="101"/>
      <point x="501" y="88"/>
      <point x="501" y="77" type="curve" smooth="yes"/>
      <point x="501" y="59"/>
      <point x="488" y="55"/>
    </contour>
  </outline>
</glyph>
<glyph name="AE" format="1">
  <advance width="961"/>
  <unicode hex="00C6"/>
  <outline>
    <contour>
      <point x="922" y="179" type="curve"/>
      <point x="842" y="183" type="line"/>
      <point x="836" y="129"/>
      <point x="830" y="99"/>
      <point x="812" y="76" type="curve"/>
      <point x="798" y="74"/>
      <point x="780" y="73"/>
      <point x="757" y="73" type="curve" smooth="yes"/>
      <point x="616" y="73" type="line"/>
      <point x="599" y="308" type="line"/>
      <point x="697" y="308" type="line" smooth="yes"/>
      <point x="714" y="308"/>
      <point x="729" y="308"/>
      <point x="742" y="305" type="curve"/>
      <point x="754" y="286"/>
      <point x="759" y="259"/>
      <point x="763" y="218" type="curve"/>
      <point x="837" y="220" type="line"/>
      <point x="837" y="355" type="line"/>
      <point x="837" y="460" type="line"/>
      <point x="763" y="463" type="line"/>
      <point x="759" y="424"/>
      <point x="753" y="399"/>
      <point x="741" y="381" type="curve"/>
      <point x="729" y="378"/>
      <point x="715" y="378"/>
      <point x="700" y="378" type="curve" smooth="yes"/>
      <point x="595" y="378" type="line"/>
      <point x="579" y="593" type="line"/>
      <point x="741" y="593" type="line" smooth="yes"/>
      <point x="761" y="593"/>
      <point x="778" y="593"/>
      <point x="793" y="591" type="curve"/>
      <point x="806" y="571"/>
      <point x="810" y="544"/>
      <point x="814" y="495" type="curve"/>
      <point x="894" y="501" type="line"/>
      <point x="894" y="667" type="line"/>
      <point x="261" y="667" type="line"/>
      <point x="258" y="602" type="line"/>
      <point x="282" y="600"/>
      <point x="321" y="602"/>
      <point x="333" y="591" type="curve"/>
      <point x="330" y="580"/>
      <point x="326" y="572"/>
      <point x="312" y="543" type="curve" smooth="yes"/>
      <point x="244" y="407"/>
      <point x="165" y="242"/>
      <point x="105" y="108" type="curve" smooth="yes"/>
      <point x="85" y="63"/>
      <point x="70" y="70"/>
      <point x="28" y="64" type="curve"/>
      <point x="25" y="0" type="line"/>
      <point x="270" y="0" type="line"/>
      <point x="270" y="64" type="line"/>
      <point x="227" y="68" type="line" smooth="yes"/>
      <point x="215" y="69"/>
      <point x="203" y="73"/>
      <point x="197" y="80" type="curve"/>
      <point x="212" y="119"/>
      <point x="229" y="161"/>
      <point x="273" y="251" type="curve"/>
      <point x="470" y="251" type="line"/>
      <point x="476" y="180"/>
      <point x="477" y="148"/>
      <point x="477" y="114" type="curve" smooth="yes"/>
      <point x="477" y="100"/>
      <point x="476" y="87"/>
      <point x="473" y="75" type="curve"/>
      <point x="464" y="71"/>
      <point x="451" y="69"/>
      <point x="437" y="68" type="curve" smooth="yes"/>
      <point x="387" y="64" type="line"/>
      <point x="387" y="0" type="line"/>
      <point x="797" y="0" type="line" smooth="yes"/>
      <point x="832" y="0"/>
      <point x="891" y="-2"/>
      <point x="921" y="-3" type="curve"/>
      <point x="921" y="58"/>
      <point x="922" y="118"/>
    </contour>
    <contour>
      <point x="433" y="604" type="curve"/>
      <point x="443" y="604" type="line"/>
      <point x="465" y="322" type="line"/>
      <point x="303" y="322" type="line"/>
      <point x="347" y="419"/>
      <point x="392" y="516"/>
    </contour>
  </outline>
</glyph>
<glyph name="Eacute" format="1">
  <advance width="638"/>
  <unicode hex="00C9"/>
  <outline>
    <contour>
      <point x="600" y="179" type="curve"/>
      <point x="521" y="183" type="line"/>
      <point x="515" y="129"/>
      <point x="509" y="99"/>
      <point x="491" y="76" type="curve"/>
      <point x="476" y="74"/>
      <point x="458" y="73"/>
      <point x="436" y="73" type="curve" smooth="yes"/>
      <point x="275" y="73" type="line"/>
      <point x="275" y="308" type="line"/>
      <point x="369" y="308" type="line" smooth="yes"/>
      <point x="386" y="308"/>
      <point x="400" y="308"/>
      <point x="413" y="305" type="curve"/>
      <point x="425" y="286"/>
      <point x="431" y="259"/>
      <point x="434" y="218" type="curve"/>
      <point x="509" y="220" type="line"/>
      <point x="509" y="343" type="line"/>
      <point x="509" y="460" type="line"/>
      <point x="434" y="463" type="line"/>
      <point x="431" y="411"/>
      <point x="421" y="391"/>
      <point x="397" y="378" type="curve"/>
      <point x="275" y="378" type="line"/>
      <point x="275" y="593" type="line"/>
      <point x="420" y="593" type="line" smooth="yes"/>
      <point x="440" y="593"/>
      <point x="457" y="593"/>
      <point x="472" y="591" type="curve"/>
      <point x="485" y="571"/>
      <point x="489" y="544"/>
      <point x="492" y="495" type="curve"/>
      <point x="572" y="501" type="line"/>
      <point x="572" y="667" type="line"/>
      <point x="36" y="667" type="line"/>
      <point x="33" y="602" type="line"/>
      <point x="66" y="599"/>
      <point x="108" y="599"/>
      <point x="130" y="591" type="curve"/>
      <point x="133" y="579"/>
      <point x="134" y="565"/>
      <point x="134" y="547" type="curve" smooth="yes"/>
      <point x="134" y="120" type="line" smooth="yes"/>
      <point x="134" y="102"/>
      <point x="133" y="88"/>
      <point x="130" y="75" type="curve"/>
      <point x="120" y="71"/>
      <point x="106" y="69"/>
      <point x="90" y="68" type="curve" smooth="yes"/>
      <point x="36" y="64" type="line"/>
      <point x="36" y="0" type="line"/>
      <point x="477" y="0" type="line" smooth="yes"/>
      <point x="513" y="0"/>
      <point x="570" y="-3"/>
      <point x="600" y="-3" type="curve"/>
      <point x="600" y="58"/>
      <point x="600" y="118"/>
    </contour>
    <contour>
      <point x="243" y="710" type="line"/>
      <point x="328" y="710" type="line"/>
      <point x="459" y="839" type="line"/>
      <point x="320" y="839" type="line"/>
    </contour>
  </outline>
</glyph>
<glyph name="Igrave" format="1">
  <advance width="411"/>
  <unicode hex="00CC"/>
  <outline>
    <contour>
      <point x="35" y="64" type="line"/>
      <point x="35" y="0" type="line"/>
      <point x="379" y="0" type="line"/>
      <point x="379" y="64" type="line"/>
      <point x="322" y="68" type="line" smooth="yes"/>
      <point x="305" y="69"/>
      <point x="293" y="71"/>
      <point x="282" y="75" type="curve"/>
      <point x="279" y="89"/>
      <point x="278" y="104"/>
      <point x="278" y="123" type="curve" smooth="yes"/>
      <point x="278" y="543" type="line" smooth="yes"/>
      <point x="278" y="562"/>
      <point x="279" y="578"/>
      <point x="282" y="591" type="curve"/>
      <point x="303" y="599"/>
      <point x="344" y="599"/>
      <point x="377" y="602" type="curve"/>
      <point x="379" y="667" type="line"/>
      <point x="36" y="667" type="line"/>
      <point x="33" y="602" type="line"/>
      <point x="66" y="599"/>
      <point x="108" y="599"/>
      <point x="130" y="591" type="curve"/>
      <point x="133" y="578"/>
      <point x="134" y="562"/>
      <point x="134" y="543" type="curve" smooth="yes"/>
      <point x="134" y="123" type="line" smooth="yes"/>
      <point x="134" y="104"/>
      <point x="133" y="89"/>
      <point x="130" y="75" type="curve"/>
      <point x="119" y="71"/>
      <point x="106" y="69"/>
      <point x="89" y="68" type="curve" smooth="yes"/>
    </contour>
    <contour>
      <point x="59" y="839" type="line"/>
      <point x="191" y="710" type="line"/>
      <point x="275" y="710" type="line"/>
      <point x="199" y="839" type="line"/>
    </contour>
  </outline>
</glyph>
<glyph name="Idieresis" format="1">
  <advance width="411"/>
  <unicode hex="00CF"/>
  <outline>
    <contour>
      <point x="35" y="64" type="line"/>
      <point x="35" y="0" type="line"/>
      <point x="379" y="0" type="line"/>
      <point x="379" y="64" type="line"/>
      <point x="322" y="68" type="line" smooth="yes"/>
      <point x="305" y="69"/>
      <point x="293" y="71"/>
      <point x="282" y="75" type="curve"/>
      <point x="279" y="89"/>
      <point x="278" y="104"/>
      <point x="278" y="123" type="curve" smooth="yes"/>
      <point x="278" y="543" type="line" smooth="yes"/>
      <point x="278" y="562"/>
      <point x="279" y="578"/>
      <point x="282" y="591" type="curve"/>
      <point x="303" y="599"/>
      <point x="344" y="599"/>
      <point x="377" y="602" type="curve"/>
      <point x="379" y="667" type="line"/>
      <point x="36" y="667" type="line"/>
      <point x="33" y="602" type="line"/>
      <point x="66" y="599"/>
      <point x="108" y="599"/>
      <point x="130" y="591" type="curve"/>
      <point x="133" y="578"/>
      <point x="134" y="562"/>
      <point x="134" y="543" type="curve" smooth="yes"/>
      <point x="134" y="123" type="line" smooth="yes"/>
      <point x="134" y="104"/>
      <point x="133" y="89"/>
      <point x="130" y="75" type="curve"/>
      <point x="119" y="71"/>
      <point x="106" y="69"/>
      <point x="89" y="68" type="curve" smooth="yes"/>
    </contour>
    <contour>
      <point x="369" y="775" type="curve" smooth="yes"/>
      <point x="369" y="814"/>
      <point x="342" y="842"/>
      <point x="305" y="842" type="curve" smooth="yes"/>
      <point x="267" y="842"/>
      <point x="240" y="814"/>
      <point x="240" y="775" type="curve" smooth="yes"/>
      <point x="240" y="736"/>
      <point x="267" y="707"/>
      <point x="305" y="707" type="curve" smooth="yes"/>
      <point x="342" y="707"/>
      <point x="369" y="736"/>
    </contour>
    <contour>
      <point x="171" y="775" type="curve" smooth="yes"/>
      <point x="171" y="814"/>
      <point x="144" y="842"/>
      <point x="106" y="842" type="curve" smooth="yes"/>
      <point x="69" y="842"/>
      <point x="42" y="814"/>
      <point x="42" y="775" type="curve" smooth="yes"/>
      <point x="42" y="736"/>
      <point x="69" y="707"/>
      <point x="106" y="707" type="curve" smooth="yes"/>
      <point x="144" y="707"/>
      <point x="171" y="736"/>
    </contour>
  </outline>
</glyph>
<glyph name="Ntilde" format="1">
  <advance width="812"/>
  <unicode hex="00D1"/>
  <outline>
    <contour>
      <point x="787" y="602" type="curve"/>
      <point x="789" y="667" type="line"/>
      <point x="496" y="667" type="line"/>
      <point x="493" y="602" type="line"/>
      <point x="532" y="599"/>
      <point x="581" y="599"/>
      <point x="608" y="591" type="curve"/>
      <point x="611" y="576"/>
      <point x="612" y="560"/>
      <point x="613" y="539" type="curve" smooth="yes"/>
      <point x="615" y="196" type="line"/>
      <point x="519" y="347"/>
      <point x="389" y="531"/>
      <point x="295" y="667" type="curve"/>
      <point x="36" y="667" type="line"/>
      <point x="33" y="602" type="line"/>
      <point x="66" y="599"/>
      <point x="110" y="599"/>
      <point x="131" y="591" type="curve"/>
      <point x="134" y="574"/>
      <point x="135" y="555"/>
      <point x="135" y="533" type="curve" smooth="yes"/>
      <point x="135" y="134" type="line" smooth="yes"/>
      <point x="135" y="111"/>
      <point x="134" y="92"/>
      <point x="131" y="75" type="curve"/>
      <point x="121" y="71"/>
      <point x="108" y="69"/>
      <point x="91" y="68" type="curve" smooth="yes"/>
      <point x="36" y="64" type="line"/>
      <point x="36" y="0" type="line"/>
      <point x="339" y="0" type="line"/>
      <point x="339" y="65" type="line"/>
      <point x="274" y="68" type="line" smooth="yes"/>
      <point x="255" y="69"/>
      <point x="239" y="71"/>
      <point x="226" y="75" type="curve"/>
      <point x="223" y="92"/>
      <point x="222" y="112"/>
      <point x="222" y="134" type="curve" smooth="yes"/>
      <point x="219" y="536" type="line"/>
      <point x="220" y="536"/>
      <point x="220" y="536"/>
      <point x="220" y="536" type="curve"/>
      <point x="320" y="392"/>
      <point x="475" y="169"/>
      <point x="584" y="-6" type="curve"/>
      <point x="699" y="1" type="line"/>
      <point x="699" y="533" type="line" smooth="yes"/>
      <point x="699" y="555"/>
      <point x="700" y="574"/>
      <point x="703" y="591" type="curve"/>
      <point x="721" y="598"/>
      <point x="756" y="599"/>
    </contour>
    <contour>
      <point x="581" y="835" type="curve"/>
      <point x="529" y="842" type="line"/>
      <point x="521" y="816"/>
      <point x="510" y="797"/>
      <point x="486" y="797" type="curve" smooth="yes"/>
      <point x="444" y="797"/>
      <point x="391" y="839"/>
      <point x="342" y="839" type="curve" smooth="yes"/>
      <point x="281" y="839"/>
      <point x="249" y="792"/>
      <point x="236" y="724" type="curve"/>
      <point x="283" y="715" type="line"/>
      <point x="294" y="744"/>
      <point x="307" y="761"/>
      <point x="333" y="761" type="curve" smooth="yes"/>
      <point x="372" y="761"/>
      <point x="431" y="718"/>
      <point x="477" y="718" type="curve" smooth="yes"/>
      <point x="539" y="718"/>
      <point x="572" y="766"/>
    </contour>
  </outline>
</glyph>
<glyph name="Otilde" format="1">
  <advance width="733"/>
  <unicode hex="00D5"/>
  <outline>
    <contour>
      <point x="700" y="340" type="curve" smooth="yes"/>
      <point x="700" y="549"/>
      <point x="571" y="682"/>
      <point x="371" y="682" type="curve" smooth="yes"/>
      <point x="162" y="682"/>
      <point x="33" y="547"/>
      <point x="33" y="326" type="curve" smooth="yes"/>
      <point x="33" y="111"/>
      <point x="167" y="-14"/>
      <point x="361" y="-14" type="curve" smooth="yes"/>
      <point x="566" y="-14"/>
      <point x="700" y="113"/>
    </contour>
    <contour>
      <point x="543" y="335" type="curve" smooth="yes"/>
      <point x="543" y="152"/>
      <point x="481" y="60"/>
      <point x="366" y="60" type="curve" smooth="yes"/>
      <point x="252" y="60"/>
      <point x="190" y="144"/>
      <point x="190" y="333" type="curve" smooth="yes"/>
      <point x="190" y="527"/>
      <point x="258" y="608"/>
      <point x="369" y="608" type="curve" smooth="yes"/>
      <point x="478" y="608"/>
      <point x="543" y="527"/>
    </contour>
    <contour>
      <point x="539" y="835" type="curve"/>
      <point x="487" y="842" type="line"/>
      <point x="479" y="815"/>
      <point x="467" y="796"/>
      <point x="439" y="796" type="curve" smooth="yes"/>
      <point x="399" y="796"/>
      <point x="347" y="839"/>
      <point x="299" y="839" type="curve" smooth="yes"/>
      <point x="238" y="839"/>
      <point x="206" y="792"/>
      <point x="193" y="724" type="curve"/>
      <point x="241" y="715" type="line"/>
      <point x="251" y="744"/>
      <point x="264" y="761"/>
      <point x="291" y="761" type="curve" smooth="yes"/>
      <point x="330" y="761"/>
      <point x="388" y="718"/>
      <point x="435" y="718" type="curve" smooth="yes"/>
      <point x="496" y="718"/>
      <point x="530" y="766"/>
    </contour>
  </outline>
</glyph>
<glyph name="multiply" format="1">
  <advance width="468"/>
  <unicode hex="00D7"/>
  <outline>
    <contour>
      <point x="103" y="48" type="line"/>
      <point x="234" y="178" type="line"/>
      <point x="364" y="48" type="line"/>
      <point x="432" y="116" type="line"/>
      <point x="302" y="246" type="line"/>
      <point x="432" y="376" type="line"/>
      <point x="364" y="444" type="line"/>
      <point x="234" y="314" type="line"/>
      <point x="103" y="444" type="line"/>
      <point x="35" y="376" type="line"/>
      <point x="165" y="246" type="line"/>
      <point x="35" y="116" type="line"/>
    </contour>
  </outline>
</glyph>
<glyph name="Oslash" format="1">
  <advance width="741"/>
  <unicode hex="00D8"/>
  <outline>
    <contour>
      <point x="705" y="340" type="curve" smooth="yes"/>
      <point x="705" y="448"/>
      <point x="669" y="536"/>
      <point x="608" y="594" type="curve"/>
      <point x="680" y="689" type="line"/>
      <point x="627" y="706" type="line"/>
      <point x="567" y="628" type="line"/>
      <point x="516" y="662"/>
      <point x="451" y="682"/>
      <point x="376" y="682" type="curve" smooth="yes"/>
      <point x="167" y="682"/>
      <point x="38" y="547"/>
      <point x="38" y="326" type="curve" smooth="yes"/>
      <point x="38" y="215"/>
      <point x="75" y="129"/>
      <point x="137" y="71" type="curve"/>
      <point x="66" y="-22" type="line"/>
      <point x="120" y="-39" type="line"/>
      <point x="179" y="37" type="line"/>
      <point x="229" y="3"/>
      <point x="293" y="-14"/>
      <point x="366" y="-14" type="curve" smooth="yes"/>
      <point x="571" y="-14"/>
      <point x="705" y="113"/>
    </contour>
    <contour>
      <point x="502" y="543" type="curve"/>
      <point x="218" y="175" type="line"/>
      <point x="202" y="215"/>
      <point x="195" y="268"/>
      <point x="195" y="333" type="curve" smooth="yes"/>
      <point x="195" y="527"/>
      <point x="263" y="608"/>
      <point x="374" y="608" type="curve" smooth="yes"/>
      <point x="428" y="608"/>
      <point x="472" y="588"/>
    </contour>
    <contour>
      <point x="548" y="335" type="curve" smooth="yes"/>
      <point x="548" y="152"/>
      <point x="486" y="60"/>
      <point x="371" y="60" type="curve" smooth="yes"/>
      <point x="316" y="60"/>
      <point x="273" y="79"/>
      <point x="244" y="122" type="curve"/>
      <point x="527" y="489" type="line"/>
      <point x="541" y="449"/>
      <point x="548" y="398"/>
    </contour>
  </outline>
</glyph>
<glyph name="Uacute" format="1">
  <advance width="745"/>
  <unicode hex="00DA"/>
  <outline>
    <contour>
      <point x="721" y="602" type="curve"/>
      <point x="724" y="667" type="line"/>
      <point x="448" y="667" type="line"/>
      <point x="444" y="602" type="line"/>
      <point x="477" y="599"/>
      <point x="514" y="599"/>
      <point x="536" y="591" type="curve"/>
      <point x="539" y="577"/>
      <point x="541" y="560"/>
      <point x="541" y="540" type="curve" smooth="yes"/>
      <point x="542" y="222" type="line" smooth="yes"/>
      <point x="542" y="118"/>
      <point x="486" y="67"/>
      <point x="390" y="67" type="curve" smooth="yes"/>
      <point x="283" y="67"/>
      <point x="251" y="131"/>
      <point x="251" y="230" type="curve" smooth="yes"/>
      <point x="251" y="540" type="line" smooth="yes"/>
      <point x="251" y="560"/>
      <point x="252" y="577"/>
      <point x="255" y="591" type="curve"/>
      <point x="276" y="599"/>
      <point x="317" y="599"/>
      <point x="351" y="602" type="curve"/>
      <point x="353" y="667" type="line"/>
      <point x="24" y="667" type="line"/>
      <point x="21" y="602" type="line"/>
      <point x="50" y="599"/>
      <point x="85" y="599"/>
      <point x="105" y="591" type="curve"/>
      <point x="108" y="576"/>
      <point x="109" y="560"/>
      <point x="109" y="539" type="curve" smooth="yes"/>
      <point x="109" y="226" type="line" smooth="yes"/>
      <point x="109" y="58"/>
      <point x="202" y="-14"/>
      <point x="387" y="-14" type="curve" smooth="yes"/>
      <point x="547" y="-14"/>
      <point x="636" y="82"/>
      <point x="636" y="224" type="curve" smooth="yes"/>
      <point x="636" y="539" type="line" smooth="yes"/>
      <point x="636" y="560"/>
      <point x="637" y="576"/>
      <point x="640" y="591" type="curve"/>
      <point x="658" y="598"/>
      <point x="692" y="599"/>
    </contour>
    <contour>
      <point x="323" y="710" type="line"/>
      <point x="407" y="710" type="line"/>
      <point x="539" y="839" type="line"/>
      <point x="399" y="839" type="line"/>
    </contour>
  </outline>
</glyph>
<glyph name="Ucircumflex" format="1">
  <advance width="745"/>
  <unicode hex="00DB"/>
  <outline>
    <contour>
      <point x="721" y="602" type="curve"/>
      <point x="724" y="667" type="line"/>
      <point x="448" y="667" type="line"/>
      <point x="444" y="602" type="line"/>
      <point x="477" y="599"/>
      <point x="514" y="599"/>
      <point x="536" y="591" type="curve"/>
      <point x="539" y="577"/>
      <point x="541" y="560"/>
      <point x="541" y="540" type="curve" smooth="yes"/>
      <point x="542" y="222" type="line" smooth="yes"/>
      <point x="542" y="118"/>
      <point x="486" y="67"/>
      <point x="390" y="67" type="curve" smooth="yes"/>
      <point x="283" y="67"/>
      <point x="251" y="131"/>
      <point x="251" y="230" type="curve" smooth="yes"/>
      <point x="251" y="540" type="line" smooth="yes"/>
      <point x="251" y="560"/>
      <point x="252" y="577"/>
      <point x="255" y="591" type="curve"/>
      <point x="276" y="599"/>
      <point x="317" y="599"/>
      <point x="351" y="602" type="curve"/>
      <point x="353" y="667" type="line"/>
      <point x="24" y="667" type="line"/>
      <point x="21" y="602" type="line"/>
      <point x="50" y="599"/>
      <point x="85" y="599"/>
      <point x="105" y="591" type="curve"/>
      <point x="108" y="576"/>
      <point x="109" y="560"/>
      <point x="109" y="539" type="curve" smooth="yes"/>
      <point x="109" y="226" type="line" smooth="yes"/>
      <point x="109" y="58"/>
      <point x="202" y="-14"/>
      <point x="387" y="-14" type="curve" smooth="yes"/>
      <point x="547" y="-14"/>
      <point x="636" y="82"/>
      <point x="636" y="224" type="curve" smooth="yes"/>
      <point x="636" y="539" type="line" smooth="yes"/>
      <point x="636" y="560"/>
      <point x="637" y="576"/>
      <point x="640" y="591" type="curve"/>
      <point x="658" y="598"/>
      <point x="692" y="599"/>
    </contour>
    <contour>
      <point x="376" y="784" type="line"/>
      <point x="448" y="708" type="line"/>
      <point x="538" y="708" type="line"/>
      <point x="429" y="845" type="line"/>
      <point x="324" y="845" type="line"/>
      <point x="215" y="711" type="line"/>
      <point x="302" y="711" type="line"/>
    </contour>
  </outline>
</glyph>
<glyph name="agrave" format="1">
  <advance width="545"/>
  <unicode hex="00E0"/>
  <outline>
    <contour>
      <point x="515" y="5" type="curve"/>
      <point x="517" y="62" type="line"/>
      <point x="509" y="60"/>
      <point x="497" y="58"/>
      <point x="486" y="58" type="curve" smooth="yes"/>
      <point x="446" y="58"/>
      <point x="437" y="76"/>
      <point x="437" y="113" type="curve" smooth="yes"/>
      <point x="437" y="141"/>
      <point x="442" y="296"/>
      <point x="442" y="327" type="curve" smooth="yes"/>
      <point x="442" y="446"/>
      <point x="376" y="475"/>
      <point x="249" y="475" type="curve" smooth="yes"/>
      <point x="177" y="472"/>
      <point x="126" y="449"/>
      <point x="82" y="409" type="curve"/>
      <point x="76" y="387"/>
      <point x="74" y="364"/>
      <point x="74" y="341" type="curve" smooth="yes"/>
      <point x="74" y="332"/>
      <point x="74" y="324"/>
      <point x="75" y="315" type="curve"/>
      <point x="167" y="307" type="line"/>
      <point x="171" y="343"/>
      <point x="188" y="403"/>
      <point x="234" y="403" type="curve" smooth="yes"/>
      <point x="289" y="403"/>
      <point x="314" y="375"/>
      <point x="314" y="313" type="curve" smooth="yes"/>
      <point x="314" y="296"/>
      <point x="313" y="261"/>
      <point x="313" y="253" type="curve"/>
      <point x="251" y="252" type="line" smooth="yes"/>
      <point x="125" y="250"/>
      <point x="34" y="223"/>
      <point x="34" y="113" type="curve" smooth="yes"/>
      <point x="34" y="45"/>
      <point x="78" y="-4"/>
      <point x="146" y="-11" type="curve"/>
      <point x="212" y="-11"/>
      <point x="283" y="11"/>
      <point x="327" y="69" type="curve"/>
      <point x="334" y="50"/>
      <point x="353" y="1"/>
      <point x="384" y="-5" type="curve"/>
      <point x="425" y="-5"/>
      <point x="474" y="-2"/>
    </contour>
    <contour>
      <point x="272" y="200" type="curve" smooth="yes"/>
      <point x="313" y="202" type="line"/>
      <point x="311" y="141"/>
      <point x="321" y="72"/>
      <point x="229" y="64" type="curve"/>
      <point x="192" y="64"/>
      <point x="168" y="85"/>
      <point x="168" y="129" type="curve" smooth="yes"/>
      <point x="168" y="186"/>
      <point x="222" y="196"/>
    </contour>
    <contour>
      <point x="120" y="707" type="line"/>
      <point x="264" y="536" type="line"/>
      <point x="337" y="536" type="line"/>
      <point x="262" y="707" type="line"/>
    </contour>
  </outline>
</glyph>
<glyph name="aacute" format="1">
  <advance width="545"/>
  <unicode hex="00E1"/>
  <outline>
    <contour>
      <point x="516" y="5" type="curve"/>
      <point x="518" y="62" type="line"/>
      <point x="510" y="60"/>
      <point x="498" y="58"/>
      <point x="487" y="58" type="curve" smooth="yes"/>
      <point x="447" y="58"/>
      <point x="438" y="76"/>
      <point x="438" y="113" type="curve" smooth="yes"/>
      <point x="438" y="141"/>
      <point x="443" y="296"/>
      <point x="443" y="327" type="curve" smooth="yes"/>
      <point x="443" y="446"/>
      <point x="377" y="475"/>
      <point x="250" y="475" type="curve" smooth="yes"/>
      <point x="178" y="472"/>
      <point x="127" y="449"/>
      <point x="83" y="409" type="curve"/>
      <point x="77" y="387"/>
      <point x="75" y="364"/>
      <point x="75" y="341" type="curve" smooth="yes"/>
      <point x="75" y="332"/>
      <point x="75" y="324"/>
      <point x="76" y="315" type="curve"/>
      <point x="168" y="307" type="line"/>
      <point x="172" y="343"/>
      <point x="189" y="403"/>
      <point x="235" y="403" type="curve" smooth="yes"/>
      <point x="290" y="403"/>
      <point x="315" y="375"/>
      <point x="315" y="313" type="curve" smooth="yes"/>
      <point x="315" y="296"/>
      <point x="314" y="261"/>
      <point x="314" y="253" type="curve"/>
      <point x="252" y="252" type="line" smooth="yes"/>
      <point x="126" y="250"/>
      <point x="35" y="223"/>
      <point x="35" y="113" type="curve" smooth="yes"/>
      <point x="35" y="45"/>
      <point x="79" y="-4"/>
      <point x="147" y="-11" type="curve"/>
      <point x="213" y="-11"/>
      <point x="284" y="11"/>
      <point x="328" y="69" type="curve"/>
      <point x="335" y="50"/>
      <point x="354" y="1"/>
      <point x="385" y="-5" type="curve"/>
      <point x="426" y="-5"/>
      <point x="475" y="-2"/>
    </contour>
    <contour>
      <point x="273" y="200" type="curve" smooth="yes"/>
      <point x="314" y="202" type="line"/>
      <point x="312" y="141"/>
      <point x="322" y="72"/>
      <point x="230" y="64" type="curve"/>
      <point x="193" y="64"/>
      <point x="169" y="85"/>
      <point x="169" y="129" type="curve" smooth="yes"/>
      <point x="169" y="186"/>
      <point x="223" y="196"/>
    </contour>
    <contour>
      <point x="217" y="536" type="line"/>
      <point x="290" y="536" type="line"/>
      <point x="434" y="707" type="line"/>
      <point x="292" y="707" type="line"/>
    </contour>
  </outline>
</glyph>
<glyph name="acircumflex" format="1">
  <advance width="548"/>
  <unicode hex="00E2"/>
  <outline>
    <contour>
      <point x="518" y="5" type="curve"/>
      <point x="520" y="62" type="line"/>
      <point x="512" y="60"/>
      <point x="500" y="58"/>
      <point x="489" y="58" type="curve" smooth="yes"/>
      <point x="449" y="58"/>
      <point x="440" y="76"/>
      <point x="440" y="113" type="curve" smooth="yes"/>
      <point x="440" y="141"/>
      <point x="445" y="296"/>
      <point x="445" y="327" type="curve" smooth="yes"/>
      <point x="445" y="446"/>
      <point x="379" y="475"/>
      <point x="252" y="475" type="curve" smooth="yes"/>
      <point x="180" y="472"/>
      <point x="129" y="449"/>
      <point x="85" y="409" type="curve"/>
      <point x="79" y="387"/>
      <point x="77" y="364"/>
      <point x="77" y="341" type="curve" smooth="yes"/>
      <point x="77" y="332"/>
      <point x="77" y="324"/>
      <point x="78" y="315" type="curve"/>
      <point x="170" y="307" type="line"/>
      <point x="174" y="343"/>
      <point x="191" y="403"/>
      <point x="237" y="403" type="curve" smooth="yes"/>
      <point x="292" y="403"/>
      <point x="317" y="375"/>
      <point x="317" y="313" type="curve" smooth="yes"/>
      <point x="317" y="296"/>
      <point x="316" y="261"/>
      <point x="316" y="253" type="curve"/>
      <point x="254" y="252" type="line" smooth="yes"/>
      <point x="128" y="250"/>
      <point x="37" y="223"/>
      <point x="37" y="113" type="curve" smooth="yes"/>
      <point x="37" y="45"/>
      <point x="81" y="-4"/>
      <point x="149" y="-11" type="curve"/>
      <point x="215" y="-11"/>
      <point x="286" y="11"/>
      <point x="330" y="69" type="curve"/>
      <point x="337" y="50"/>
      <point x="356" y="1"/>
      <point x="387" y="-5" type="curve"/>
      <point x="428" y="-5"/>
      <point x="477" y="-2"/>
    </contour>
    <contour>
      <point x="275" y="200" type="curve" smooth="yes"/>
      <point x="316" y="202" type="line"/>
      <point x="314" y="141"/>
      <point x="324" y="72"/>
      <point x="232" y="64" type="curve"/>
      <point x="195" y="64"/>
      <point x="171" y="85"/>
      <point x="171" y="129" type="curve" smooth="yes"/>
      <point x="171" y="186"/>
      <point x="225" y="196"/>
    </contour>
    <contour>
      <point x="261" y="632" type="line"/>
      <point x="348" y="536" type="line"/>
      <point x="424" y="536" type="line"/>
      <point x="312" y="707" type="line"/>
      <point x="210" y="707" type="line"/>
      <point x="99" y="539" type="line"/>
      <point x="172" y="539" type="line"/>
    </contour>
  </outline>
</glyph>
<glyph name="adieresis" format="1">
  <advance width="553"/>
  <unicode hex="00E4"/>
  <outline>
    <contour>
      <point x="520" y="5" type="curve"/>
      <point x="522" y="62" type="line"/>
      <point x="514" y="60"/>
      <point x="502" y="58"/>
      <point x="491" y="58" type="curve" smooth="yes"/>
      <point x="451" y="58"/>
      <point x="442" y="76"/>
      <point x="442" y="113" type="curve" smooth="yes"/>
      <point x="442" y="141"/>
      <point x="447" y="296"/>
      <point x="447" y="327" type="curve" smooth="yes"/>
      <point x="447" y="446"/>
      <point x="381" y="475"/>
      <point x="254" y="475" type="curve" smooth="yes"/>
      <point x="182" y="472"/>
      <point x="131" y="449"/>
      <point x="87" y="409" type="curve"/>
      <point x="81" y="387"/>
      <point x="79" y="364"/>
      <point x="79" y="341" type="curve" smooth="yes"/>
      <point x="79" y="332"/>
      <point x="79" y="324"/>
      <point x="80" y="315" type="curve"/>
      <point x="172" y="307" type="line"/>
      <point x="176" y="343"/>
      <point x="193" y="403"/>
      <point x="239" y="403" type="curve" smooth="yes"/>
      <point x="294" y="403"/>
      <point x="319" y="375"/>
      <point x="319" y="313" type="curve" smooth="yes"/>
      <point x="319" y="296"/>
      <point x="318" y="261"/>
      <point x="318" y="253" type="curve"/>
      <point x="256" y="252" type="line" smooth="yes"/>
      <point x="130" y="250"/>
      <point x="39" y="223"/>
      <point x="39" y="113" type="curve" smooth="yes"/>
      <point x="39" y="45"/>
      <point x="83" y="-4"/>
      <point x="151" y="-11" type="curve"/>
      <point x="217" y="-11"/>
      <point x="288" y="11"/>
      <point x="332" y="69" type="curve"/>
      <point x="339" y="50"/>
      <point x="358" y="1"/>
      <point x="389" y="-5" type="curve"/>
      <point x="430" y="-5"/>
      <point x="479" y="-2"/>
    </contour>
    <contour>
      <point x="277" y="200" type="curve" smooth="yes"/>
      <point x="318" y="202" type="line"/>
      <point x="316" y="141"/>
      <point x="326" y="72"/>
      <point x="234" y="64" type="curve"/>
      <point x="197" y="64"/>
      <point x="173" y="85"/>
      <point x="173" y="129" type="curve" smooth="yes"/>
      <point x="173" y="186"/>
      <point x="227" y="196"/>
    </contour>
    <contour>
      <point x="437" y="627" type="curve" smooth="yes"/>
      <point x="437" y="666"/>
      <point x="410" y="694"/>
      <point x="373" y="694" type="curve" smooth="yes"/>
      <point x="335" y="694"/>
      <point x="308" y="666"/>
      <point x="308" y="627" type="curve" smooth="yes"/>
      <point x="308" y="588"/>
      <point x="335" y="559"/>
      <point x="373" y="559" type="curve" smooth="yes"/>
      <point x="410" y="559"/>
      <point x="437" y="588"/>
    </contour>
    <contour>
      <point x="239" y="627" type="curve" smooth="yes"/>
      <point x="239" y="666"/>
      <point x="212" y="694"/>
      <point x="174" y="694" type="curve" smooth="yes"/>
      <point x="137" y="694"/>
      <point x="110" y="666"/>
      <point x="110" y="627" type="curve" smooth="yes"/>
      <point x="110" y="588"/>
      <point x="137" y="559"/>
      <point x="174" y="559" type="curve" smooth="yes"/>
      <point x="212" y="559"/>
      <point x="239" y="588"/>
    </contour>
  </outline>
</glyph>
<glyph name="aring" format="1">
  <advance width="546"/>
  <unicode hex="00E5"/>
  <outline>
    <contour>
      <point x="516" y="5" type="curve"/>
      <point x="518" y="62" type="line"/>
      <point x="510" y="60"/>
      <point x="498" y="58"/>
      <point x="487" y="58" type="curve" smooth="yes"/>
      <point x="447" y="58"/>
      <point x="438" y="76"/>
      <point x="438" y="113" type="curve" smooth="yes"/>
      <point x="438" y="141"/>
      <point x="443" y="296"/>
      <point x="443" y="327" type="curve" smooth="yes"/>
      <point x="443" y="446"/>
      <point x="377" y="475"/>
      <point x="250" y="475" type="curve" smooth="yes"/>
      <point x="178" y="472"/>
      <point x="127" y="449"/>
      <point x="83" y="409" type="curve"/>
      <point x="77" y="387"/>
      <point x="75" y="364"/>
      <point x="75" y="341" type="curve" smooth="yes"/>
      <point x="75" y="332"/>
      <point x="75" y="324"/>
      <point x="76" y="315" type="curve"/>
      <point x="168" y="307" type="line"/>
      <point x="172" y="343"/>
      <point x="189" y="403"/>
      <point x="235" y="403" type="curve" smooth="yes"/>
      <point x="290" y="403"/>
      <point x="315" y="375"/>
      <point x="315" y="313" type="curve" smooth="yes"/>
      <point x="315" y="296"/>
      <point x="314" y="261"/>
      <point x="314" y="253" type="curve"/>
      <point x="252" y="252" type="line" smooth="yes"/>
      <point x="126" y="250"/>
      <point x="35" y="223"/>
      <point x="35" y="113" type="curve" smooth="yes"/>
      <point x="35" y="45"/>
      <point x="79" y="-4"/>
      <point x="147" y="-11" type="curve"/>
      <point x="213" y="-11"/>
      <point x="284" y="11"/>
      <point x="328" y="69" type="curve"/>
      <point x="335" y="50"/>
      <point x="354" y="1"/>
      <point x="385" y="-5" type="curve"/>
      <point x="426" y="-5"/>
      <point x="475" y="-2"/>
    </contour>
    <contour>
      <point x="273" y="200" type="curve" smooth="yes"/>
      <point x="314" y="202" type="line"/>
      <point x="312" y="141"/>
      <point x="322" y="72"/>
      <point x="230" y="64" type="curve"/>
      <point x="193" y="64"/>
      <point x="169" y="85"/>
      <point x="169" y="129" type="curve" smooth="yes"/>
      <point x="169" y="186"/>
      <point x="223" y="196"/>
    </contour>
    <contour>
      <point x="378" y="630" type="curve" smooth="yes"/>
      <point x="378" y="686"/>
      <point x="331" y="729"/>
      <point x="274" y="729" type="curve" smooth="yes"/>
      <point x="213" y="729"/>
      <point x="166" y="684"/>
      <point x="166" y="626" type="curve" smooth="yes"/>
      <point x="166" y="570"/>
      <point x="214" y="528"/>
      <point x="270" y="528" type="curve" smooth="yes"/>
      <point x="328" y="528"/>
      <point x="378" y="570"/>
    </contour>
    <contour>
      <point x="318" y="629" type="curve" smooth="yes"/>
      <point x="318" y="602"/>
      <point x="299" y="581"/>
      <point x="272" y="581" type="curve" smooth="yes"/>
      <point x="247" y="581"/>
      <point x="225" y="601"/>
      <point x="225" y="629" type="curve" smooth="yes"/>
      <point x="225" y="658"/>
      <point x="247" y="677"/>
      <point x="272" y="677" type="curve" smooth="yes"/>
      <point x="297" y="677"/>
      <point x="318" y="658"/>
    </contour>
  </outline>
</glyph>
<glyph name="ae" format="1">
  <advance width="772"/>
  <unicode hex="00E6"/>
  <outline>
    <contour>
      <point x="731" y="108" type="curve"/>
      <point x="667" y="141" type="line"/>
      <point x="646" y="116"/>
      <point x="624" y="98"/>
      <point x="600" y="90" type="curve"/>
      <point x="585" y="76"/>
      <point x="566" y="68"/>
      <point x="543" y="68" type="curve" smooth="yes"/>
      <point x="463" y="68"/>
      <point x="437" y="134"/>
      <point x="437" y="208" type="curve" smooth="yes"/>
      <point x="437" y="215"/>
      <point x="438" y="222"/>
      <point x="438" y="228" type="curve"/>
      <point x="729" y="228" type="line"/>
      <point x="731" y="252" type="line"/>
      <point x="731" y="391"/>
      <point x="675" y="476"/>
      <point x="531" y="476" type="curve" smooth="yes"/>
      <point x="468" y="476"/>
      <point x="421" y="452"/>
      <point x="390" y="416" type="curve"/>
      <point x="373" y="455"/>
      <point x="328" y="475"/>
      <point x="268" y="475" type="curve" smooth="yes"/>
      <point x="182" y="475"/>
      <point x="125" y="448"/>
      <point x="83" y="407" type="curve"/>
      <point x="79" y="386"/>
      <point x="77" y="364"/>
      <point x="77" y="343" type="curve" smooth="yes"/>
      <point x="77" y="333"/>
      <point x="77" y="324"/>
      <point x="78" y="315" type="curve"/>
      <point x="170" y="307" type="line"/>
      <point x="175" y="340"/>
      <point x="183" y="371"/>
      <point x="201" y="396" type="curve"/>
      <point x="211" y="400"/>
      <point x="228" y="403"/>
      <point x="246" y="403" type="curve" smooth="yes"/>
      <point x="317" y="403"/>
      <point x="321" y="358"/>
      <point x="321" y="253" type="curve"/>
      <point x="229" y="251" type="line" smooth="yes"/>
      <point x="213" y="251"/>
      <point x="197" y="249"/>
      <point x="181" y="248" type="curve" smooth="yes"/>
      <point x="76" y="240"/>
      <point x="37" y="175"/>
      <point x="37" y="114" type="curve" smooth="yes"/>
      <point x="37" y="41"/>
      <point x="84" y="-13"/>
      <point x="170" y="-13" type="curve"/>
      <point x="239" y="-5"/>
      <point x="319" y="32"/>
      <point x="354" y="84" type="curve"/>
      <point x="392" y="10"/>
      <point x="458" y="-13"/>
      <point x="532" y="-13" type="curve" smooth="yes"/>
      <point x="622" y="-13"/>
      <point x="706" y="16"/>
    </contour>
    <contour>
      <point x="603" y="294" type="curve"/>
      <point x="439" y="289" type="line"/>
      <point x="439" y="335"/>
      <point x="454" y="413"/>
      <point x="525" y="413" type="curve" smooth="yes"/>
      <point x="592" y="413"/>
      <point x="603" y="349"/>
    </contour>
    <contour>
      <point x="272" y="75" type="curve"/>
      <point x="272" y="75"/>
      <point x="250" y="66"/>
      <point x="237" y="63" type="curve"/>
      <point x="197" y="63"/>
      <point x="171" y="88"/>
      <point x="171" y="129" type="curve" smooth="yes"/>
      <point x="171" y="185"/>
      <point x="224" y="196"/>
      <point x="275" y="199" type="curve" smooth="yes"/>
      <point x="321" y="202" type="line"/>
      <point x="320" y="147"/>
      <point x="315" y="81"/>
    </contour>
  </outline>
</glyph>
<glyph name="ecircumflex" format="1">
  <advance width="431"/>
  <unicode hex="00EA"/>
  <outline>
    <contour>
      <point x="216" y="632" type="line"/>
      <point x="312" y="540" type="line"/>
      <point x="398" y="540" type="line"/>
      <point x="256" y="709" type="line"/>
      <point x="174" y="709" type="line"/>
      <point x="33" y="540" type="line"/>
      <point x="121" y="540" type="line"/>
    </contour>
    <component base="e"/>
  </outline>
</glyph>
<glyph name="iacute" format="1">
  <advance width="364"/>
  <unicode hex="00ED"/>
  <outline>
    <contour>
      <point x="34" y="60" type="line"/>
      <point x="34" y="0" type="line"/>
      <point x="331" y="0" type="line"/>
      <point x="331" y="60" type="line"/>
      <point x="297" y="63" type="line" smooth="yes"/>
      <point x="250" y="67"/>
      <point x="250" y="78"/>
      <point x="250" y="120" type="curve" smooth="yes"/>
      <point x="250" y="367" type="line"/>
      <point x="255" y="471" type="line"/>
      <point x="187" y="463"/>
      <point x="107" y="456"/>
      <point x="46" y="451" type="curve"/>
      <point x="46" y="410" type="line"/>
      <point x="75" y="396" type="line"/>
      <point x="102" y="387"/>
      <point x="111" y="373"/>
      <point x="118" y="330" type="curve"/>
      <point x="118" y="120" type="line" smooth="yes"/>
      <point x="118" y="75"/>
      <point x="117" y="67"/>
      <point x="70" y="63" type="curve" smooth="yes"/>
    </contour>
    <contour>
      <point x="107" y="536" type="line"/>
      <point x="180" y="536" type="line"/>
      <point x="324" y="707" type="line"/>
      <point x="182" y="707" type="line"/>
    </contour>
  </outline>
</glyph>
<glyph name="icircumflex" format="1">
  <advance width="375"/>
  <unicode hex="00EE"/>
  <outline>
    <contour>
      <point x="44" y="60" type="line"/>
      <point x="44" y="0" type="line"/>
      <point x="341" y="0" type="line"/>
      <point x="341" y="60" type="line"/>
      <point x="307" y="63" type="line" smooth="yes"/>
      <point x="260" y="67"/>
      <point x="260" y="78"/>
      <point x="260" y="120" type="curve" smooth="yes"/>
      <point x="260" y="367" type="line"/>
      <point x="265" y="471" type="line"/>
      <point x="197" y="463"/>
      <point x="117" y="456"/>
      <point x="56" y="451" type="curve"/>
      <point x="56" y="410" type="line"/>
      <point x="85" y="396" type="line"/>
      <point x="112" y="387"/>
      <point x="121" y="373"/>
      <point x="128" y="330" type="curve"/>
      <point x="128" y="120" type="line" smooth="yes"/>
      <point x="128" y="75"/>
      <point x="127" y="67"/>
      <point x="80" y="63" type="curve" smooth="yes"/>
    </contour>
    <contour>
      <point x="184" y="632" type="line"/>
      <point x="262" y="536" type="line"/>
      <point x="332" y="536" type="line"/>
      <point x="231" y="707" type="line"/>
      <point x="137" y="707" type="line"/>
      <point x="37" y="539" type="line"/>
      <point x="105" y="539" type="line"/>
    </contour>
  </outline>
</glyph>
<glyph name="ograve" format="1">
  <advance width="545"/>
  <unicode hex="00F2"/>
  <outline>
    <contour>
      <point x="514" y="236" type="curve" smooth="yes"/>
      <point x="514" y="379"/>
      <point x="427" y="476"/>
      <point x="277" y="476" type="curve" smooth="yes"/>
      <point x="121" y="476"/>
      <point x="32" y="374"/>
      <point x="32" y="226" type="curve" smooth="yes"/>
      <point x="32" y="84"/>
      <point x="120" y="-13"/>
      <point x="268" y="-13" type="curve" smooth="yes"/>
      <point x="422" y="-13"/>
      <point x="514" y="86"/>
    </contour>
    <contour>
      <point x="372" y="232" type="curve" smooth="yes"/>
      <point x="372" y="114"/>
      <point x="339" y="60"/>
      <point x="272" y="60" type="curve" smooth="yes"/>
      <point x="209" y="60"/>
      <point x="174" y="113"/>
      <point x="174" y="232" type="curve" smooth="yes"/>
      <point x="174" y="356"/>
      <point x="211" y="403"/>
      <point x="273" y="403" type="curve" smooth="yes"/>
      <point x="336" y="403"/>
      <point x="372" y="352"/>
    </contour>
    <contour>
      <point x="118" y="707" type="line"/>
      <point x="262" y="536" type="line"/>
      <point x="335" y="536" type="line"/>
      <point x="260" y="707" type="line"/>
    </contour>
  </outline>
</glyph>
<glyph name="otilde" format="1">
  <advance width="559"/>
  <unicode hex="00F5"/>
  <outline>
    <contour>
      <point x="284" y="476" type="curve" smooth="yes"/>
      <point x="128" y="476"/>
      <point x="39" y="374"/>
      <point x="39" y="226" type="curve" smooth="yes"/>
      <point x="39" y="84"/>
      <point x="127" y="-13"/>
      <point x="275" y="-13" type="curve" smooth="yes"/>
      <point x="429" y="-13"/>
      <point x="521" y="86"/>
      <point x="521" y="236" type="curve" smooth="yes"/>
      <point x="521" y="379"/>
      <point x="434" y="476"/>
    </contour>
    <contour>
      <point x="279" y="60" type="curve" smooth="yes"/>
      <point x="216" y="60"/>
      <point x="181" y="113"/>
      <point x="181" y="232" type="curve" smooth="yes"/>
      <point x="181" y="356"/>
      <point x="218" y="403"/>
      <point x="280" y="403" type="curve" smooth="yes"/>
      <point x="343" y="403"/>
      <point x="379" y="352"/>
      <point x="379" y="232" type="curve" smooth="yes"/>
      <point x="379" y="114"/>
      <point x="346" y="60"/>
    </contour>
    <contour>
      <point x="459" y="669" type="curve"/>
      <point x="425" y="687" type="line"/>
      <point x="403" y="649"/>
      <point x="381" y="636"/>
      <point x="359" y="636" type="curve" smooth="yes"/>
      <point x="315" y="636"/>
      <point x="270" y="684"/>
      <point x="216" y="684" type="curve" smooth="yes"/>
      <point x="154" y="684"/>
      <point x="132" y="656"/>
      <point x="99" y="584" type="curve"/>
      <point x="136" y="575" type="line"/>
      <point x="147" y="603"/>
      <point x="164" y="612"/>
      <point x="183" y="612" type="curve" smooth="yes"/>
      <point x="228" y="612"/>
      <point x="290" y="560"/>
      <point x="346" y="560" type="curve" smooth="yes"/>
      <point x="408" y="560"/>
      <point x="429" y="597"/>
    </contour>
  </outline>
</glyph>
<glyph name="odieresis" format="1">
  <advance width="547"/>
  <unicode hex="00F6"/>
  <outline>
    <contour>
      <point x="515" y="236" type="curve" smooth="yes"/>
      <point x="515" y="379"/>
      <point x="428" y="476"/>
      <point x="278" y="476" type="curve" smooth="yes"/>
      <point x="122" y="476"/>
      <point x="33" y="374"/>
      <point x="33" y="226" type="curve" smooth="yes"/>
      <point x="33" y="84"/>
      <point x="121" y="-13"/>
      <point x="269" y="-13" type="curve" smooth="yes"/>
      <point x="423" y="-13"/>
      <point x="515" y="86"/>
    </contour>
    <contour>
      <point x="373" y="232" type="curve" smooth="yes"/>
      <point x="373" y="114"/>
      <point x="340" y="60"/>
      <point x="273" y="60" type="curve" smooth="yes"/>
      <point x="210" y="60"/>
      <point x="175" y="113"/>
      <point x="175" y="232" type="curve" smooth="yes"/>
      <point x="175" y="356"/>
      <point x="212" y="403"/>
      <point x="274" y="403" type="curve" smooth="yes"/>
      <point x="337" y="403"/>
      <point x="373" y="352"/>
    </contour>
    <contour>
      <point x="333" y="627" type="curve" smooth="yes"/>
      <point x="333" y="666"/>
      <point x="306" y="694"/>
      <point x="268" y="694" type="curve" smooth="yes"/>
      <point x="231" y="694"/>
      <point x="204" y="666"/>
      <point x="204" y="627" type="curve" smooth="yes"/>
      <point x="204" y="588"/>
      <point x="231" y="559"/>
      <point x="268" y="559" type="curve" smooth="yes"/>
      <point x="306" y="559"/>
      <point x="333" y="588"/>
    </contour>
    <contour>
      <point x="346" y="627" type="curve" smooth="yes"/>
      <point x="346" y="666"/>
      <point x="319" y="694"/>
      <point x="282" y="694" type="curve" smooth="yes"/>
      <point x="244" y="694"/>
      <point x="217" y="666"/>
      <point x="217" y="627" type="curve" smooth="yes"/>
      <point x="217" y="588"/>
      <point x="244" y="559"/>
      <point x="282" y="559" type="curve" smooth="yes"/>
      <point x="319" y="559"/>
      <point x="346" y="588"/>
    </contour>
  </outline>
</glyph>
<glyph name="divide" format="1">
  <advance width="500"/>
  <unicode hex="00F7"/>
  <outline>
    <contour>
      <point x="25" y="285" type="line"/>
      <point x="25" y="202" type="line"/>
      <point x="476" y="202" type="line"/>
      <point x="476" y="285" type="line"/>
    </contour>
    <contour>
      <point x="324" y="419" type="curve" smooth="yes"/>
      <point x="324" y="462"/>
      <point x="291" y="495"/>
      <point x="250" y="495" type="curve" smooth="yes"/>
      <point x="209" y="495"/>
      <point x="176" y="462"/>
      <point x="176" y="419" type="curve" smooth="yes"/>
      <point x="176" y="377"/>
      <point x="209" y="345"/>
      <point x="250" y="345" type="curve" smooth="yes"/>
      <point x="291" y="345"/>
      <point x="324" y="377"/>
    </contour>
    <contour>
      <point x="324" y="69" type="curve" smooth="yes"/>
      <point x="324" y="111"/>
      <point x="291" y="144"/>
      <point x="250" y="144" type="curve" smooth="yes"/>
      <point x="208" y="144"/>
      <point x="176" y="111"/>
      <point x="176" y="69" type="curve" smooth="yes"/>
      <point x="176" y="27"/>
      <point x="208" y="-6"/>
      <point x="250" y="-6" type="curve" smooth="yes"/>
      <point x="291" y="-6"/>
      <point x="324" y="27"/>
    </contour>
  </outline>
</glyph>
<glyph name="oslash" format="1">
  <advance width="563"/>
  <unicode hex="00F8"/>
  <outline>
    <contour>
      <point x="455" y="410" type="curve"/>
      <point x="524" y="500" type="line"/>
      <point x="482" y="517" type="line"/>
      <point x="421" y="439" type="line"/>
      <point x="385" y="463"/>
      <point x="338" y="476"/>
      <point x="283" y="476" type="curve" smooth="yes"/>
      <point x="127" y="476"/>
      <point x="38" y="374"/>
      <point x="38" y="226" type="curve" smooth="yes"/>
      <point x="38" y="152"/>
      <point x="64" y="91"/>
      <point x="108" y="50" type="curve"/>
      <point x="41" y="-36" type="line"/>
      <point x="83" y="-53" type="line"/>
      <point x="142" y="22" type="line"/>
      <point x="177" y="-1"/>
      <point x="222" y="-13"/>
      <point x="274" y="-13" type="curve" smooth="yes"/>
      <point x="428" y="-13"/>
      <point x="520" y="86"/>
      <point x="520" y="236" type="curve" smooth="yes"/>
      <point x="520" y="309"/>
      <point x="497" y="369"/>
    </contour>
    <contour>
      <point x="355" y="356" type="curve"/>
      <point x="188" y="151" type="line"/>
      <point x="183" y="173"/>
      <point x="180" y="202"/>
      <point x="180" y="230" type="curve" smooth="yes"/>
      <point x="180" y="358"/>
      <point x="217" y="403"/>
      <point x="279" y="403" type="curve" smooth="yes"/>
      <point x="313" y="403"/>
      <point x="338" y="388"/>
    </contour>
    <contour>
      <point x="378" y="232" type="curve" smooth="yes"/>
      <point x="378" y="114"/>
      <point x="345" y="60"/>
      <point x="278" y="60" type="curve" smooth="yes"/>
      <point x="246" y="60"/>
      <point x="222" y="74"/>
      <point x="206" y="103" type="curve"/>
      <point x="372" y="306" type="line"/>
      <point x="376" y="286"/>
      <point x="378" y="261"/>
    </contour>
  </outline>
</glyph>
<glyph name="ugrave" format="1">
  <advance width="639"/>
  <unicode hex="00F9"/>
  <outline>
    <contour>
      <point x="409" y="72" type="curve"/>
      <point x="407" y="-5" type="line"/>
      <point x="612" y="0" type="line"/>
      <point x="612" y="60" type="line"/>
      <point x="579" y="63" type="line" smooth="yes"/>
      <point x="528" y="67"/>
      <point x="532" y="83"/>
      <point x="532" y="124" type="curve" smooth="yes"/>
      <point x="532" y="470" type="line"/>
      <point x="465" y="466"/>
      <point x="384" y="461"/>
      <point x="323" y="460" type="curve"/>
      <point x="322" y="396" type="line"/>
      <point x="359" y="395" type="line" smooth="yes"/>
      <point x="372" y="395"/>
      <point x="382" y="392"/>
      <point x="392" y="391" type="curve"/>
      <point x="399" y="379"/>
      <point x="400" y="362"/>
      <point x="400" y="332" type="curve" smooth="yes"/>
      <point x="400" y="194" type="line" smooth="yes"/>
      <point x="400" y="118"/>
      <point x="364" y="78"/>
      <point x="304" y="78" type="curve" smooth="yes"/>
      <point x="256" y="78"/>
      <point x="226" y="102"/>
      <point x="226" y="158" type="curve" smooth="yes"/>
      <point x="226" y="375" type="line"/>
      <point x="229" y="471" type="line"/>
      <point x="162" y="463"/>
      <point x="83" y="456"/>
      <point x="22" y="451" type="curve"/>
      <point x="22" y="410" type="line"/>
      <point x="56" y="389" type="line"/>
      <point x="91" y="376"/>
      <point x="94" y="360"/>
      <point x="94" y="305" type="curve" smooth="yes"/>
      <point x="94" y="162" type="line" smooth="yes"/>
      <point x="94" y="37"/>
      <point x="140" y="-13"/>
      <point x="248" y="-13" type="curve" smooth="yes"/>
      <point x="324" y="-13"/>
      <point x="377" y="17"/>
      <point x="408" y="72" type="curve"/>
      <point x="408" y="72"/>
      <point x="408" y="72"/>
    </contour>
    <contour>
      <point x="154" y="707" type="line"/>
      <point x="298" y="536" type="line"/>
      <point x="371" y="536" type="line"/>
      <point x="296" y="707" type="line"/>
    </contour>
  </outline>
</glyph>
<glyph name="uacute" format="1">
  <advance width="638"/>
  <unicode hex="00FA"/>
  <outline>
    <contour>
      <point x="408" y="72" type="curve"/>
      <point x="406" y="-5" type="line"/>
      <point x="611" y="0" type="line"/>
      <point x="611" y="60" type="line"/>
      <point x="578" y="63" type="line" smooth="yes"/>
      <point x="527" y="67"/>
      <point x="531" y="83"/>
      <point x="531" y="124" type="curve" smooth="yes"/>
      <point x="531" y="470" type="line"/>
      <point x="464" y="466"/>
      <point x="383" y="461"/>
      <point x="322" y="460" type="curve"/>
      <point x="321" y="396" type="line"/>
      <point x="358" y="395" type="line" smooth="yes"/>
      <point x="371" y="395"/>
      <point x="381" y="392"/>
      <point x="391" y="391" type="curve"/>
      <point x="398" y="379"/>
      <point x="399" y="362"/>
      <point x="399" y="332" type="curve" smooth="yes"/>
      <point x="399" y="194" type="line" smooth="yes"/>
      <point x="399" y="118"/>
      <point x="363" y="78"/>
      <point x="303" y="78" type="curve" smooth="yes"/>
      <point x="255" y="78"/>
      <point x="225" y="102"/>
      <point x="225" y="158" type="curve" smooth="yes"/>
      <point x="225" y="375" type="line"/>
      <point x="228" y="471" type="line"/>
      <point x="161" y="463"/>
      <point x="82" y="456"/>
      <point x="21" y="451" type="curve"/>
      <point x="21" y="410" type="line"/>
      <point x="55" y="389" type="line"/>
      <point x="90" y="376"/>
      <point x="93" y="360"/>
      <point x="93" y="305" type="curve" smooth="yes"/>
      <point x="93" y="162" type="line" smooth="yes"/>
      <point x="93" y="37"/>
      <point x="139" y="-13"/>
      <point x="247" y="-13" type="curve" smooth="yes"/>
      <point x="323" y="-13"/>
      <point x="376" y="17"/>
      <point x="407" y="72" type="curve"/>
      <point x="407" y="72"/>
      <point x="407" y="72"/>
    </contour>
    <contour>
      <point x="243" y="536" type="line"/>
      <point x="316" y="536" type="line"/>
      <point x="460" y="707" type="line"/>
      <point x="318" y="707" type="line"/>
    </contour>
  </outline>
</glyph>
<glyph name="udieresis" format="1">
  <advance width="644"/>
  <unicode hex="00FC"/>
  <outline>
    <contour>
      <point x="413" y="72" type="curve"/>
      <point x="411" y="-5" type="line"/>
      <point x="616" y="0" type="line"/>
      <point x="616" y="60" type="line"/>
      <point x="583" y="63" type="line" smooth="yes"/>
      <point x="532" y="67"/>
      <point x="536" y="83"/>
      <point x="536" y="124" type="curve" smooth="yes"/>
      <point x="536" y="470" type="line"/>
      <point x="469" y="466"/>
      <point x="388" y="461"/>
      <point x="327" y="460" type="curve"/>
      <point x="326" y="396" type="line"/>
      <point x="363" y="395" type="line" smooth="yes"/>
      <point x="376" y="395"/>
      <point x="386" y="392"/>
      <point x="396" y="391" type="curve"/>
      <point x="403" y="379"/>
      <point x="404" y="362"/>
      <point x="404" y="332" type="curve" smooth="yes"/>
      <point x="404" y="194" type="line" smooth="yes"/>
      <point x="404" y="118"/>
      <point x="368" y="78"/>
      <point x="308" y="78" type="curve" smooth="yes"/>
      <point x="260" y="78"/>
      <point x="230" y="102"/>
      <point x="230" y="158" type="curve" smooth="yes"/>
      <point x="230" y="375" type="line"/>
      <point x="233" y="471" type="line"/>
      <point x="166" y="463"/>
      <point x="87" y="456"/>
      <point x="26" y="451" type="curve"/>
      <point x="26" y="410" type="line"/>
      <point x="60" y="389" type="line"/>
      <point x="95" y="376"/>
      <point x="98" y="360"/>
      <point x="98" y="305" type="curve" smooth="yes"/>
      <point x="98" y="162" type="line" smooth="yes"/>
      <point x="98" y="37"/>
      <point x="144" y="-13"/>
      <point x="252" y="-13" type="curve" smooth="yes"/>
      <point x="328" y="-13"/>
      <point x="381" y="17"/>
      <point x="412" y="72" type="curve"/>
      <point x="412" y="72"/>
      <point x="412" y="72"/>
    </contour>
    <contour>
      <point x="471" y="627" type="curve" smooth="yes"/>
      <point x="471" y="666"/>
      <point x="444" y="694"/>
      <point x="406" y="694" type="curve" smooth="yes"/>
      <point x="369" y="694"/>
      <point x="342" y="666"/>
      <point x="342" y="627" type="curve" smooth="yes"/>
      <point x="342" y="588"/>
      <point x="369" y="559"/>
      <point x="406" y="559" type="curve" smooth="yes"/>
      <point x="444" y="559"/>
      <point x="471" y="588"/>
    </contour>
    <contour>
      <point x="272" y="627" type="curve" smooth="yes"/>
      <point x="272" y="666"/>
      <point x="245" y="694"/>
      <point x="208" y="694" type="curve" smooth="yes"/>
      <point x="170" y="694"/>
      <point x="143" y="666"/>
      <point x="143" y="627" type="curve" smooth="yes"/>
      <point x="143" y="588"/>
      <point x="170" y="559"/>
      <point x="208" y="559" type="curve" smooth="yes"/>
      <point x="245" y="559"/>
      <point x="272" y="588"/>
    </contour>
  </outline>
</glyph>
<glyph name="thorn" format="1">
  <advance width="596"/>
  <unicode hex="00FE"/>
  <outline>
    <contour>
      <point x="318" y="69" type="curve" smooth="yes"/>
      <point x="241" y="69"/>
      <point x="237" y="132"/>
      <point x="237" y="211" type="curve" smooth="yes"/>
      <point x="237" y="269"/>
      <point x="243" y="316"/>
      <point x="252" y="354" type="curve"/>
      <point x="269" y="375"/>
      <point x="293" y="387"/>
      <point x="322" y="387" type="curve" smooth="yes"/>
      <point x="386" y="387"/>
      <point x="423" y="343"/>
      <point x="423" y="230" type="curve" smooth="yes"/>
      <point x="423" y="118"/>
      <point x="378" y="69"/>
    </contour>
    <contour>
      <point x="21" y="-236" type="line"/>
      <point x="337" y="-236" type="line"/>
      <point x="337" y="-176" type="line"/>
      <point x="243" y="-148"/>
      <point x="239" y="-143"/>
      <point x="239" y="-122" type="curve" smooth="yes"/>
      <point x="239" y="28" type="line"/>
      <point x="240" y="28"/>
      <point x="240" y="28"/>
      <point x="240" y="28" type="curve"/>
      <point x="262" y="3"/>
      <point x="303" y="-13"/>
      <point x="353" y="-13" type="curve" smooth="yes"/>
      <point x="465" y="-13"/>
      <point x="565" y="73"/>
      <point x="565" y="235" type="curve" smooth="yes"/>
      <point x="565" y="396"/>
      <point x="493" y="476"/>
      <point x="374" y="476" type="curve" smooth="yes"/>
      <point x="316" y="476"/>
      <point x="270" y="453"/>
      <point x="239" y="411" type="curve"/>
      <point x="239" y="618" type="line"/>
      <point x="244" y="722" type="line"/>
      <point x="176" y="714"/>
      <point x="75" y="713"/>
      <point x="27" y="711" type="curve"/>
      <point x="27" y="658" type="line"/>
      <point x="107" y="630"/>
      <point x="107" y="625"/>
      <point x="107" y="560" type="curve" smooth="yes"/>
      <point x="107" y="304" type="line" smooth="yes"/>
      <point x="107" y="303"/>
      <point x="107" y="301"/>
      <point x="107" y="300" type="curve" smooth="yes"/>
      <point x="107" y="-122" type="line" smooth="yes"/>
      <point x="107" y="-141"/>
      <point x="93" y="-158"/>
      <point x="21" y="-176" type="curve"/>
    </contour>
  </outline>
</glyph>
<glyph name="ydieresis" format="1">
  <advance width="568"/>
  <unicode hex="00FF"/>
  <outline>
    <contour>
      <point x="525" y="400" type="curve" smooth="yes"/>
      <point x="545" y="401" type="line"/>
      <point x="546" y="462" type="line"/>
      <point x="330" y="462" type="line"/>
      <point x="330" y="401" type="line"/>
      <point x="368" y="399" type="line" smooth="yes"/>
      <point x="383" y="398"/>
      <point x="393" y="398"/>
      <point x="399" y="389" type="curve"/>
      <point x="396" y="376"/>
      <point x="389" y="360"/>
      <point x="383" y="344" type="curve" smooth="yes"/>
      <point x="296" y="117" type="line"/>
      <point x="226" y="337" type="line" smooth="yes"/>
      <point x="220" y="354"/>
      <point x="213" y="369"/>
      <point x="212" y="387" type="curve"/>
      <point x="212" y="399"/>
      <point x="230" y="396"/>
      <point x="244" y="396" type="curve"/>
      <point x="246" y="465" type="line"/>
      <point x="19" y="465" type="line"/>
      <point x="19" y="400" type="line"/>
      <point x="38" y="398" type="line" smooth="yes"/>
      <point x="70" y="395"/>
      <point x="75" y="369"/>
      <point x="88" y="335" type="curve" smooth="yes"/>
      <point x="209" y="6" type="line"/>
      <point x="219" y="-55" type="line"/>
      <point x="183" y="-131"/>
      <point x="147" y="-161"/>
      <point x="64" y="-176" type="curve"/>
      <point x="90" y="-242" type="line"/>
      <point x="190" y="-227"/>
      <point x="280" y="-167"/>
      <point x="363" y="-80" type="curve"/>
      <point x="363" y="-64"/>
      <point x="370" y="-55"/>
      <point x="346" y="-55" type="curve" smooth="yes"/>
      <point x="327" y="-55"/>
      <point x="321" y="-51"/>
      <point x="321" y="-40" type="curve" smooth="yes"/>
      <point x="321" y="-32"/>
      <point x="326" y="-21"/>
      <point x="329" y="-14" type="curve" smooth="yes"/>
      <point x="483" y="348" type="line" smooth="yes"/>
      <point x="494" y="373"/>
      <point x="497" y="398"/>
    </contour>
    <contour>
      <point x="455" y="627" type="curve" smooth="yes"/>
      <point x="455" y="666"/>
      <point x="428" y="694"/>
      <point x="390" y="694" type="curve" smooth="yes"/>
      <point x="353" y="694"/>
      <point x="326" y="666"/>
      <point x="326" y="627" type="curve" smooth="yes"/>
      <point x="326" y="588"/>
      <point x="353" y="559"/>
      <point x="390" y="559" type="curve" smooth="yes"/>
      <point x="428" y="559"/>
      <point x="455" y="588"/>
    </contour>
    <contour>
      <point x="256" y="627" type="curve" smooth="yes"/>
      <point x="256" y="666"/>
      <point x="229" y="694"/>
      <point x="192" y="694" type="curve" smooth="yes"/>
      <point x="154" y="694"/>
      <point x="127" y="666"/>
      <point x="127" y="627" type="curve" smooth="yes"/>
      <point x="127" y="588"/>
      <point x="154" y="559"/>
      <point x="192" y="559" type="curve" smooth="yes"/>
      <point x="229" y="559"/>
      <point x="256" y="588"/>
    </contour>
  </outline>
</glyph>
<glyph name="dotlessi" format="1">
  <advance width="365"/>
  <unicode hex="0131"/>
  <outline>
    <contour>
      <point x="38" y="60" type="line"/>
      <point x="38" y="0" type="line"/>
      <point x="335" y="0" type="line"/>
      <point x="335" y="60" type="line"/>
      <point x="301" y="63" type="line" smooth="yes"/>
      <point x="254" y="67"/>
      <point x="254" y="78"/>
      <point x="254" y="120" type="curve" smooth="yes"/>
      <point x="254" y="367" type="line"/>
      <point x="259" y="471" type="line"/>
      <point x="191" y="463"/>
      <point x="90" y="462"/>
      <point x="42" y="460" type="curve"/>
      <point x="42" y="407" type="line"/>
      <point x="122" y="379"/>
      <point x="122" y="374"/>
      <point x="122" y="309" type="curve" smooth="yes"/>
      <point x="122" y="120" type="line" smooth="yes"/>
      <point x="122" y="75"/>
      <point x="121" y="67"/>
      <point x="74" y="63" type="curve" smooth="yes"/>
    </contour>
  </outline>
</glyph>
<glyph name="Ydieresis" format="1">
  <advance width="683"/>
  <unicode hex="0178"/>
  <outline>
    <contour>
      <point x="664" y="602" type="curve"/>
      <point x="666" y="667" type="line"/>
      <point x="409" y="667" type="line"/>
      <point x="407" y="602" type="line"/>
      <point x="445" y="599"/>
      <point x="478" y="599"/>
      <point x="494" y="587" type="curve"/>
      <point x="477" y="534"/>
      <point x="405" y="413"/>
      <point x="371" y="333" type="curve"/>
      <point x="335" y="411"/>
      <point x="265" y="527"/>
      <point x="245" y="587" type="curve"/>
      <point x="260" y="601"/>
      <point x="297" y="599"/>
      <point x="327" y="602" type="curve"/>
      <point x="330" y="667" type="line"/>
      <point x="20" y="667" type="line"/>
      <point x="17" y="602" type="line"/>
      <point x="37" y="599"/>
      <point x="56" y="598"/>
      <point x="73" y="590" type="curve"/>
      <point x="133" y="517"/>
      <point x="220" y="344"/>
      <point x="273" y="239" type="curve"/>
      <point x="273" y="120" type="line" smooth="yes"/>
      <point x="273" y="102"/>
      <point x="272" y="88"/>
      <point x="269" y="75" type="curve"/>
      <point x="259" y="71"/>
      <point x="246" y="69"/>
      <point x="229" y="68" type="curve" smooth="yes"/>
      <point x="175" y="64" type="line"/>
      <point x="175" y="0" type="line"/>
      <point x="518" y="0" type="line"/>
      <point x="518" y="64" type="line"/>
      <point x="459" y="68" type="line" smooth="yes"/>
      <point x="442" y="69"/>
      <point x="429" y="71"/>
      <point x="419" y="75" type="curve"/>
      <point x="416" y="88"/>
      <point x="415" y="102"/>
      <point x="415" y="120" type="curve" smooth="yes"/>
      <point x="415" y="239" type="line"/>
      <point x="463" y="340"/>
      <point x="529" y="458"/>
      <point x="584" y="558" type="curve" smooth="yes"/>
      <point x="607" y="599"/>
      <point x="623" y="597"/>
    </contour>
    <contour>
      <point x="509" y="775" type="curve" smooth="yes"/>
      <point x="509" y="814"/>
      <point x="482" y="842"/>
      <point x="445" y="842" type="curve" smooth="yes"/>
      <point x="407" y="842"/>
      <point x="380" y="814"/>
      <point x="380" y="775" type="curve" smooth="yes"/>
      <point x="380" y="736"/>
      <point x="407" y="707"/>
      <point x="445" y="707" type="curve" smooth="yes"/>
      <point x="482" y="707"/>
      <point x="509" y="736"/>
    </contour>
    <contour>
      <point x="311" y="775" type="curve" smooth="yes"/>
      <point x="311" y="814"/>
      <point x="284" y="842"/>
      <point x="246" y="842" type="curve" smooth="yes"/>
      <point x="209" y="842"/>
      <point x="182" y="814"/>
      <point x="182" y="775" type="curve" smooth="yes"/>
      <point x="182" y="736"/>
      <point x="209" y="707"/>
      <point x="246" y="707" type="curve" smooth="yes"/>
      <point x="284" y="707"/>
      <point x="311" y="736"/>
    </contour>
  </outline>
</glyph>
<glyph name="circumflex" format="1">
  <advance width="389"/>
  <unicode hex="02C6"/>
  <outline>
    <contour>
      <point x="378" y="540" type="line"/>
      <point x="236" y="709" type="line"/>
      <point x="154" y="709" type="line"/>
      <point x="13" y="540" type="line"/>
      <point x="101" y="540" type="line"/>
      <point x="196" y="632" type="line"/>
      <point x="292" y="540" type="line"/>
    </contour>
  </outline>
</glyph>
<glyph name="caron" format="1">
  <advance width="389"/>
  <unicode hex="02C7"/>
  <outline>
    <contour>
      <point x="13" y="709" type="line"/>
      <point x="155" y="540" type="line"/>
      <point x="237" y="540" type="line"/>
      <point x="378" y="709" type="line"/>
      <point x="290" y="709" type="line"/>
      <point x="195" y="617" type="line"/>
      <point x="99" y="709" type="line"/>
    </contour>
  </outline>
</glyph>
<glyph name="hungarumlaut" format="1">
  <advance width="389"/>
  <unicode hex="02DD"/>
  <outline>
    <contour>
      <point x="299" y="712" type="line"/>
      <point x="174" y="712" type="line"/>
      <point x="106" y="542" type="line"/>
      <point x="172" y="542" type="line"/>
    </contour>
    <contour>
      <point x="332" y="712" type="line"/>
      <point x="207" y="712" type="line"/>
      <point x="139" y="542" type="line"/>
      <point x="205" y="542" type="line"/>
    </contour>
  </outline>
</glyph>
<glyph name="Delta" format="1">
  <advance width="623"/>
  <unicode hex="0394"/>
  <outline>
    <contour>
      <point x="26" y="31" type="line"/>
      <point x="26" y="0" type="line"/>
      <point x="598" y="0" type="line"/>
      <point x="598" y="31" type="line"/>
      <point x="333" y="672" type="line"/>
      <point x="282" y="659" type="line"/>
    </contour>
    <contour>
      <point x="272" y="520" type="line"/>
      <point x="459" y="55" type="line"/>
      <point x="89" y="55" type="line"/>
    </contour>
  </outline>
</glyph>
